<svg width="22" height="22" viewBox="0 0 22 22" fill="none" xmlns="http://www.w3.org/2000/svg">
<path fill-rule="evenodd" clip-rule="evenodd" d="M10.3643 0.333076C10.7643 -0.0693033 11.3216 -0.0152769 11.5986 0.0332715C11.9389 0.0929378 12.3052 0.227868 12.6357 0.372139C13.3058 0.664651 13.995 1.07117 14.3633 1.29792C15.3205 1.88733 15.5 2.99553 15.5 3.73249C15.4998 4.14655 15.1641 4.48249 14.75 4.48249H11.5V5.18952C11.5146 5.19662 11.5296 5.20274 11.5439 5.21003C11.7482 5.31393 11.9747 5.46055 12.2139 5.61628C12.2227 5.62203 12.2314 5.62808 12.2402 5.63386L14.3506 7.00788C14.7759 7.28473 15.1377 7.52096 15.4209 7.74616C15.7229 7.98633 15.9791 8.24626 16.166 8.59284C16.3526 8.93896 16.4298 9.29648 16.4658 9.68171C16.4997 10.0439 16.5 10.4796 16.5 10.9923V12.2081C16.8083 12.3104 17.1009 12.4102 17.3623 12.5137C17.7706 12.6754 18.1692 12.8707 18.5068 13.1573C19.2434 13.7828 19.5 14.6708 19.5 15.9122V20.0001H20.75C21.1642 20.0001 21.5 20.3359 21.5 20.7501C21.4999 21.1642 21.1642 21.5001 20.75 21.5001H0.75C0.335827 21.5001 6.5964e-05 21.1642 0 20.7501C0 20.3359 0.335786 20.0001 0.75 20.0001H2V15.9122C2 14.6706 2.25721 13.7828 2.99414 13.1573C3.33171 12.8708 3.72949 12.6754 4.1377 12.5137C4.39905 12.4102 4.69178 12.3103 5 12.2081V10.9923C4.99998 10.4796 5.00033 10.0439 5.03418 9.68171C5.07021 9.29648 5.1474 8.93896 5.33398 8.59284C5.52087 8.24626 5.77711 7.98633 6.0791 7.74616C6.36229 7.52096 6.72415 7.28473 7.14941 7.00788C7.1587 7.00184 7.16839 6.99541 7.17773 6.98933L9.25977 5.63386C9.26863 5.62808 9.2773 5.62203 9.28613 5.61628C9.52527 5.46055 9.75185 5.31393 9.95605 5.21003C9.97039 5.20274 9.98542 5.19662 10 5.18952V1.68562C9.99992 1.47925 10.0003 1.25699 10.0254 1.0694C10.0547 0.850151 10.1294 0.569432 10.3643 0.333076ZM4.69043 13.9083C4.34352 14.0457 4.12026 14.169 3.96484 14.3008C3.71571 14.5123 3.5 14.8622 3.5 15.9122V20.0001H5V13.794C4.89144 13.8325 4.78843 13.8695 4.69043 13.9083ZM10.7383 6.503C10.7227 6.50754 10.6909 6.51889 10.6357 6.54694C10.5117 6.61009 10.3537 6.71226 10.0781 6.89167L7.99609 8.24616C7.53521 8.54622 7.23363 8.74431 7.0127 8.91999C6.80439 9.08566 6.71198 9.19778 6.6543 9.30476C6.5964 9.41216 6.55248 9.55261 6.52734 9.82136C6.50078 10.1056 6.5 10.4709 6.5 11.0255V20.0001H8V17.7051C7.99995 17.2724 7.99958 16.8756 8.04297 16.5528C8.09076 16.1973 8.20372 15.8218 8.5127 15.5128C8.82171 15.2038 9.19726 15.0908 9.55273 15.043C9.8755 14.9996 10.2723 15 10.7051 15.0001H10.7949C11.2277 15 11.6245 14.9996 11.9473 15.043C12.3027 15.0908 12.6783 15.2037 12.9873 15.5128C13.2963 15.8218 13.4092 16.1973 13.457 16.5528C13.5004 16.8756 13.5001 17.2724 13.5 17.7051V20.0001H15V11.0255C15 10.4709 14.9992 10.1056 14.9727 9.82136C14.9475 9.55261 14.9036 9.41216 14.8457 9.30476C14.788 9.19778 14.6956 9.08565 14.4873 8.91999C14.2664 8.74431 13.9648 8.54622 13.5039 8.24616L11.4219 6.89167C11.1463 6.71226 10.9883 6.61009 10.8643 6.54694C10.8091 6.51889 10.7773 6.50754 10.7617 6.503C10.7546 6.50093 10.7506 6.50015 10.75 6.50007C10.7492 6.50019 10.7451 6.50103 10.7383 6.503ZM16.5 20.0001H18V15.9122C18 14.8628 17.7851 14.5123 17.5361 14.3008C17.3807 14.1689 17.1565 14.0457 16.8096 13.9083C16.7116 13.8695 16.6086 13.8325 16.5 13.794V20.0001ZM10.75 16.5001C10.2575 16.5001 9.96364 16.502 9.75293 16.5303C9.65637 16.5433 9.60772 16.5585 9.58594 16.5675C9.58098 16.5695 9.57711 16.5704 9.5752 16.5714L9.57324 16.5733L9.57227 16.5753C9.57126 16.5772 9.56946 16.581 9.56738 16.586C9.55842 16.6078 9.54325 16.6564 9.53027 16.753C9.50198 16.9637 9.5 17.2577 9.5 17.7501V20.0001H12V17.7501C12 17.2577 11.998 16.9637 11.9697 16.753C11.9567 16.6564 11.9416 16.6078 11.9326 16.586C11.9305 16.581 11.9287 16.5772 11.9277 16.5753L11.9268 16.5733L11.9248 16.5714C11.9229 16.5704 11.919 16.5695 11.9141 16.5675C11.8923 16.5585 11.8436 16.5433 11.7471 16.5303C11.5364 16.502 11.2424 16.5001 10.75 16.5001ZM10.7588 10.7501C11.3111 10.7501 11.7588 11.1978 11.7588 11.7501C11.7587 12.3023 11.311 12.7501 10.7588 12.7501H10.75C10.1978 12.7501 9.75007 12.3023 9.75 11.7501C9.75 11.1978 10.1977 10.7501 10.75 10.7501H10.7588ZM11.5 2.98249H13.8848C13.8115 2.79093 13.7061 2.65469 13.5771 2.57526C13.2251 2.35851 12.6069 1.99669 12.0352 1.74714C11.828 1.65674 11.6471 1.59021 11.5 1.5489V2.98249Z" fill="#7E8082"/>
</svg>
