<svg width="24" height="24" viewBox="0 0 24 24" fill="none" xmlns="http://www.w3.org/2000/svg">
<path d="M22 22.75C22.4142 22.75 22.75 22.4142 22.75 22C22.75 21.5858 22.4142 21.25 22 21.25H20.75V11.2012C20.75 10.9304 20.7499 10.6655 20.7227 10.4395C20.6914 10.1802 20.6194 9.90971 20.4346 9.65332C20.2553 9.40471 20.0243 9.24514 19.7969 9.12109C19.5867 9.00653 19.3234 8.89344 19.0342 8.76953L13.75 6.50586V4.61426C13.7501 3.91395 13.7502 3.29859 13.6738 2.82422C13.5915 2.31254 13.3914 1.77658 12.8379 1.46094C12.3032 1.15615 11.737 1.22942 11.2354 1.38086C10.7533 1.52641 10.1663 1.79735 9.47949 2.11426L4.92969 4.21387C4.92027 4.21821 4.91074 4.22224 4.90137 4.22656C4.62333 4.3548 4.36679 4.47261 4.16211 4.59277C3.93791 4.72439 3.71566 4.89163 3.54492 5.14648C3.37166 5.40515 3.30445 5.67463 3.27539 5.93359C3.24965 6.1633 3.24996 6.43443 3.25 6.71777L3.25 21.25H2C1.58579 21.25 1.25 21.5858 1.25 22C1.25 22.4142 1.58579 22.75 2 22.75L22 22.75ZM4.75 6.75098C4.75 6.42268 4.7514 6.2376 4.7666 6.10156C4.77333 6.04148 4.78053 6.00978 4.78516 5.99512C4.78824 5.98544 4.79046 5.98222 4.79102 5.98145C4.7916 5.98054 4.79581 5.97456 4.81055 5.96191C4.82828 5.94673 4.86122 5.92233 4.92188 5.88672C5.05476 5.80872 5.2417 5.72094 5.55762 5.5752L10.0576 3.49902C10.8084 3.15266 11.2996 2.92892 11.6689 2.81738C11.8456 2.76405 11.9535 2.74979 12.0176 2.75C12.0698 2.75022 12.0863 2.75984 12.0947 2.76465L12.0967 2.76562C12.1024 2.76877 12.1066 2.77076 12.1172 2.79004C12.1359 2.82415 12.1665 2.90208 12.1924 3.0625C12.2472 3.40314 12.25 3.89519 12.25 4.6748L12.25 21.25H4.75L4.75 6.75098ZM13.75 8.1377L18.415 10.1367C18.742 10.2768 18.9389 10.362 19.0791 10.4385C19.1439 10.4738 19.1798 10.4982 19.1992 10.5137C19.2083 10.5209 19.2127 10.5261 19.2148 10.5283L19.2168 10.5293V10.5313C19.2197 10.5396 19.2268 10.5646 19.2334 10.6191C19.2485 10.7446 19.25 10.9178 19.25 11.2363V21.25L13.75 21.25L13.75 8.1377ZM9.5 9.75C9.91421 9.75 10.25 9.41421 10.25 9C10.25 8.58579 9.91421 8.25 9.5 8.25L7.5 8.25C7.08579 8.25 6.75 8.58579 6.75 9C6.75 9.41421 7.08579 9.75 7.5 9.75L9.5 9.75ZM9.5 13.75C9.91421 13.75 10.25 13.4142 10.25 13C10.25 12.5858 9.91421 12.25 9.5 12.25L7.5 12.25C7.08579 12.25 6.75 12.5858 6.75 13C6.75 13.4142 7.08579 13.75 7.5 13.75L9.5 13.75ZM9.5 17.75C9.91421 17.75 10.25 17.4142 10.25 17C10.25 16.5858 9.91421 16.25 9.5 16.25H7.5C7.08579 16.25 6.75 16.5858 6.75 17C6.75 17.4142 7.08579 17.75 7.5 17.75H9.5Z" fill="#7E8082"/>
</svg>
