<svg width="24" height="24" viewBox="0 0 24 24" fill="none" xmlns="http://www.w3.org/2000/svg">
<path fill-rule="evenodd" clip-rule="evenodd" d="M18 19.2502C18.414 19.2502 18.75 19.5862 18.75 20.0002C18.75 20.4142 18.414 20.7502 18 20.7502H2C1.586 20.7502 1.25 20.4142 1.25 20.0002C1.25 19.5862 1.586 19.2502 2 19.2502H18ZM13.7373 3.84687C15.6343 3.05488 17.6018 3.05115 19.4248 3.83515C20.8426 4.44415 21.7905 5.36265 22.1035 5.77362C22.5993 6.39341 22.8926 6.81935 22.6797 7.67108L22.668 7.70917C22.3979 8.59011 21.6414 8.81267 21.3564 8.89667L21.3164 8.90839C21.1963 8.94442 20.5451 9.11994 19.4043 9.4289C18.3303 9.71989 16.9965 10.0804 16.2725 10.2824C16.2267 10.2993 16.1968 10.324 16.1729 10.3498C16.0769 10.5148 15.8051 11.0647 15.6211 11.4377C15.3513 11.9842 15.1706 12.347 15.0557 12.548C14.8227 13.094 14.2657 13.7456 13.5078 14.0207L13.4971 14.0246C13.1022 14.1625 12.5426 14.3044 12.1348 14.4094C11.9528 14.4564 11.7455 14.5085 11.6885 14.5275C11.1555 14.7055 10.8194 14.7502 10.6094 14.7502L10.6074 14.7492C10.4704 14.7492 10.3859 14.73 10.3369 14.716C10.0201 14.6379 9.74401 14.4362 9.5791 14.1584C9.40411 13.8654 9.36485 13.5104 9.46484 13.1594C9.52784 12.9384 9.63903 12.394 9.70703 12.05C9.59111 12.081 9.46585 12.1118 9.33496 12.1418C8.74206 12.3088 8.15007 12.4666 7.74414 12.5656C6.05368 13.0584 5.13074 13.1906 4.85156 13.1906C4.38656 13.1906 3.96843 13.1248 3.44043 12.8078L3.38574 12.7717C2.96374 12.4647 2.63292 12.076 2.29492 11.091C2.18682 10.7935 1.86588 9.64327 1.62598 8.73065C1.27403 7.39085 1.16114 6.86222 1.33203 6.45624C1.48003 6.07324 1.71479 5.80897 2.13379 5.55097C2.28083 5.46101 2.52643 5.34682 3.73828 5.04511L3.76953 5.03729C3.99056 4.9823 4.41779 4.91127 4.84473 5.03925C5.32857 5.15637 5.75215 5.62958 6.33398 6.32538C6.43289 6.44427 6.56591 6.60314 6.625 6.66327L6.6543 6.68183L6.70605 6.73456C6.81187 6.84038 6.96683 6.93528 7.04297 6.94257C7.15791 6.95256 7.31529 6.91435 7.53711 6.82245C7.69609 6.75446 9.34113 5.95944 10.6641 5.32147C12.1061 4.62547 13.4677 3.96865 13.7188 3.85565L13.7373 3.84687ZM20.9102 6.68476C20.87 6.63397 18.2538 3.59488 14.3242 5.22772C14.0662 5.34472 12.6684 6.02005 11.3164 6.67304C9.24941 7.67104 8.25928 8.14719 8.11328 8.20819C7.80329 8.33718 7.38515 8.4797 6.9082 8.43671C6.33437 8.38463 5.88555 8.02416 5.68555 7.83417C5.55257 7.72719 5.41652 7.5662 5.18359 7.28729C4.99567 7.06238 4.61457 6.60678 4.43848 6.48456L4.41504 6.47577C4.37662 6.46389 4.26214 6.46058 4.13477 6.49237L4.10254 6.50019C3.20874 6.72313 2.95944 6.816 2.90137 6.84003C2.81744 6.89299 2.7788 6.92439 2.75879 6.95038C2.78486 7.22745 2.97311 7.94684 3.0791 8.34882C3.3711 9.46182 3.65005 10.4264 3.70605 10.5764L3.71387 10.5959C3.9508 11.2877 4.11221 11.4413 4.24219 11.5383C4.46319 11.6663 4.59952 11.6906 4.85352 11.6906C4.97786 11.6866 5.77922 11.5772 7.34277 11.1203L7.37598 11.1115C7.76992 11.0165 8.35831 10.8605 8.94922 10.6935L8.9873 10.6828C9.30213 10.6118 9.57501 10.531 9.79395 10.466C10.1519 10.36 10.5473 10.2432 10.8633 10.4201C11.0043 10.4851 11.1268 10.587 11.2158 10.717C11.4978 11.128 11.3547 11.6263 11.2607 11.9553C11.2527 11.9833 11.2452 12.0075 11.2402 12.0275L11.2363 12.0295C11.2112 12.17 11.1048 12.7275 11.0059 13.1672C11.0735 13.1483 11.1442 13.1276 11.2119 13.1047C11.3149 13.0707 11.4717 13.0293 11.7617 12.9553C12.1425 12.8583 12.6621 12.7255 12.9971 12.6096C13.339 12.4836 13.6026 12.1455 13.6807 11.9445L13.7031 11.884L13.7363 11.8293C13.8253 11.6803 14.0644 11.1976 14.2754 10.7717C14.6643 9.98495 14.846 9.62223 14.96 9.46015L15.001 9.40253L15.0391 9.36542C15.1331 9.26142 15.3824 8.99375 15.8184 8.85175L15.8496 8.84296C16.5747 8.64195 17.8698 8.29157 19.0127 7.98261C19.9206 7.73663 20.7787 7.50386 20.8857 7.47187L20.9346 7.45819C21.1714 7.38923 21.2045 7.36025 21.2285 7.28827C21.2518 7.19145 21.2501 7.15831 21.25 7.15448C21.228 7.08154 21.0169 6.81742 20.9258 6.70429L20.9102 6.68476Z" fill="#7E8082"/>
</svg>
