<svg width="24" height="24" viewBox="0 0 24 24" fill="none" xmlns="http://www.w3.org/2000/svg">
<path fill-rule="evenodd" clip-rule="evenodd" d="M10.4602 3.13666C9.81498 3.41847 9.04376 3.84675 7.95475 4.45279L3.8455 6.73962C3.42366 6.97438 3.16576 7.2158 3.0064 7.47702C2.8487 7.73553 2.75016 8.07464 2.75016 8.56906C2.75016 8.73799 2.75015 8.83987 2.75381 8.91672C2.75633 8.97227 2.75996 8.99352 2.7607 8.99734C2.7804 9.071 2.80403 9.10321 2.81638 9.11734C2.82961 9.13246 2.85194 9.15172 2.89764 9.17209C3.00739 9.22098 3.18867 9.25 3.46944 9.25H20.5309C20.8116 9.25 20.9929 9.22098 21.1027 9.17209C21.1484 9.15173 21.1707 9.13246 21.1839 9.11734C21.1963 9.10321 21.2199 9.071 21.2396 8.99734C21.2404 8.99351 21.244 8.97225 21.2465 8.91672C21.25 8.83986 21.2502 8.73799 21.2502 8.56906C21.2502 8.07464 21.1516 7.73553 20.9939 7.47702C20.8346 7.2158 20.5766 6.97438 20.1548 6.73962L16.0456 4.45279C14.9566 3.84675 14.1853 3.41847 13.5402 3.13666C12.9099 2.86135 12.4514 2.75 12.0002 2.75C11.5489 2.75 11.0904 2.86135 10.4602 3.13666ZM12.0002 1.25C12.7291 1.25 13.3992 1.43822 14.1406 1.76205C14.8596 2.07611 15.6934 2.54013 16.7421 3.12378L20.8842 5.42892C21.4606 5.7497 21.943 6.15262 22.2744 6.69586C22.6075 7.24182 22.7503 7.8673 22.7503 8.56906V8.63516C22.7507 8.89062 22.7512 9.14971 22.6896 9.3815C22.5346 9.96479 22.1654 10.3407 21.7131 10.5422C21.3901 10.6862 21.0449 10.7325 20.7502 10.7455V18.1825C21.9396 18.8113 22.7503 20.061 22.7503 21.5C22.7503 22.1904 22.1905 22.75 21.5002 22.75H2.50019C1.80983 22.75 1.25 22.1904 1.25 21.5C1.25 20.061 2.06074 18.8113 3.25019 18.1825V10.7455C2.95544 10.7325 2.61026 10.6862 2.2872 10.5422C1.83495 10.3408 1.46568 9.96479 1.31072 9.3815C1.26454 9.20766 1.25326 9.01845 1.25067 8.82693L1.25 8.56906C1.25 7.8673 1.39282 7.24182 1.72587 6.69586C2.05727 6.15262 2.53966 5.7497 3.11607 5.42892L7.25825 3.12378C8.30697 2.54015 9.14074 2.07611 9.85973 1.76205C10.6011 1.43822 11.2712 1.25 12.0002 1.25ZM19.0002 19.25H5.00019C3.84205 19.25 2.88828 20.125 2.76392 21.25H21.2364C21.1121 20.125 20.1583 19.25 19.0002 19.25ZM4.75019 17.7582C4.83282 17.7528 4.91618 17.75 5.00019 17.75H7.25019V10.75H4.75019V17.7582ZM8.75019 17.75H15.2502V10.75H8.75019V17.75ZM16.7502 17.75H19.0002C19.0842 17.75 19.1675 17.7528 19.2502 17.7582V10.75H16.7502V17.75ZM10.996 7C10.996 6.44772 11.4437 6 11.996 6H12.005C12.5573 6 13.005 6.44772 13.005 7C13.005 7.55228 12.5573 8 12.005 8H11.996C11.4437 8 10.996 7.55228 10.996 7Z" fill="#7E8082"/>
</svg>
