<svg width="24" height="24" viewBox="0 0 24 24" fill="none" xmlns="http://www.w3.org/2000/svg">
<path d="M11.999 1.25C12.591 1.25 12.9994 1.61598 13.2861 1.95801C13.5659 2.29179 13.8642 2.76931 14.2061 3.31641C14.2156 3.33167 14.2257 3.34693 14.2354 3.3623L15.5498 5.46582C15.6589 5.52237 15.7634 5.58493 15.8662 5.64746L15.915 5.67773L20.3008 8.33594L20.3613 8.37207C20.5889 8.50903 20.8461 8.66409 21.0303 8.8916C21.2252 9.13258 21.3101 9.41702 21.3779 9.64648L21.3945 9.70508L21.7188 10.7842C21.8378 11.1809 21.6126 11.5997 21.2158 11.7188C20.8192 11.8377 20.4014 11.6123 20.2822 11.2158L19.958 10.1367C19.9112 9.98067 19.8882 9.90365 19.8672 9.84961C19.8645 9.84273 19.8622 9.83727 19.8604 9.83301C19.853 9.82709 19.841 9.81805 19.8232 9.80566C19.7892 9.78194 19.7464 9.75693 19.6895 9.72168C19.6286 9.7376 19.5658 9.75 19.5 9.75H15.5947L19.5361 21.25H21C21.4142 21.25 21.75 21.5858 21.75 22C21.75 22.4142 21.4142 22.75 21 22.75H3C2.58579 22.75 2.25 22.4142 2.25 22C2.25 21.5858 2.58579 21.25 3 21.25H4.46484L8.40625 9.75H4.2666C4.23159 9.77209 4.20211 9.78869 4.17773 9.80566C4.16014 9.81793 4.14804 9.82709 4.14062 9.83301C4.13882 9.83723 4.13643 9.84282 4.13379 9.84961C4.11281 9.90365 4.08881 9.98065 4.04199 10.1367L3.71875 11.2158C3.59969 11.6122 3.18166 11.8374 2.78516 11.7188C2.38841 11.5997 2.1632 11.1809 2.28223 10.7842L2.60547 9.70508L2.62305 9.64648C2.69092 9.41697 2.77562 9.13258 2.9707 8.8916C3.10753 8.72259 3.28371 8.59268 3.45898 8.48145C3.54644 8.39023 3.65733 8.32406 3.78125 8.28613L8.08594 5.67773L8.13379 5.64844C8.23575 5.5864 8.33909 5.52302 8.44727 5.4668L9.76367 3.3623C9.77323 3.34701 9.7825 3.3316 9.79199 3.31641C10.1339 2.76922 10.4321 2.29184 10.7119 1.95801C10.9986 1.61596 11.407 1.25011 11.999 1.25ZM7.43262 21.25H16.5674L11.999 18.1348L7.43262 21.25ZM6.44141 20.1084L10.667 17.2266L8.04199 15.4365L6.44141 20.1084ZM13.3311 17.2266L17.5586 20.1084L15.957 15.4365L13.3311 17.2266ZM9.32422 14.4951L11.999 16.3184L14.6758 14.4951L11.999 12.6426L9.32422 14.4951ZM8.88574 12.9746L10.6826 11.7305L9.5752 10.9639L8.88574 12.9746ZM13.3164 11.7305L15.1133 12.9746L14.4238 10.9639L13.3164 11.7305ZM12 10.8184L13.5439 9.75H10.4561L12 10.8184ZM6.7334 8.25H8.64453L8.45508 7.20605L6.7334 8.25ZM10.1377 8.08105L10.1416 8.10156C10.1491 8.15096 10.1548 8.20051 10.1602 8.25H13.8408C13.8462 8.2005 13.8519 8.15097 13.8594 8.10156L13.8623 8.08105L14.1025 6.75H9.89746L10.1377 8.08105ZM15.3564 8.25H17.2666L15.5439 7.20605L15.3564 8.25ZM11.8613 2.92188C11.6573 3.16537 11.4143 3.55061 11.0352 4.15723L10.3525 5.25H13.6455L12.9629 4.15723C12.5837 3.55056 12.3407 3.16533 12.1367 2.92188C12.0752 2.84843 12.0298 2.80312 11.999 2.77637C11.9682 2.80313 11.9229 2.84841 11.8613 2.92188Z" fill="#7E8082"/>
</svg>
