<svg width="24" height="24" viewBox="0 0 24 24" fill="none" xmlns="http://www.w3.org/2000/svg">
<path fill-rule="evenodd" clip-rule="evenodd" d="M12.5828 3.4685C14.1983 2.25527 16.8733 1.52669 19.8542 3.35522C21.9152 4.61966 23.0746 7.26043 22.6677 10.2947C22.2588 13.3438 20.2857 16.7929 16.1062 19.8865C16.0712 19.9124 16.0361 19.9381 16.0017 19.9636C14.5504 21.0384 13.5888 21.7498 11.9988 21.7498C10.4091 21.7496 9.44789 21.0383 7.99682 19.9636C7.96242 19.9381 7.9273 19.9124 7.89233 19.8865C3.71273 16.7929 1.73976 13.3438 1.33081 10.2947C0.923892 7.26034 2.08324 4.61963 4.14428 3.35522C7.12514 1.52676 9.79924 2.25535 11.4148 3.4685C11.6805 3.66806 11.863 3.80497 11.9988 3.89722C12.1345 3.80501 12.3172 3.66797 12.5828 3.4685ZM19.0691 4.63354C16.687 3.17257 14.6806 3.76928 13.4841 4.66772L13.4626 4.68335C13.1923 4.88637 12.9599 5.06076 12.7742 5.18237C12.6776 5.24555 12.5706 5.30999 12.4597 5.36011C12.3544 5.40768 12.1925 5.46753 11.9988 5.46753C11.8051 5.46745 11.6431 5.40767 11.5378 5.36011C11.427 5.30999 11.3198 5.24551 11.2234 5.18237C11.0377 5.06075 10.8051 4.88629 10.5349 4.68335L10.5144 4.66772C9.31787 3.76918 7.31075 3.17225 4.92846 4.63354C3.47046 5.52802 2.4727 7.52732 2.81714 10.0955C3.15962 12.6491 4.84675 15.7655 8.78491 18.6804C10.3669 19.8513 10.9444 20.2497 11.9988 20.2498C13.0534 20.2498 13.6315 19.8515 15.2136 18.6804C19.1517 15.7655 20.8389 12.649 21.1814 10.0955C21.5258 7.52721 20.5272 5.52796 19.0691 4.63354ZM11.9998 8.25073C12.4137 8.25099 12.7498 8.58668 12.7498 9.00073L12.7498 11.2507H14.9998C15.4137 11.251 15.7498 11.5867 15.7498 12.0007C15.7498 12.4148 15.4137 12.7505 14.9998 12.7507H12.7498V15.0007C12.7498 15.4148 12.4137 15.7505 11.9998 15.7507C11.5855 15.7507 11.2498 15.4149 11.2498 15.0007V12.7507H8.99975C8.58554 12.7507 8.24975 12.4149 8.24975 12.0007C8.24975 11.5865 8.58554 11.2507 8.99975 11.2507H11.2498L11.2498 9.00073C11.2498 8.58652 11.5855 8.25073 11.9998 8.25073Z" fill="#7E8082"/>
</svg>
