<svg width="169" height="37" viewBox="0 0 169 37" fill="none" xmlns="http://www.w3.org/2000/svg">
<path d="M84.0002 16.2C85.2002 14.9 86.6002 14.4 88.3002 14.5C90.5002 14.7 91.9002 16.3 92.0002 18.6C92.1002 20.8 92.0002 23.1 92.0002 25.3C92.0002 26 91.5002 26.4 90.8002 26.4C90.1002 26.4 89.7002 26 89.7002 25.2C89.7002 23.2 89.7002 21.3 89.7002 19.3C89.7002 18.9 89.7002 18.6 89.6002 18.2C89.3002 17 88.5002 16.4 87.2002 16.4C86.0002 16.4 85.0002 17.2 84.7002 18.4C84.6002 18.7 84.6002 19 84.6002 19.3C84.6002 21.3 84.6002 23.3 84.6002 25.2C84.6002 25.8 84.3002 26.2 83.8002 26.3C83.2002 26.4 82.7002 26.2 82.5002 25.7C82.4002 25.5 82.4002 25.3 82.4002 25.1C82.4002 23.1 82.4002 21.2 82.4002 19.3C82.4002 19.1 82.4002 18.8 82.4002 18.6C82.2002 17.2 81.4002 16.5 80.1002 16.5C78.8002 16.5 77.7002 17.3 77.5002 18.6C77.4002 18.9 77.4002 19.3 77.4002 19.6C77.4002 21.5 77.4002 23.4 77.4002 25.3C77.4002 26.1 77.0002 26.5 76.3002 26.5C75.6002 26.5 75.2002 26.1 75.2002 25.2C75.2002 22.1 75.2002 19 75.2002 15.9C75.2002 15.1 75.5002 14.7 76.1002 14.6C76.8002 14.5 77.2002 14.8 77.5002 15.6C78.5002 14.8 79.6002 14.4 80.8002 14.5C82.2002 14.6 83.2002 15.1 84.0002 16.2Z" fill="white"/>
<path d="M66.8001 26.7C64.7001 26.7 62.8001 26 61.4001 24.4C61.1001 24.1 60.9001 23.7 60.7001 23.3C60.4001 22.5 60.8001 21.8 61.7001 21.8C62.1001 21.8 62.5001 22 62.7001 22.4C63.4001 23.8 64.7001 24.3 66.1001 24.5C67.0001 24.6 68.0001 24.5 68.9001 24.2C69.9001 23.8 70.6001 23.1 70.7001 22C70.8001 20.8 70.2001 19.9 69.2001 19.3C68.4001 18.8 67.5001 18.7 66.6001 18.6C65.2001 18.4 63.9001 18 62.7001 17.1C60.2001 15.1 60.6001 11.5 63.4001 10.1C65.2001 9.19997 67.0001 9.09997 68.9001 9.49997C70.5001 9.89997 71.6001 10.9 72.4001 12.3C72.8001 12.9 72.6001 13.5 72.1001 13.8C71.6001 14.1 70.9001 13.9 70.6001 13.4C69.3001 11.1 66.7001 11 64.9001 11.7C63.9001 12 63.3001 12.6 63.2001 13.8C63.2001 14.9 63.7001 15.6 64.7001 16.1C65.6001 16.5 66.5001 16.6 67.5001 16.8C68.3001 16.9 69.1001 17.1 69.8001 17.4C71.8001 18.2 72.9001 19.9 72.9001 21.9C72.8001 24 71.7001 25.5 69.7001 26.3C68.7001 26.5 67.8001 26.7 66.8001 26.7Z" fill="white"/>
<path d="M117 15.5C117.4 15 117.9 15 118.5 15C118.8 15 119 14.9 118.9 14.6C118.9 13.8 118.9 12.9 118.9 12.1C118.9 11.3 119.3 10.9 120 10.9C120.7 10.9 121.1 11.4 121.1 12.2C121.1 13 121.1 13.9 121.1 14.7C121.1 15 121.2 15.1 121.5 15.1C122 15.1 122.6 15.1 123.1 15.1C123.7 15.2 123.9 15.5 124 16C124 16.5 123.7 16.9 123.2 16.9C122.7 17 122.1 16.9 121.6 16.9C121.3 16.9 121.2 17 121.2 17.3C121.2 18.9 121.2 20.6 121.2 22.2C121.2 22.7 121.3 23.2 121.7 23.7C122.2 24.3 122.8 24.3 123.5 24.3C124.4 24.2 124.8 25.2 124.5 25.9C124.3 26.3 123.9 26.4 123.5 26.5C121.3 26.8 119.4 25.2 119.1 23C119.1 22.7 119 22.3 119 22C119 20.5 119 19.1 119 17.6C119 16.9 119 16.9 118.3 16.9C117.7 16.9 117.2 16.8 116.9 16.1C116.6 16.6 116.2 16.6 115.7 16.5C114.9 16.3 114 16.3 113.1 16.5C111.6 16.8 110.8 17.8 110.8 19.3C110.8 21.3 110.8 23.2 110.8 25.2C110.8 26 110.5 26.4 109.7 26.4C108.9 26.4 108.6 26 108.6 25.2C108.6 22 108.6 18.9 108.6 15.7C108.6 14.8 109.2 14.4 110 14.5C110.5 14.6 110.7 14.9 110.8 15.4C110.8 15.5 110.7 15.7 110.9 15.9C111.7 15.1 112.7 14.5 113.9 14.5C115.1 14.4 116.2 14.4 117 15.5Z" fill="white"/>
<path d="M104 24.7C103.7 25 103.5 25.2 103.3 25.4C99.9998 28.1 95.2998 26.3 94.3998 22.1C93.6998 18.9 95.2998 16 98.1998 14.9C102.1 13.5 106.1 16.2 106.2 20.3C106.3 22 106.2 23.7 106.2 25.4C106.2 26.1 105.7 26.6 105.1 26.5C104.4 26.5 104 26.1 104 25.3C104 25.1 104 25 104 24.7ZM104 20.6C104 20.5 104 20.4 104 20.4C103.9 18.1 102.3 16.4 99.9998 16.5C98.2998 16.6 97.0998 17.5 96.5998 19.1C95.9998 20.8 96.2998 22.3 97.5998 23.6C98.7998 24.7 100.2 25 101.7 24.3C103.3 23.6 104 22.3 104 20.6Z" fill="white"/>
<path d="M161.3 19.4C162.5 18.3 163.6 17.3 164.7 16.4C165.3 15.9 165.9 15.3 166.5 14.8C167 14.4 167.5 14.4 167.9 14.8C168.3 15.3 168.3 15.8 167.8 16.3C166.6 17.4 165.4 18.4 164.2 19.5C163.9 19.7 163.9 19.9 164.1 20.2C165.4 21.8 166.7 23.3 168 24.9C168.3 25.3 168.4 25.8 168.1 26.2C167.8 26.6 167.4 26.8 166.9 26.7C166.6 26.6 166.4 26.5 166.3 26.2C165.1 24.7 163.8 23.1 162.6 21.6C162.4 21.3 162.3 21.2 161.9 21.5C161.4 21.9 161.1 22.4 161.2 23.1C161.3 23.9 161.2 24.7 161.2 25.4C161.2 26.1 160.8 26.5 160.2 26.5C159.6 26.5 159.1 26.1 159.1 25.5C159.1 25.4 159.1 25.2 159.1 25.1C159.1 20.4 159.1 15.8 159.1 11.1C159.1 10.9 159.1 10.7 159.1 10.5C159.2 9.89998 159.6 9.59998 160.2 9.69998C160.8 9.69998 161.2 10.1 161.2 10.7C161.2 11.4 161.2 12.1 161.2 12.8C161.3 14.8 161.3 17 161.3 19.4Z" fill="white"/>
<path d="M147.5 15.8999C149 14.5999 150.7 14.2999 152.5 14.6999C154.6 15.1999 156.1 16.7999 156.3 18.8999C156.5 21.0999 156.4 23.2999 156.4 25.4999C156.4 26.0999 155.9 26.4999 155.3 26.4999C154.7 26.4999 154.2 26.0999 154.2 25.3999C154.2 24.8999 154.2 24.2999 154.2 23.7999C154.2 22.4999 154.2 21.1999 154.2 19.8999C154.2 18.5999 153.8 17.4999 152.6 16.8999C151.3 16.2999 150 16.2999 148.8 17.0999C148 17.5999 147.6 18.3999 147.6 19.3999C147.6 21.2999 147.6 23.2999 147.6 25.1999C147.6 25.9999 147.2 26.3999 146.5 26.4999C145.8 26.4999 145.3 26.0999 145.3 25.2999C145.3 22.1999 145.3 19.0999 145.3 15.8999C145.3 15.0999 145.7 14.5999 146.4 14.5999C147 14.5999 147.4 14.9999 147.5 15.8999Z" fill="white"/>
<path d="M126.5 17.9C126.5 15.6 126.5 13.2 126.5 10.9C126.5 10.5 126.5 10.2 126.8 9.9C127.1 9.5 127.6 9.4 128 9.6C128.5 9.8 128.7 10.1 128.7 10.6C128.7 11.8 128.7 12.9 128.7 14.1C128.7 17.3 128.7 20.5 128.7 23.7C128.7 24.1 128.8 24.2 129.2 24.2C131.6 24.2 134 24.2 136.4 24.2C137.2 24.2 137.7 24.6 137.7 25.3C137.7 26 137.2 26.4 136.4 26.4C133.5 26.4 130.7 26.4 127.8 26.4C126.9 26.4 126.5 26 126.5 25.1C126.5 22.7 126.5 20.3 126.5 17.9Z" fill="white"/>
<path d="M139.7 20.5C139.7 18.9 139.7 17.4 139.7 15.8C139.7 15.1 140.1 14.6 140.8 14.6C141.5 14.6 141.9 15 141.9 15.8C141.9 19 141.9 22.1 141.9 25.3C141.9 26 141.5 26.5 140.8 26.5C140.1 26.5 139.7 26 139.7 25.3C139.7 23.7 139.7 22.1 139.7 20.5Z" fill="white"/>
<path d="M19 36.1C13.9 36.1 9.2 34.1 5.6 30.5C2 26.9 0 22.1 0 17.1C0 14.4 2.2 12.2 4.9 12.2C7.6 12.2 9.8 14.4 9.8 17.1C9.8 22.2 13.9 26.2999 19 26.2999C24.1 26.2999 28.2 22.2 28.2 17.1C28.2 14.4 30.4 12.2 33.1 12.2C35.8 12.2 38 14.4 38 17.1C38 27.5 29.5 36.1 19 36.1ZM4.9 13.7C3 13.7 1.5 15.2 1.5 17.1C1.5 21.8 3.3 26.1 6.6 29.5C9.9 32.7999 14.3 34.6 19 34.6C28.6 34.6 36.5 26.8 36.5 17.1C36.5 15.2 35 13.7 33.1 13.7C31.2 13.7 29.7 15.2 29.7 17.1C29.7 23 24.9 27.7999 19 27.7999C13.1 27.7999 8.3 23 8.3 17.1C8.3 15.2 6.8 13.7 4.9 13.7Z" fill="white"/>
<path d="M15 18.2C15 8.1 23.2 0 33.2 0C43.3 0 51.4 8.2 51.4 18.2C51.4 20.5 49.6 22.3 47.3 22.3C45 22.3 43.2 20.5 43.2 18.2C43.2 12.7 38.7 8.2 33.2 8.2C27.7 8.2 23.2 12.7 23.2 18.2C23.2 20.5 21.4 22.3 19.1 22.3C16.8 22.3 15 20.5 15 18.2Z" fill="url(#paint0_linear_4676_8213)"/>
<path d="M140.8 12.8C141.628 12.8 142.3 12.1285 142.3 11.3C142.3 10.4716 141.628 9.80005 140.8 9.80005C139.971 9.80005 139.3 10.4716 139.3 11.3C139.3 12.1285 139.971 12.8 140.8 12.8Z" fill="url(#paint1_linear_4676_8213)"/>
<defs>
<linearGradient id="paint0_linear_4676_8213" x1="15.0119" y1="11.1217" x2="51.5008" y2="11.1217" gradientUnits="userSpaceOnUse">
<stop stop-color="#E88B2A"/>
<stop offset="0.7318" stop-color="#E26730"/>
<stop offset="1" stop-color="#DF5832"/>
</linearGradient>
<linearGradient id="paint1_linear_4676_8213" x1="139.324" y1="11.2552" x2="142.237" y2="11.2552" gradientUnits="userSpaceOnUse">
<stop stop-color="#E88B2A"/>
<stop offset="0.7318" stop-color="#E26730"/>
<stop offset="1" stop-color="#DF5832"/>
</linearGradient>
</defs>
</svg>
