<svg width="391" height="381" viewBox="0 0 391 381" fill="none" xmlns="http://www.w3.org/2000/svg">
<path d="M437.617 26.8981C464.052 59.0108 474.785 102.582 468.912 150.407C463.039 198.233 440.695 244.37 406.622 279.312C388.222 298.18 361.826 299.702 347.83 282.701C333.835 265.7 337.424 236.473 355.824 217.605C390.579 181.964 397.268 127.496 370.832 95.3835C344.397 63.2708 295.204 66.1067 260.449 101.747C242.049 120.615 215.653 122.137 201.657 105.136C187.662 88.1355 191.251 58.9086 209.651 40.0402C280.524 -32.6382 383.191 -39.2164 437.617 26.8981ZM358.053 272.219C367.901 284.182 385.898 283.145 398.846 269.867C430.876 237.022 450.849 195.638 456.914 151.099C462.297 107.259 451.757 66.9746 427.395 37.3805C377.634 -23.067 283.529 -18.3015 217.426 49.4851C204.478 62.7629 202.031 82.6903 211.88 94.6539C221.728 106.617 239.725 105.58 252.673 92.3021C292.881 51.0711 350.472 47.751 381.054 84.9011C411.636 122.051 403.806 185.819 363.599 227.05C350.651 240.328 348.204 260.255 358.053 272.219Z" fill="white" fill-opacity="0.05"/>
<path d="M332.39 186.192C269.156 253.783 175.998 253.202 124.235 186.387C71.9543 118.904 81.3643 9.90804 143.972 -57.0141C158.372 -72.4062 178.958 -72.4256 190.864 -57.0582C202.769 -41.6908 200.817 -17.6181 186.418 -2.226C151.983 34.5812 147.104 94.7628 175.573 131.511C204.043 168.259 255.51 168.211 289.944 131.404C304.344 116.011 324.93 115.992 336.836 131.359C348.741 146.727 346.789 170.8 332.39 186.192Z" fill="white" fill-opacity="0.05"/>
</svg>
