<svg width="1443" height="820" viewBox="0 0 1443 820" fill="none" xmlns="http://www.w3.org/2000/svg">
<g clip-path="url(#clip0_5396_1546)">
<path d="M-51 382.727V67C-51 29.9969 -21.0031 0 16 0H1488C1525 0 1555 29.9968 1555 66.9999V579.043C1555 613.59 1528.73 642.473 1494.34 645.743L324.326 756.979C304.221 758.89 284.327 751.631 270.177 737.221L-31.8069 429.669C-44.108 417.141 -51 400.285 -51 382.727Z" fill="#1E2334"/>
<path d="M24.5515 352.152C-39.0493 334.42 -90.6462 293.195 -122.913 235.887C-155.179 178.58 -163.283 111.906 -145.744 49.6965C-136.273 16.1037 -101.12 -3.61907 -67.449 5.76863C-33.7779 15.1563 -14.0595 50.1775 -23.5306 83.7704C-41.4206 147.224 -4.67256 212.49 58.9283 230.223C122.529 247.955 188.041 211.199 205.931 147.746C215.402 114.153 250.555 94.4303 284.226 103.818C317.897 113.206 337.616 148.227 328.145 181.82C291.663 311.215 155.494 388.66 24.5515 352.152ZM-72.7107 24.4313C-96.4051 17.8252 -120.373 31.2725 -127.038 54.9119C-143.525 113.388 -136.161 173.147 -106.934 226.923C-77.3565 279.454 -28.7993 317.148 29.8133 333.49C149.533 366.868 275.413 297.29 309.439 176.604C316.103 152.965 302.659 129.087 278.965 122.481C255.27 115.875 231.302 129.322 224.637 152.961C203.941 226.368 127.244 269.399 53.6665 248.885C-19.9109 228.372 -62.933 151.962 -42.2368 78.555C-35.5719 54.9156 -49.0163 31.0375 -72.7107 24.4313Z" fill="white" fill-opacity="0.03"/>
<path d="M37.4353 115.915C72.9102 -9.80853 203.599 -82.1546 328.28 -47.4206C454.208 -12.3393 526.399 117.868 491.275 242.347C483.197 270.977 454.432 287.131 425.755 279.142C397.079 271.154 380.958 242.495 389.037 213.865C408.355 145.402 368.054 73.7558 299.479 54.6521C230.904 35.5484 158.992 75.9337 139.674 144.397C131.596 173.027 102.831 189.181 74.1539 181.192C45.4772 173.204 29.3568 144.545 37.4353 115.915Z" fill="white" fill-opacity="0.03"/>
</g>
<defs>
<clipPath id="clip0_5396_1546">
<rect width="1443" height="820" fill="white"/>
</clipPath>
</defs>
</svg>
