<svg width="20" height="20" viewBox="0 0 20 20" fill="none" xmlns="http://www.w3.org/2000/svg">
<path d="M13.3332 18.9578H6.66653C2.81653 18.9578 2.09986 17.1661 1.91653 15.4245L1.29153 8.74948C1.19986 7.87448 1.17486 6.58281 2.04153 5.61615C2.79153 4.78281 4.0332 4.38281 5.8332 4.38281H14.1665C15.9749 4.38281 17.2165 4.79115 17.9582 5.61615C18.8249 6.58281 18.7999 7.87448 18.7082 8.75781L18.0832 15.4161C17.8999 17.1661 17.1832 18.9578 13.3332 18.9578ZM5.8332 5.62448C4.42486 5.62448 3.4582 5.89948 2.96653 6.44948C2.5582 6.89948 2.42486 7.59115 2.5332 8.62448L3.1582 15.2995C3.29986 16.6161 3.6582 17.7078 6.66653 17.7078H13.3332C16.3332 17.7078 16.6999 16.6161 16.8415 15.2911L17.4665 8.63281C17.5749 7.59115 17.4415 6.89948 17.0332 6.44948C16.5415 5.89948 15.5749 5.62448 14.1665 5.62448H5.8332Z" fill="#E88B2A"/>
<path d="M13.3337 5.62435C12.992 5.62435 12.7087 5.34102 12.7087 4.99935V4.33268C12.7087 2.84935 12.7087 2.29102 10.667 2.29102H9.33366C7.29199 2.29102 7.29199 2.84935 7.29199 4.33268V4.99935C7.29199 5.34102 7.00866 5.62435 6.66699 5.62435C6.32533 5.62435 6.04199 5.34102 6.04199 4.99935V4.33268C6.04199 2.86602 6.04199 1.04102 9.33366 1.04102H10.667C13.9587 1.04102 13.9587 2.86602 13.9587 4.33268V4.99935C13.9587 5.34102 13.6753 5.62435 13.3337 5.62435Z" fill="#E88B2A"/>
<path d="M9.99967 13.9583C7.70801 13.9583 7.70801 12.5417 7.70801 11.6917V10.8333C7.70801 9.65833 7.99134 9.375 9.16634 9.375H10.833C12.008 9.375 12.2913 9.65833 12.2913 10.8333V11.6667C12.2913 12.5333 12.2913 13.9583 9.99967 13.9583ZM8.95801 10.625C8.95801 10.6917 8.95801 10.7667 8.95801 10.8333V11.6917C8.95801 12.55 8.95801 12.7083 9.99967 12.7083C11.0413 12.7083 11.0413 12.575 11.0413 11.6833V10.8333C11.0413 10.7667 11.0413 10.6917 11.0413 10.625C10.9747 10.625 10.8997 10.625 10.833 10.625H9.16634C9.09967 10.625 9.02467 10.625 8.95801 10.625Z" fill="#E88B2A"/>
<path d="M11.6663 12.3089C11.3579 12.3089 11.0829 12.0755 11.0496 11.7589C11.0079 11.4172 11.2496 11.1005 11.5913 11.0589C13.7913 10.7839 15.8996 9.95053 17.6746 8.65886C17.9496 8.45053 18.3413 8.51719 18.5496 8.80053C18.7496 9.07553 18.6913 9.46719 18.4079 9.67552C16.4579 11.0922 14.1579 12.0005 11.7413 12.3089C11.7163 12.3089 11.6913 12.3089 11.6663 12.3089Z" fill="#E88B2A"/>
<path d="M8.33296 12.3174C8.30796 12.3174 8.28296 12.3174 8.25796 12.3174C5.97463 12.0591 3.74963 11.2257 1.82463 9.90907C1.54129 9.7174 1.46629 9.32573 1.65796 9.0424C1.84963 8.75907 2.24129 8.68407 2.52463 8.87573C4.28296 10.0757 6.30796 10.8341 8.39129 11.0757C8.73296 11.1174 8.98296 11.4257 8.94129 11.7674C8.91629 12.0841 8.64963 12.3174 8.33296 12.3174Z" fill="#E88B2A"/>
</svg>
