<svg width="24" height="24" viewBox="0 0 24 24" fill="none" xmlns="http://www.w3.org/2000/svg">
<path fill-rule="evenodd" clip-rule="evenodd" d="M1.87111 16.0771C8.04392 10.6416 15.9561 10.6415 22.1289 16.0771C22.5365 16.4363 22.6147 17.0671 22.3321 17.5449L20.6065 20.4609C20.3232 20.9397 19.7594 21.1287 19.2725 20.9082L16.5879 19.6777C16.2473 19.5233 16.0041 19.193 15.9424 18.8018L15.5 16C13.3357 14.8566 10.6643 14.8566 8.50002 16L8.05764 18.8018C7.99593 19.193 7.75271 19.5233 7.41213 19.6777L4.72756 20.9082C4.24067 21.1287 3.67686 20.9397 3.39358 20.4609L1.66799 17.5449C1.38533 17.0671 1.46355 16.4363 1.87111 16.0771ZM5.29299 6.29297C5.68351 5.90244 6.31653 5.90244 6.70705 6.29297L8.70705 8.29297C9.09758 8.68349 9.09758 9.31651 8.70705 9.70703C8.31653 10.0976 7.68351 10.0976 7.29299 9.70703L5.29299 7.70703C4.90247 7.31651 4.90247 6.68349 5.29299 6.29297ZM17.293 6.29297C17.6835 5.90244 18.3165 5.90244 18.7071 6.29297C19.0976 6.68349 19.0976 7.31651 18.7071 7.70703L16.7071 9.70703C16.3165 10.0976 15.6835 10.0976 15.293 9.70703C14.9025 9.31651 14.9025 8.68349 15.293 8.29297L17.293 6.29297ZM12 3C12.5523 3 13 3.44772 13 4V7C13 7.55228 12.5523 8 12 8C11.4477 8 11 7.55228 11 7V4C11 3.44772 11.4477 3 12 3Z" fill="#E26730"/>
</svg>
