<svg width="28" height="19" viewBox="0 0 28 19" fill="none" xmlns="http://www.w3.org/2000/svg">
<path d="M9.99999 19C7.31578 19 4.8421 17.9473 2.94736 16.0526C1.05263 14.1579 0 11.6315 0 8.99996C0 7.57891 1.15789 6.42102 2.57894 6.42102C3.99999 6.42102 5.15789 7.57891 5.15789 8.99996C5.15789 11.6842 7.31578 13.8421 9.99999 13.8421C12.6842 13.8421 14.8421 11.6842 14.8421 8.99996C14.8421 7.57891 16 6.42102 17.421 6.42102C18.8421 6.42102 20 7.57891 20 8.99996C20 14.4736 15.5263 19 9.99999 19ZM2.57894 7.21049C1.57895 7.21049 0.789473 7.99997 0.789473 8.99996C0.789473 11.4736 1.73684 13.7368 3.47368 15.5263C5.21052 17.2631 7.52631 18.2105 9.99999 18.2105C15.0526 18.2105 19.2105 14.1052 19.2105 8.99996C19.2105 7.99997 18.421 7.21049 17.421 7.21049C16.421 7.21049 15.6316 7.99997 15.6316 8.99996C15.6316 12.1052 13.1052 14.6315 9.99999 14.6315C6.89473 14.6315 4.36841 12.1052 4.36841 8.99996C4.36841 7.99997 3.57894 7.21049 2.57894 7.21049Z" fill="#E8E3E3"/>
<path d="M7.89453 9.57893C7.89453 4.26315 12.2103 0 17.4735 0C22.7892 0 27.0524 4.31578 27.0524 9.57893C27.0524 10.7895 26.105 11.7368 24.8945 11.7368C23.684 11.7368 22.7366 10.7895 22.7366 9.57893C22.7366 6.6842 20.3682 4.31578 17.4735 4.31578C14.5787 4.31578 12.2103 6.6842 12.2103 9.57893C12.2103 10.7895 11.2629 11.7368 10.0524 11.7368C8.8419 11.7368 7.89453 10.7895 7.89453 9.57893Z" fill="url(#paint0_linear_4754_6358)"/>
<defs>
<linearGradient id="paint0_linear_4754_6358" x1="7.90079" y1="5.85352" x2="27.1055" y2="5.85352" gradientUnits="userSpaceOnUse">
<stop stop-color="#E88B2A"/>
<stop offset="0.7318" stop-color="#E26730"/>
<stop offset="1" stop-color="#DF5832"/>
</linearGradient>
</defs>
</svg>
