<svg width="24" height="24" viewBox="0 0 24 24" fill="none" xmlns="http://www.w3.org/2000/svg">
<path fill-rule="evenodd" clip-rule="evenodd" d="M17.3749 11.3747C20.4124 11.3747 22.8749 13.8371 22.8749 16.8747V17.3747C22.8749 18.7554 21.7556 19.8747 20.3749 19.8747C19.6545 19.8747 19.0049 19.5703 18.5487 19.0827C18.1987 19.2692 17.7991 19.3747 17.3749 19.3747C15.9942 19.3747 14.8749 18.2554 14.8749 16.8747C14.8749 15.494 15.9942 14.3747 17.3749 14.3747C18.7556 14.3747 19.8749 15.494 19.8749 16.8747V17.3747C19.8749 17.6508 20.0987 17.8747 20.3749 17.8747C20.651 17.8747 20.8749 17.6508 20.8749 17.3747V16.8747C20.8749 14.9417 19.3079 13.3747 17.3749 13.3747C15.4419 13.3747 13.8749 14.9417 13.8749 16.8747C13.8749 18.8077 15.4419 20.3747 17.3749 20.3747C17.9271 20.3747 18.3749 20.8224 18.3749 21.3747C18.3749 21.927 17.9271 22.3747 17.3749 22.3747C14.3373 22.3747 11.8749 19.9123 11.8749 16.8747C11.8749 13.8371 14.3373 11.3747 17.3749 11.3747ZM9.19225 1.66181C11.148 1.61273 12.6017 1.61273 14.5575 1.66181L14.6317 1.66376C16.1411 1.7016 17.3837 1.73282 18.3846 1.90692C18.7546 1.97131 19.1038 2.05636 19.4335 2.17255C19.5209 2.19313 19.6051 2.22552 19.6835 2.26825C20.1993 2.48206 20.6663 2.78227 21.0897 3.20673C21.8389 3.95799 22.198 4.83326 22.3797 5.8786C22.5504 6.85982 22.576 8.07132 22.6073 9.53681L22.6092 9.612C22.6147 9.86737 22.6183 10.0271 22.621 10.1393C22.6338 10.6907 22.1617 11.1275 21.6102 11.1159C21.0584 11.1042 20.6347 10.6481 20.621 10.0964C20.6184 9.99522 20.6155 9.85639 20.6112 9.654C20.5952 8.90511 20.5806 8.27168 20.5546 7.72528C20.5352 7.31981 20.5256 7.11679 20.3788 7.03583C20.2319 6.95489 20.0513 7.05687 19.6903 7.26142L15.4549 9.66181C14.1554 10.3981 13.056 10.8746 11.8749 10.8747C10.6937 10.8747 9.59435 10.3981 8.29479 9.66181L4.05943 7.26142C3.69855 7.05694 3.51777 6.95497 3.37096 7.03583C3.22412 7.11678 3.21452 7.31976 3.19518 7.72528C3.16912 8.27169 3.15453 8.90511 3.13854 9.654C3.11783 10.6235 3.11783 11.1259 3.13854 12.0954C3.17184 13.6551 3.19705 14.7141 3.33873 15.529C3.47217 16.2965 3.6952 16.7527 4.07604 17.1345C4.4529 17.5123 4.91563 17.7387 5.70885 17.8767C6.54698 18.0224 7.64036 18.0523 9.24303 18.0925C9.54179 18.1 9.73177 18.1059 9.87682 18.111C10.4276 18.1306 10.8748 18.5755 10.8749 19.1267C10.8749 19.6778 10.4277 20.1275 9.87682 20.1081C9.72191 20.1026 9.52023 20.0958 9.19225 20.0876L9.11803 20.0856C7.60867 20.0478 6.36606 20.0166 5.3651 19.8425C4.30295 19.6577 3.41331 19.2979 2.66002 18.5427C1.91079 17.7914 1.55177 16.9161 1.36998 15.8708C1.19937 14.8896 1.17369 13.6781 1.14244 12.2126L1.14049 12.1374C1.11919 11.1397 1.11919 10.6097 1.14049 9.612L1.14244 9.53681C1.17369 8.07129 1.19937 6.85983 1.36998 5.8786C1.55177 4.83326 1.91078 3.95799 2.66002 3.20673C3.41331 2.45152 4.30294 2.09173 5.3651 1.90692C6.36606 1.73282 7.60867 1.70159 9.11803 1.66376L9.19225 1.66181ZM17.3749 16.3747C17.0987 16.3747 16.8749 16.5986 16.8749 16.8747C16.8749 17.1508 17.0987 17.3747 17.3749 17.3747C17.651 17.3747 17.8749 17.1508 17.8749 16.8747C17.8749 16.5986 17.651 16.3747 17.3749 16.3747Z" fill="#E26730"/>
</svg>
