<svg width="20" height="20" viewBox="0 0 20 20" fill="none" xmlns="http://www.w3.org/2000/svg">
<path d="M12.4087 15.1841H5.08365C4.65032 15.1841 4.24198 15.1424 3.87531 15.0591C3.68364 15.0341 3.45032 14.9674 3.20865 14.8758C2.10032 14.4591 0.791992 13.4341 0.791992 10.8841V6.59242C0.791992 3.86742 2.35865 2.30078 5.08365 2.30078H12.4087C14.7087 2.30078 16.192 3.40076 16.592 5.40076C16.667 5.76742 16.7003 6.15908 16.7003 6.59242V10.8841C16.7003 13.6258 15.142 15.1841 12.4087 15.1841ZM5.09197 3.56746C3.04197 3.56746 2.05031 4.5591 2.05031 6.6091V10.9008C2.05031 12.3925 2.57532 13.3091 3.65032 13.7175C3.81699 13.7758 3.97533 13.8174 4.12533 13.8424C4.44199 13.9091 4.7503 13.9424 5.09197 13.9424H12.417C14.467 13.9424 15.4586 12.9508 15.4586 10.9008V6.6091C15.4586 6.2591 15.4337 5.95076 15.3753 5.66743C15.092 4.25076 14.1253 3.56746 12.417 3.56746H5.09197Z" fill="#E88B2A"/>
<path d="M14.9083 17.6829H7.58325C6.87491 17.6829 6.24157 17.583 5.6999 17.3746C4.4749 16.9163 3.6749 15.9496 3.3999 14.5663C3.35823 14.358 3.42491 14.1413 3.57492 13.9996C3.72491 13.8496 3.94158 13.7913 4.14992 13.8413C4.42492 13.8996 4.73325 13.9329 5.08325 13.9329H12.4083C14.4583 13.9329 15.4499 12.9413 15.4499 10.8913V6.59963C15.4499 6.24963 15.4249 5.94129 15.3666 5.65795C15.3249 5.44962 15.3916 5.24129 15.5333 5.09129C15.6833 4.94129 15.8916 4.87462 16.0999 4.92462C18.0999 5.33295 19.1999 6.81629 19.1999 9.09963V13.3913C19.1999 16.1246 17.6416 17.6829 14.9083 17.6829ZM4.93325 15.1829C5.19992 15.6663 5.59991 16.008 6.14991 16.208C6.54991 16.358 7.03323 16.4329 7.59156 16.4329H14.9166C16.9666 16.4329 17.9582 15.4413 17.9582 13.3913V9.09963C17.9582 7.78296 17.5499 6.90797 16.7082 6.44963C16.7082 6.49963 16.7082 6.54963 16.7082 6.59963V10.8913C16.7082 13.6163 15.1416 15.1829 12.4166 15.1829H5.09156C5.03323 15.1829 4.98325 15.1829 4.93325 15.1829Z" fill="#E88B2A"/>
<path d="M8.74982 11.5758C7.19148 11.5758 5.9248 10.3091 5.9248 8.75079C5.9248 7.19246 7.19148 5.92578 8.74982 5.92578C10.3082 5.92578 11.5748 7.19246 11.5748 8.75079C11.5748 10.3091 10.3082 11.5758 8.74982 11.5758ZM8.74982 7.17578C7.88315 7.17578 7.1748 7.88413 7.1748 8.75079C7.1748 9.61746 7.88315 10.3258 8.74982 10.3258C9.61648 10.3258 10.3248 9.61746 10.3248 8.75079C10.3248 7.88413 9.61648 7.17578 8.74982 7.17578Z" fill="#E88B2A"/>
<path d="M3.9834 11.2077C3.64173 11.2077 3.3584 10.9244 3.3584 10.5827V6.91602C3.3584 6.57435 3.64173 6.29102 3.9834 6.29102C4.32507 6.29102 4.6084 6.57435 4.6084 6.91602V10.5827C4.6084 10.9244 4.3334 11.2077 3.9834 11.2077Z" fill="#E88B2A"/>
<path d="M13.5083 11.2077C13.1666 11.2077 12.8833 10.9244 12.8833 10.5827V6.91602C12.8833 6.57435 13.1666 6.29102 13.5083 6.29102C13.85 6.29102 14.1333 6.57435 14.1333 6.91602V10.5827C14.1333 10.9244 13.8583 11.2077 13.5083 11.2077Z" fill="#E88B2A"/>
</svg>
