<svg width="28" height="28" viewBox="0 0 28 28" fill="none" xmlns="http://www.w3.org/2000/svg">
<path d="M25.3217 16.0082C25.3006 16.1226 25.2569 16.2316 25.1931 16.329C25.1293 16.4263 25.0468 16.5099 24.9504 16.5749C24.8539 16.64 24.7454 16.6851 24.6313 16.7077C24.5172 16.7304 24.3997 16.73 24.2857 16.7067C24.1717 16.6833 24.0636 16.6375 23.9675 16.5719C23.8715 16.5062 23.7895 16.4221 23.7263 16.3244C23.6632 16.2267 23.6201 16.1173 23.5997 16.0028C23.5793 15.8883 23.582 15.7708 23.6075 15.6573C24.7669 9.98467 21.0972 4.4258 15.4245 3.26555C15.3119 3.2427 15.2049 3.19784 15.1096 3.13354C15.0143 3.06923 14.9327 2.98675 14.8693 2.89083C14.806 2.7949 14.7623 2.68742 14.7406 2.57454C14.7189 2.46166 14.7197 2.34561 14.7429 2.23305C14.7657 2.12034 14.8105 2.01324 14.8747 1.91791C14.939 1.82258 15.0215 1.74089 15.1174 1.67754C15.2134 1.6142 15.3209 1.57044 15.4338 1.5488C15.5468 1.52716 15.6628 1.52805 15.7754 1.55142C22.3922 2.90505 26.6753 9.39055 25.3217 16.0082ZM14.077 10.4152C14.5316 10.4842 14.968 10.6427 15.3611 10.8813C15.7541 11.1199 16.096 11.4341 16.3669 11.8055C16.919 12.5598 17.1448 13.4838 17.0022 14.4078C16.9719 14.6347 17.0318 14.8643 17.1689 15.0476C17.306 15.2308 17.5094 15.3531 17.7356 15.3881C17.9618 15.4231 18.1926 15.3681 18.3788 15.2349C18.5649 15.1017 18.6914 14.9009 18.7312 14.6755C18.8384 13.9942 18.8095 13.2984 18.6459 12.6284C18.4823 11.9583 18.1874 11.3274 17.7783 10.7722C17.3719 10.2148 16.859 9.74349 16.2694 9.38545C15.6798 9.02742 15.025 8.78975 14.343 8.68617C14.1183 8.66068 13.8924 8.72314 13.7126 8.86047C13.5328 8.9978 13.4132 9.19935 13.3787 9.42292C13.3442 9.64649 13.3976 9.87473 13.5276 10.0599C13.6576 10.245 13.8542 10.3726 14.0762 10.416L14.077 10.4152ZM15.0737 4.98142C14.8484 4.93986 14.6157 4.98832 14.4258 5.11641C14.2358 5.24449 14.1037 5.44197 14.0577 5.66643C14.0118 5.89089 14.0557 6.12441 14.18 6.31684C14.3044 6.50926 14.4993 6.64524 14.7228 6.69555C18.5037 7.46905 20.951 11.1755 20.1775 14.9564C20.152 15.0699 20.1493 15.1874 20.1697 15.3019C20.1901 15.4165 20.2332 15.5258 20.2963 15.6235C20.3595 15.7212 20.4415 15.8053 20.5375 15.871C20.6336 15.9366 20.7417 15.9825 20.8557 16.0058C20.9697 16.0291 21.0872 16.0295 21.2013 16.0069C21.3154 15.9842 21.4239 15.9391 21.5204 15.8741C21.6168 15.809 21.6993 15.7254 21.7631 15.6281C21.8269 15.5308 21.8706 15.4217 21.8917 15.3073C22.8585 10.5805 19.8004 5.9483 15.0737 4.98142ZM17.8894 18.69C17.5245 18.0907 16.9488 17.6698 16.2672 17.5044C15.5855 17.339 14.8803 17.4484 14.2818 17.8124L13.1557 18.4975C12.9909 18.5996 12.7967 18.6436 12.6041 18.6225C12.4114 18.6014 12.2313 18.5165 12.0925 18.3812C10.2967 16.6109 8.96633 14.4242 8.2198 12.0155C8.16628 11.8306 8.17506 11.6332 8.24478 11.4537C8.31451 11.2743 8.44132 11.1227 8.60567 11.0224L9.73092 10.3373C10.325 9.97468 10.7511 9.39131 10.9158 8.71505C11.0805 8.03879 10.9703 7.32483 10.6094 6.72967L9.24442 4.48792C9.06595 4.19276 8.83065 3.93598 8.55217 3.73245C8.2737 3.52893 7.95759 3.38272 7.62217 3.3023C7.28727 3.22032 6.93947 3.20534 6.59875 3.25819C6.25804 3.31105 5.93112 3.43071 5.6368 3.6103L3.8903 4.67342C3.36541 4.99061 2.93356 5.44075 2.63841 5.97834C2.34327 6.51594 2.19528 7.12192 2.20942 7.73505C2.28117 10.3128 2.8718 14.2162 5.27717 18.1694C7.19593 21.316 9.90289 23.9071 13.1303 25.6865C13.6418 25.9675 14.2162 26.1144 14.7998 26.1135C15.4342 26.1135 16.0685 25.942 16.6294 25.6008L18.3733 24.5394C18.9673 24.177 19.3934 23.5938 19.5581 22.9176C19.7228 22.2415 19.6126 21.5277 19.2518 20.9327L17.8868 18.69H17.8894Z" fill="#E26730"/>
</svg>
