<svg width="32" height="32" viewBox="0 0 32 32" fill="none" xmlns="http://www.w3.org/2000/svg">
<g clip-path="url(#clip0_5307_336)">
<path d="M29.7937 17.6047C29.7671 17.6006 29.7417 17.5909 29.7192 17.5761C29.6967 17.5614 29.6776 17.542 29.6632 17.5192C29.3613 17.0455 28.9922 16.618 28.5677 16.25C28.5473 16.2325 28.5308 16.2108 28.5195 16.1864C28.5082 16.162 28.5023 16.1354 28.5022 16.1085L28.4987 14.6299C28.4985 14.5593 28.4764 14.4905 28.4355 14.433C28.3945 14.3755 28.3367 14.3321 28.27 14.3089L25.9817 13.5122C25.9151 13.489 25.8428 13.487 25.775 13.5066C25.7072 13.5263 25.6472 13.5665 25.6032 13.6217L24.6817 14.7788C24.6649 14.7998 24.6437 14.817 24.6196 14.8291C24.5955 14.8413 24.5691 14.8481 24.5422 14.8491C23.9809 14.8728 23.4261 14.9783 22.8953 15.1623C22.8699 15.1712 22.8429 15.1746 22.816 15.1722C22.7892 15.1698 22.7632 15.1616 22.7398 15.1483L21.4582 14.4125C21.397 14.3773 21.3264 14.3621 21.2561 14.3688C21.1859 14.3755 21.1194 14.4039 21.066 14.45L19.2318 16.0334C19.1784 16.0795 19.1406 16.1411 19.1237 16.2096C19.1068 16.2781 19.1115 16.3502 19.1374 16.4159L19.6782 17.7911C19.6981 17.8419 19.6945 17.8986 19.6693 17.947C19.4097 18.4452 19.2243 18.9786 19.119 19.5304C19.114 19.5569 19.1034 19.5821 19.0879 19.6041C19.0724 19.6262 19.0523 19.6446 19.029 19.6582L17.7497 20.4009C17.6887 20.4364 17.6402 20.4899 17.6108 20.5541C17.5815 20.6183 17.5729 20.6901 17.5861 20.7594L18.0402 23.1395C18.0535 23.2088 18.0879 23.2724 18.1388 23.3213C18.1897 23.3702 18.2545 23.4021 18.3244 23.4125L19.7866 23.6319C19.8132 23.636 19.8386 23.6457 19.8611 23.6605C19.8837 23.6752 19.9027 23.6946 19.9171 23.7174C20.2191 24.1911 20.5881 24.6186 21.0127 24.9865C21.0331 25.0041 21.0495 25.0258 21.0608 25.0502C21.0721 25.0746 21.078 25.1012 21.0782 25.1281L21.0817 26.6067C21.0818 26.6773 21.1039 26.7461 21.1449 26.8036C21.1858 26.8611 21.2436 26.9045 21.3103 26.9277L23.5985 27.7244C23.6652 27.7476 23.7374 27.7496 23.8053 27.7299C23.8731 27.7103 23.9331 27.6701 23.9771 27.6149L24.8986 26.4578C24.9155 26.4368 24.9367 26.4196 24.9607 26.4074C24.9848 26.3953 25.0112 26.3885 25.0382 26.3875C25.5994 26.3638 26.1543 26.2583 26.685 26.0743C26.7105 26.0654 26.7375 26.062 26.7643 26.0644C26.7911 26.0668 26.8171 26.075 26.8405 26.0883L28.122 26.8241C28.1833 26.8593 28.2539 26.8745 28.3242 26.8678C28.3944 26.8611 28.4609 26.8327 28.5143 26.7865L30.3485 25.2032C30.4019 25.1571 30.4397 25.0955 30.4566 25.027C30.4735 24.9585 30.4687 24.8864 30.4429 24.8207L29.9021 23.4455C29.8923 23.4204 29.8881 23.3935 29.8896 23.3666C29.8911 23.3397 29.8984 23.3134 29.911 23.2896C30.1706 22.7914 30.356 22.258 30.4613 21.7062C30.4663 21.6797 30.4768 21.6545 30.4924 21.6325C30.5079 21.6104 30.528 21.592 30.5512 21.5784L31.8305 20.8357C31.8916 20.8002 31.9401 20.7467 31.9694 20.6825C31.9988 20.6183 32.0074 20.5465 31.9942 20.4772L31.54 18.0971C31.5268 18.0277 31.4924 17.9642 31.4415 17.9153C31.3906 17.8663 31.3257 17.8344 31.2559 17.824L29.7937 17.6047ZM26.6732 22.7997C25.4685 23.8397 23.6488 23.7061 22.6088 22.5014C21.5688 21.2967 21.7024 19.477 22.9071 18.437C24.1119 17.397 25.9315 17.5306 26.9715 18.7353C28.0115 19.9401 27.878 21.7597 26.6732 22.7997Z" fill="#6FD7A3"/>
<path d="M31.9942 20.4772L31.5401 18.0972C31.5268 18.0278 31.4924 17.9643 31.4415 17.9154C31.3906 17.8665 31.3257 17.8346 31.2559 17.8241L29.7936 17.6047C29.767 17.6007 29.7416 17.5909 29.7191 17.5762C29.6966 17.5615 29.6775 17.542 29.6631 17.5193C29.3612 17.0455 28.9921 16.618 28.5676 16.2501C28.5471 16.2326 28.5307 16.2109 28.5194 16.1864C28.5081 16.162 28.5022 16.1355 28.5021 16.1085L28.4986 14.6299C28.4984 14.5593 28.4763 14.4905 28.4353 14.433C28.3944 14.3756 28.3366 14.3322 28.2699 14.309L25.9817 13.5122C25.915 13.489 25.8428 13.4871 25.775 13.5067C25.7072 13.5263 25.6471 13.5665 25.6032 13.6217L24.9092 14.4932C27.0437 15.7006 28.4847 17.9911 28.4847 20.6185C28.4847 22.9795 27.3211 25.0687 25.5362 26.3442C25.9274 26.2939 26.3124 26.2035 26.6851 26.0745C26.7105 26.0656 26.7376 26.0622 26.7644 26.0646C26.7912 26.0671 26.8172 26.0752 26.8406 26.0885L28.1221 26.8244C28.1833 26.8595 28.254 26.8748 28.3242 26.8681C28.3945 26.8613 28.4609 26.8329 28.5144 26.7868L30.3486 25.2035C30.402 25.1574 30.4398 25.0958 30.4567 25.0272C30.4736 24.9587 30.4688 24.8866 30.443 24.8209L29.9022 23.4457C29.8924 23.4206 29.8881 23.3937 29.8897 23.3668C29.8912 23.3399 29.8985 23.3136 29.9111 23.2898C30.1706 22.7916 30.356 22.2582 30.4614 21.7064C30.4663 21.6799 30.4769 21.6547 30.4924 21.6327C30.508 21.6106 30.528 21.5922 30.5513 21.5785L31.8306 20.8359C31.8917 20.8004 31.9402 20.7468 31.9695 20.6826C31.9988 20.6183 32.0074 20.5466 31.9942 20.4772Z" fill="#3EC3A4"/>
<path d="M17.9842 29.206H15.8042C14.9081 29.206 14.1816 28.4795 14.1816 27.5834V25.4257H19.6068V27.5834C19.6068 28.4795 18.8803 29.206 17.9842 29.206Z" fill="#F9F7F8"/>
<path d="M17.0313 25.4257V27.5834C17.0313 28.4125 16.4092 29.0959 15.6064 29.1935C15.6721 29.2017 15.7381 29.2058 15.8042 29.206H17.9842C18.8803 29.206 19.6068 28.4795 19.6068 27.5834V25.4257H17.0313Z" fill="#DEDBEE"/>
<path d="M25.6215 12.6823C25.6215 7.84155 21.6803 3.92124 16.8316 3.9553C12.0246 3.98905 8.12336 7.95692 8.16736 12.7639C8.18755 14.9709 9.02717 16.982 10.3964 18.5081C10.8212 18.9815 11.0663 19.5942 11.0455 20.2299C11.0325 20.6269 11.0267 19.6637 11.0252 20.3074C11.0202 22.356 12.6813 24.0188 14.7299 24.0188L16.8208 24.7566L19.0405 24.0187C21.0871 24.0187 22.746 22.3591 22.7453 20.3126C22.745 19.4335 22.7447 20.2927 22.7442 20.2749C22.7279 19.6245 22.9552 18.9945 23.3899 18.5104C24.7773 16.9652 25.6215 14.9224 25.6215 12.6823Z" fill="#FFD15B"/>
<path d="M25.6215 12.6823C25.6215 7.84155 21.6803 3.92124 16.8316 3.9553C16.4175 3.95824 16.0101 3.99099 15.6113 4.05036C19.8183 4.67492 23.0461 8.30161 23.0461 12.6824C23.0461 14.9225 22.2019 16.9653 20.8145 18.5105C20.4133 18.9574 20.1891 19.5289 20.1699 20.1257L20.17 20.3127C20.1706 22.3592 18.5118 24.0188 16.4652 24.0188H19.0406C21.0872 24.0188 22.7461 22.3592 22.7454 20.3127L22.7453 20.1257C22.7646 19.5288 22.9887 18.9574 23.39 18.5105C24.7773 16.9652 25.6215 14.9224 25.6215 12.6823ZM22.7443 20.2748C22.7432 20.23 22.7434 20.1852 22.7446 20.1405C22.7445 20.2158 22.7444 20.2799 22.7443 20.2748Z" fill="#FFC344"/>
<path d="M20.1687 20.2748C20.1688 20.2798 20.1689 20.2158 20.1691 20.1405C20.1677 20.1853 20.1676 20.2301 20.1687 20.2748Z" fill="#FFC344"/>
<path d="M20.1285 26.7134H13.6608C12.9167 26.7134 12.3135 26.1102 12.3135 25.3661C12.3135 24.622 12.9167 24.0188 13.6608 24.0188H20.1285C20.8727 24.0188 21.4759 24.622 21.4759 25.3661C21.4759 26.1102 20.8727 26.7134 20.1285 26.7134Z" fill="#7A6D79"/>
<path d="M20.1282 24.0187H17.5527C18.2969 24.0187 18.9 24.622 18.9 25.3661C18.9 26.1102 18.2968 26.7134 17.5527 26.7134H20.1282C20.8723 26.7134 21.4755 26.1102 21.4755 25.3661C21.4755 24.6219 20.8723 24.0187 20.1282 24.0187Z" fill="#685E68"/>
<path d="M15.5747 2.91263C15.5747 1.304 14.2707 0 12.662 0C11.1377 0 9.88772 1.17113 9.76085 2.66263C9.54879 2.6123 9.33161 2.58681 9.11366 2.58669C7.56566 2.58669 6.31079 3.84156 6.31079 5.38956C6.31079 5.49338 6.31685 5.59575 6.32785 5.69663C6.09806 5.63732 5.86167 5.60739 5.62435 5.60756C4.07635 5.60756 2.82147 6.86244 2.82147 8.41044C2.82128 8.75739 2.88572 9.10133 3.01147 9.42469C2.19979 9.53737 1.42397 9.93369 0.846974 10.6033C-0.412339 12.0647 -0.248526 14.2704 1.21285 15.5297C1.30981 15.613 1.41123 15.691 1.51666 15.7634C1.27372 15.9321 1.05315 16.1309 0.860224 16.3551C-0.399151 17.8165 -0.235339 20.0221 1.2261 21.2814C1.79066 21.7693 2.49719 22.0626 3.24129 22.1181C3.11839 22.4382 3.05546 22.7783 3.05566 23.1212C3.05566 24.6692 4.31054 25.9241 5.85854 25.9241C5.96235 25.9241 6.06472 25.918 6.1656 25.907C6.10629 26.1368 6.07636 26.3732 6.07654 26.6105C6.07654 28.1585 7.33141 29.4134 8.87941 29.4134C9.18566 29.4134 9.4801 29.3636 9.75591 29.2728C9.85166 30.7949 11.1158 32 12.662 32C14.2706 32 15.5747 30.696 15.5747 29.0874V2.91263Z" fill="#E26730"/>
<path d="M12.6625 1.72127e-06C12.2159 -0.000484934 11.7753 0.102229 11.375 0.300127C12.3374 0.775502 12.9996 1.7665 12.9996 2.91256V29.0874C12.9996 30.2334 12.3374 31.2244 11.3751 31.6998C11.7754 31.8976 12.216 32.0004 12.6625 31.9999C14.2711 31.9999 15.5751 30.6959 15.5751 29.0873V2.9125C15.5751 1.30388 14.2711 1.72127e-06 12.6625 1.72127e-06Z" fill="#DF5832"/>
<path d="M9.76065 2.6626C9.76065 4.08854 10.6064 4.88585 11.042 5.24747L9.76065 2.6626ZM3.05371 9.40622C3.19935 9.38798 3.34599 9.37886 3.49277 9.37891C4.64615 9.37891 5.66896 9.93791 6.30502 10.7998" fill="#E26730"/>
<path d="M18.7256 16.4829H5.66745C5.53938 16.4829 5.41656 16.432 5.326 16.3414C5.23544 16.2509 5.18457 16.1281 5.18457 16C5.18457 15.8719 5.23544 15.7491 5.326 15.6586C5.41656 15.568 5.53938 15.5171 5.66745 15.5171H18.7256C18.8537 15.5171 18.9765 15.568 19.0671 15.6586C19.1576 15.7491 19.2085 15.8719 19.2085 16C19.2085 16.1281 19.1576 16.2509 19.0671 16.3414C18.9765 16.432 18.8537 16.4829 18.7256 16.4829ZM19.9704 14.6439H13.2519C13.1039 14.6443 12.9573 14.6154 12.8205 14.5587C12.6838 14.5021 12.5596 14.4189 12.4552 14.314L10.7921 12.6509C10.7772 12.6359 10.7595 12.6241 10.7399 12.616C10.7204 12.6079 10.6995 12.6037 10.6783 12.6038H8.68213C8.55407 12.6038 8.43124 12.5529 8.34069 12.4623C8.25013 12.3718 8.19926 12.2489 8.19926 12.1209C8.19926 11.9928 8.25013 11.87 8.34069 11.7794C8.43124 11.6889 8.55407 11.638 8.68213 11.638H10.6783C10.9793 11.638 11.2623 11.7552 11.4751 11.9681L13.1381 13.6311C13.153 13.6461 13.1707 13.6579 13.1903 13.666C13.2098 13.6741 13.2307 13.6782 13.2519 13.6782H19.9704C20.2372 13.6782 20.4533 13.8944 20.4533 14.1611C20.4533 14.4278 20.2372 14.6439 19.9704 14.6439ZM10.6783 20.362H8.68213C8.55407 20.362 8.43124 20.3111 8.34069 20.2206C8.25013 20.13 8.19926 20.0072 8.19926 19.8791C8.19926 19.7511 8.25013 19.6282 8.34069 19.5377C8.43124 19.4471 8.55407 19.3963 8.68213 19.3963H10.6783C10.7213 19.3963 10.7618 19.3795 10.7921 19.3491L12.4551 17.6861C12.5595 17.5811 12.6837 17.4979 12.8204 17.4413C12.9572 17.3846 13.1038 17.3557 13.2518 17.3561H17.8281C17.9562 17.3561 18.079 17.4069 18.1696 17.4975C18.2601 17.5881 18.311 17.7109 18.311 17.8389C18.311 17.967 18.2601 18.0898 18.1696 18.1804C18.079 18.2709 17.9562 18.3218 17.8281 18.3218H13.2518C13.2088 18.3218 13.1684 18.3386 13.138 18.369L11.475 20.0319C11.3706 20.1369 11.2465 20.2201 11.1097 20.2768C10.973 20.3334 10.8263 20.3624 10.6783 20.362Z" fill="white"/>
<path d="M29.5192 9.70791C29.5065 9.64576 29.4818 9.58671 29.4464 9.53412C29.4109 9.48153 29.3655 9.43643 29.3126 9.40141C29.2597 9.36639 29.2005 9.34213 29.1382 9.33001C29.076 9.3179 29.0119 9.31816 28.9498 9.33079L27.3525 9.65522C27.229 9.68275 27.1212 9.75763 27.0524 9.86376C26.9835 9.96989 26.959 10.0988 26.9842 10.2228C27.0094 10.3468 27.0822 10.4559 27.187 10.5268C27.2919 10.5977 27.4203 10.6246 27.5447 10.6017L29.142 10.2773C29.2042 10.2647 29.2632 10.2399 29.3158 10.2045C29.3684 10.169 29.4135 10.1236 29.4485 10.0707C29.4836 10.0178 29.5078 9.95859 29.5199 9.89634C29.5321 9.83409 29.5318 9.77006 29.5192 9.70791ZM25.8421 3.82954L24.6209 4.90922C24.5734 4.95123 24.5346 5.00218 24.5068 5.05917C24.479 5.11616 24.4627 5.17808 24.4588 5.24137C24.4549 5.30467 24.4635 5.36812 24.4841 5.42808C24.5048 5.48805 24.537 5.54337 24.579 5.59088C24.621 5.63839 24.672 5.67716 24.729 5.70498C24.786 5.7328 24.8479 5.74912 24.9112 5.75301C24.9745 5.7569 25.0379 5.74829 25.0979 5.72766C25.1578 5.70703 25.2132 5.67479 25.2607 5.63279L26.4819 4.5531C26.5294 4.51109 26.5681 4.46014 26.596 4.40315C26.6238 4.34616 26.6401 4.28425 26.644 4.22095C26.6479 4.15765 26.6393 4.09421 26.6186 4.03424C26.598 3.97427 26.5658 3.91895 26.5238 3.87144C26.4818 3.82393 26.4308 3.78516 26.3738 3.75734C26.3168 3.72953 26.2549 3.71321 26.1916 3.70931C26.1283 3.70542 26.0649 3.71404 26.0049 3.73467C25.9449 3.75529 25.8896 3.78753 25.8421 3.82954ZM21.0113 0.314724C20.8899 0.274063 20.7572 0.283299 20.6426 0.340402C20.528 0.397504 20.4407 0.497798 20.4 0.619224L19.8823 2.16479C19.8437 2.28568 19.8542 2.41692 19.9115 2.53012C19.9689 2.64332 20.0686 2.72939 20.1889 2.76971C20.3092 2.81003 20.4406 2.80135 20.5546 2.74557C20.6686 2.68978 20.756 2.59136 20.798 2.4716L21.3158 0.926037C21.3359 0.865904 21.3441 0.802391 21.3397 0.739124C21.3353 0.675857 21.3184 0.614075 21.2902 0.557308C21.2619 0.500541 21.2227 0.4499 21.1749 0.408277C21.127 0.366654 21.0714 0.334865 21.0113 0.314724Z" fill="#FFD15B"/>
</g>
<defs>
<clipPath id="clip0_5307_336">
<rect width="32" height="32" fill="white"/>
</clipPath>
</defs>
</svg>
