<svg width="32" height="32" viewBox="0 0 32 32" fill="none" xmlns="http://www.w3.org/2000/svg">
<g clip-path="url(#clip0_4772_11105)">
<path fill-rule="evenodd" clip-rule="evenodd" d="M11.6543 3.84236C11.7042 3.8526 11.7515 3.8729 11.7932 3.902C11.835 3.93111 11.8704 3.96842 11.8973 4.01166C11.9242 4.0549 11.942 4.10316 11.9496 4.15351C11.9573 4.20385 11.9546 4.25522 11.9417 4.30449C11.9288 4.35375 11.9061 4.39988 11.8748 4.44006C11.8435 4.48024 11.8044 4.51363 11.7598 4.53819C11.7152 4.56275 11.666 4.57797 11.6153 4.58292C11.5647 4.58787 11.5135 4.58245 11.465 4.56699C9.24912 3.97855 6.99324 4.34692 5.14199 5.41574C3.28999 6.48499 1.84262 8.25474 1.24449 10.468C1.22496 10.5585 1.17264 10.6386 1.0976 10.6928C1.02256 10.747 0.930112 10.7716 0.83805 10.7618C0.745987 10.7519 0.660821 10.7084 0.59895 10.6395C0.537079 10.5706 0.502877 10.4813 0.50293 10.3887C0.50293 10.1815 0.503367 10.3887 0.503367 10.3887C0.503367 10.3567 0.507492 10.3243 0.516117 10.292C1.16474 7.87124 2.74443 5.93605 4.76699 4.7683C6.78387 3.60386 9.24099 3.20217 11.6543 3.84236ZM10.5323 8.04474C9.27312 7.71267 7.99149 7.92299 6.93912 8.53061C6.9318 8.53486 6.92474 8.5393 6.91787 8.54392C5.87074 9.15611 5.05387 10.1621 4.71743 11.4177C4.71534 11.4255 4.71353 11.4333 4.71199 11.4412L4.71155 11.4411V11.4412C4.6938 11.5374 4.71429 11.6366 4.76864 11.7179C4.82299 11.7991 4.90692 11.8559 5.00254 11.8762C5.09817 11.8965 5.19792 11.8786 5.28057 11.8264C5.36321 11.7742 5.42221 11.6918 5.44499 11.5967C5.7313 10.5439 6.41724 9.70105 7.29505 9.18836C7.30143 9.18511 7.3078 9.18174 7.31405 9.17811C8.20062 8.66624 9.28074 8.48917 10.3422 8.7693C10.3547 8.77317 10.3675 8.77642 10.3806 8.77905H10.3807C10.477 8.79657 10.5764 8.77571 10.6576 8.72094C10.7387 8.66616 10.7952 8.58181 10.815 8.4859C10.8348 8.39 10.8163 8.29016 10.7635 8.20773C10.7106 8.12529 10.6277 8.06679 10.5323 8.04474ZM11.1341 5.95617C11.1272 5.95389 11.1203 5.95181 11.1133 5.94992L11.1136 5.9488C9.27087 5.45505 7.39343 5.76017 5.85312 6.64942C4.31337 7.53836 3.11068 9.0118 2.61687 10.8548C2.59122 10.9508 2.60475 11.053 2.65447 11.139C2.70419 11.2249 2.78603 11.2877 2.88199 11.3133C2.97795 11.3389 3.08017 11.3254 3.16615 11.2757C3.25214 11.226 3.31485 11.1441 3.34049 11.0482C3.78093 9.40455 4.85405 8.09024 6.22812 7.29692C7.60168 6.50392 9.27624 6.23192 10.9202 6.67242L10.9206 6.6713C11.0142 6.69571 11.1136 6.68282 11.198 6.63535C11.2823 6.58788 11.3449 6.50953 11.3726 6.41682C11.4003 6.3241 11.3909 6.22426 11.3464 6.13832C11.302 6.05238 11.2259 5.98706 11.1342 5.95611L11.1341 5.95617Z" fill="#E26730"/>
<path fill-rule="evenodd" clip-rule="evenodd" d="M13.1012 11.1969C13.3799 7.78368 16.354 5.23068 19.77 5.47224C23.1861 5.71374 25.7714 8.65987 25.567 12.0783C28.829 12.0783 31.498 14.7472 31.498 18.0092C31.498 21.2712 28.8291 23.9402 25.567 23.9402H6.20098C3.8398 23.9216 1.93555 22.0022 1.93555 19.641C1.93555 17.2797 3.8398 15.3604 6.20098 15.3418C5.62667 13.0652 7.11648 10.6792 9.24317 10.177C10.5302 9.87305 12.0234 10.2186 13.1012 11.1969Z" fill="#DF5832"/>
<path fill-rule="evenodd" clip-rule="evenodd" d="M25.567 12.0784C28.829 12.0784 31.4979 14.7472 31.4979 18.0092C31.4979 21.2712 28.829 23.9402 25.567 23.9402H8.25958C5.89845 23.9216 3.99414 22.0022 3.99414 19.641C3.99414 17.2797 5.89845 15.3604 8.25958 15.3418C7.59008 11.039 12.5158 10.1527 14.0965 12.5995C14.9516 4.75379 25.0891 5.19648 25.5669 12.0783L25.567 12.0784Z" fill="#FA8767"/>
<path fill-rule="evenodd" clip-rule="evenodd" d="M18.2263 7.63122C18.1296 7.64706 18.0306 7.62435 17.9505 7.56795C17.8704 7.51156 17.8157 7.42599 17.798 7.32965C17.7804 7.23331 17.8012 7.13389 17.8561 7.05277C17.911 6.97164 17.9955 6.9153 18.0915 6.89584C18.191 6.87747 18.2886 6.86172 18.3841 6.84872C19.8519 6.64865 21.1675 7.01047 22.1765 7.73803C23.1888 8.46803 23.8894 9.56484 24.1238 10.8318C24.1388 10.9124 24.1516 10.9923 24.1624 11.0715C24.1689 11.1201 24.1658 11.1696 24.1532 11.2171C24.1406 11.2645 24.1188 11.3091 24.089 11.3481C24.0592 11.3871 24.0221 11.4199 23.9796 11.4446C23.9371 11.4692 23.8902 11.4853 23.8416 11.4918C23.7929 11.4984 23.7434 11.4953 23.696 11.4827C23.6485 11.4701 23.604 11.4483 23.5649 11.4185C23.5259 11.3887 23.4931 11.3515 23.4684 11.3091C23.4438 11.2666 23.4277 11.2197 23.4212 11.171C23.4119 11.1026 23.401 11.0344 23.3884 10.9665C23.1896 9.89165 22.5965 8.96209 21.7399 8.3444C20.8801 7.72434 19.7511 7.41709 18.4837 7.58984C18.3975 7.60158 18.3117 7.61534 18.2262 7.63109L18.2263 7.63122ZM11.9217 13.9653C14.2161 13.9653 16.0934 15.8425 16.0934 18.137V20.7958H14.5042V18.137C14.5042 16.7197 13.3389 15.5545 11.9217 15.5545C10.5044 15.5545 9.33919 16.7197 9.33919 18.137V20.7958H7.75V18.137C7.75 15.8425 9.62725 13.9653 11.9217 13.9653Z" fill="#FFD9CE"/>
<path fill-rule="evenodd" clip-rule="evenodd" d="M12.2029 13.975C14.3675 14.121 16.0934 15.937 16.0934 18.137V20.7958H15.0667V18.137C15.0667 16.7197 13.9014 15.5545 12.4842 15.5545C12.3892 15.5545 12.2954 15.5598 12.2029 15.57C12.1095 15.5597 12.0157 15.5545 11.9217 15.5545C10.5044 15.5545 9.33919 16.7197 9.33919 18.137V20.7958H8.3125V18.137C8.3125 15.937 10.0384 14.1209 12.2029 13.975Z" fill="white"/>
<path d="M16.8382 19.4225H7.00485C6.42885 19.4225 5.96191 19.8894 5.96191 20.4654V27.4183C5.96191 27.9943 6.42885 28.4612 7.00485 28.4612H16.8382C17.4142 28.4612 17.8812 27.9943 17.8812 27.4183V20.4654C17.8812 19.8894 17.4142 19.4225 16.8382 19.4225Z" fill="#F9AC00"/>
<path d="M16.8382 19.4225H8.02438C7.44838 19.4225 6.98145 19.8894 6.98145 20.4654V27.4183C6.98145 27.9943 7.44838 28.4612 8.02438 28.4612H16.8382C17.4142 28.4612 17.8811 27.9943 17.8811 27.4183V20.4654C17.8811 19.8894 17.4142 19.4225 16.8382 19.4225Z" fill="#FDC72E"/>
<path fill-rule="evenodd" clip-rule="evenodd" d="M23.7374 19.3987L20.1248 20.6154C19.9581 20.6716 19.8506 20.8212 19.8506 20.9971V24.3259C19.8506 26.4964 22.1099 27.3972 23.7374 28.4612C25.3649 27.3972 27.6242 26.4964 27.6242 24.3259V20.9971C27.6242 20.8212 27.5168 20.6716 27.35 20.6154L23.7374 19.3987Z" fill="#2DD62D"/>
<path fill-rule="evenodd" clip-rule="evenodd" d="M23.7373 19.3987L20.1248 20.6154C19.958 20.6716 19.8506 20.8212 19.8506 20.9971V24.3259C19.8506 26.4964 22.1098 27.3972 23.7374 28.4612V19.3987H23.7373Z" fill="#00AB0B"/>
<path fill-rule="evenodd" clip-rule="evenodd" d="M23.7378 19.3987L20.4581 20.5033V20.5121L20.458 24.3056C20.458 25.8454 21.3334 26.8244 22.3869 27.6367C22.846 27.9174 23.3133 28.1837 23.7377 28.4612V19.3987L23.7378 19.3987Z" fill="#29B933"/>
<path fill-rule="evenodd" clip-rule="evenodd" d="M21.7213 23.555C21.6801 23.4648 21.6764 23.362 21.711 23.2692C21.7456 23.1763 21.8157 23.101 21.9059 23.0598C21.996 23.0187 22.0988 23.015 22.1916 23.0496C22.2845 23.0842 22.3598 23.1543 22.401 23.2444L23.0013 24.5594L25.5093 22.0514C25.5796 21.9811 25.675 21.9416 25.7744 21.9416C25.8739 21.9416 25.9692 21.9811 26.0395 22.0514C26.1099 22.1217 26.1494 22.2171 26.1494 22.3165C26.1494 22.416 26.1099 22.5113 26.0395 22.5817L23.1507 25.4706L23.1498 25.4697C23.1072 25.5124 23.0548 25.5441 22.9972 25.5621C22.9397 25.5802 22.8786 25.584 22.8192 25.5733C22.7599 25.5626 22.704 25.5377 22.6563 25.5007C22.6087 25.4636 22.5707 25.4157 22.5457 25.3608L21.7213 23.555Z" fill="white"/>
<path fill-rule="evenodd" clip-rule="evenodd" d="M12.3901 21.4486C13.0646 21.4486 13.6113 21.9954 13.6113 22.6698C13.6113 23.1425 13.3427 23.5524 12.9498 23.7554V25.8755C12.9498 26.1833 12.6979 26.4352 12.3901 26.4352C12.0823 26.4352 11.8304 26.1834 11.8304 25.8755V23.7555C11.4376 23.5525 11.1689 23.1425 11.1689 22.6699C11.1689 21.9954 11.7157 21.4486 12.3901 21.4486Z" fill="#F9AC00"/>
<path fill-rule="evenodd" clip-rule="evenodd" d="M11.9214 21.4486C12.5959 21.4486 13.1426 21.9954 13.1426 22.6698C13.1426 23.1425 12.874 23.5524 12.4811 23.7554V25.8755C12.4811 26.1833 12.2293 26.4352 11.9214 26.4352C11.6136 26.4352 11.3617 26.1834 11.3617 25.8755V23.7555C10.9688 23.5525 10.7002 23.1425 10.7002 22.6699C10.7002 21.9954 11.2469 21.4487 11.9214 21.4487L11.9214 21.4486Z" fill="white"/>
</g>
<defs>
<clipPath id="clip0_4772_11105">
<rect width="32" height="32" fill="white"/>
</clipPath>
</defs>
</svg>
