<svg width="32" height="32" viewBox="0 0 32 32" fill="none" xmlns="http://www.w3.org/2000/svg">
<path fill-rule="evenodd" clip-rule="evenodd" d="M16.0001 31.375C2.03326 24.6456 3.09764 13.2608 3.07276 5.36875C7.51007 5.36875 12.7157 3.90931 16.0001 0.625C19.2844 3.90931 24.4901 5.36875 28.9274 5.36875C28.9025 13.2608 29.9669 24.6456 16.0001 31.375Z" fill="#DF5832"/>
<path fill-rule="evenodd" clip-rule="evenodd" d="M5.81193 5.18975C9.51975 4.71025 13.3741 3.25106 16.0002 0.625C19.2846 3.90937 24.4902 5.36875 28.9275 5.36875C28.9026 13.2609 29.967 24.6456 16.0002 31.375C4.45268 24.2024 5.55006 13.0658 5.81193 5.18975Z" fill="#E26730"/>
<path fill-rule="evenodd" clip-rule="evenodd" d="M16.0001 28.9997C4.38948 23.4056 5.27429 13.9414 5.25366 7.38069C8.94241 7.38069 13.2699 6.16751 16.0001 3.43726C18.7304 6.16751 23.0579 7.38069 26.7465 7.38069C26.7259 13.9414 27.6107 23.4056 16.0001 28.9997Z" fill="#E5EAF1"/>
<path fill-rule="evenodd" clip-rule="evenodd" d="M7.53063 7.23188C10.6129 6.83326 13.8171 5.62026 16.0001 3.43719C18.7304 6.16744 23.0579 7.3807 26.7466 7.3807C26.7259 13.9414 27.6108 23.4056 16.0001 28.9997C6.40069 23.0371 7.31294 13.7793 7.53063 7.23188Z" fill="#F3F5FB"/>
<path fill-rule="evenodd" clip-rule="evenodd" d="M17.1834 9.64309L20.0529 14.6132L22.9224 19.5833C23.1733 20.0178 23.1733 20.5152 22.9224 20.9497C22.6716 21.3842 22.2408 21.6329 21.7391 21.6329H10.2611C9.75938 21.6329 9.32863 21.3842 9.07776 20.9497C8.82695 20.5152 8.82695 20.0178 9.07776 19.5833L11.9473 14.6132L14.8168 9.64309C15.0676 9.20859 15.4983 8.9599 16.0001 8.9599C16.5018 8.9599 16.9325 9.20859 17.1833 9.64309H17.1834Z" fill="#F9AC00"/>
<path fill-rule="evenodd" clip-rule="evenodd" d="M17.1834 9.64308L20.0529 14.6132L22.9224 19.5833C23.1732 20.0178 23.1732 20.5152 22.9224 20.9497C22.6716 21.3842 22.2408 21.6329 21.7391 21.6329H11.6875C11.2127 21.6329 10.8051 21.3975 10.5677 20.9864C10.3303 20.5752 10.3303 20.1045 10.5677 19.6933L13.2832 14.9898L15.9988 10.2863C16.2362 9.87515 16.6438 9.63977 17.1186 9.63977C17.1399 9.63977 17.1611 9.64027 17.1821 9.64121L17.1833 9.64321L17.1834 9.64308Z" fill="#FDC72E"/>
<path fill-rule="evenodd" clip-rule="evenodd" d="M15.4668 16.0903L15.3108 13.7624C15.2825 13.3091 15.2676 12.9821 15.2676 12.7845C15.2676 12.5155 15.3373 12.3063 15.4785 12.1552C15.6196 12.0041 15.8039 11.9294 16.033 11.9294C16.312 11.9294 16.4979 12.0257 16.5908 12.2183C16.6855 12.4109 16.732 12.6898 16.732 13.0518C16.732 13.2659 16.7204 13.4834 16.6988 13.7043L16.4896 16.1002C16.4663 16.3858 16.4182 16.6049 16.3435 16.7577C16.2704 16.9088 16.1475 16.9851 15.9749 16.9851C15.8006 16.9851 15.6793 16.9121 15.6113 16.7643C15.5448 16.6166 15.495 16.3924 15.4668 16.0903ZM16.0048 19.624C15.8072 19.624 15.6349 19.5588 15.4885 19.4314C15.341 19.3031 15.2676 19.1243 15.2676 18.8934C15.2676 18.6926 15.3373 18.5215 15.4785 18.3804C15.6196 18.2393 15.7906 18.1695 15.9948 18.1695C16.1991 18.1695 16.3718 18.2393 16.5162 18.3804C16.6606 18.5215 16.732 18.6925 16.732 18.8934C16.732 19.1209 16.6593 19.3006 16.5145 19.4298C16.3688 19.5596 16.1991 19.624 16.0048 19.624Z" fill="white"/>
</svg>
