<svg width="32" height="32" viewBox="0 0 32 32" fill="none" xmlns="http://www.w3.org/2000/svg">
<g clip-path="url(#clip0_5279_464)">
<mask id="mask0_5279_464" style="mask-type:alpha" maskUnits="userSpaceOnUse" x="14" y="22" width="14" height="10">
<rect x="14" y="22" width="14" height="10" fill="#D9D9D9"/>
</mask>
<g mask="url(#mask0_5279_464)">
<path d="M27.3188 23.4231C26.4944 23.2088 25.8962 22.945 25.4475 22.7163C24.2475 25.2088 21.9581 27.0775 19.2044 27.6956C18.7931 27.0238 18.0519 26.575 17.2063 26.575C15.9131 26.575 14.865 27.6231 14.865 28.9163C14.865 30.2094 15.9131 31.2575 17.2063 31.2575C18.2263 31.2575 19.0931 30.605 19.4144 29.6956C22.93 28.9837 25.8512 26.6069 27.3244 23.4238H27.3263L27.3188 23.4231ZM15.1525 15.6094C15.3806 15.3794 15.5525 15.1288 15.6681 14.8563C15.7838 14.5838 15.8419 14.2413 15.8419 13.8275C15.8419 13.2675 15.7181 12.775 15.4713 12.35C15.2238 11.925 14.885 11.5938 14.4544 11.3563C14.0238 11.1188 13.5363 11 12.9913 11C12.3963 11 11.875 11.1138 11.4269 11.3419C10.9788 11.57 10.6294 11.8925 10.3781 12.3094C10.2984 12.4419 10.2314 12.5817 10.1781 12.7269C9.9875 13.2438 10.3731 13.7925 10.9237 13.7925H10.9744C11.3031 13.7925 11.5881 13.5856 11.7144 13.2812C11.7331 13.2356 11.755 13.1906 11.78 13.1463C11.8919 12.9475 12.0494 12.7869 12.2519 12.6656C12.455 12.5438 12.6894 12.4831 12.9556 12.4831C13.2219 12.4831 13.4325 12.54 13.6219 12.6538C13.8112 12.7675 13.9581 12.9244 14.0625 13.1231C14.1669 13.3219 14.2188 13.5487 14.2188 13.8038C14.2188 13.9813 14.1644 14.1725 14.0563 14.3775C13.9481 14.5825 13.7625 14.8006 13.5 15.0325L10.3175 17.8569C10.2177 17.9453 10.1377 18.054 10.083 18.1756C10.0283 18.2972 9.99997 18.4291 10 18.5625C10 19.0838 10.4225 19.5056 10.9431 19.5056H15.0988C15.5081 19.5056 15.8406 19.1738 15.8406 18.7638C15.8406 18.3544 15.5087 18.0219 15.0988 18.0219H12.4475L14.3106 16.3881C14.6425 16.0981 14.9225 15.8388 15.1506 15.6088L15.1525 15.6094ZM21.9956 16.7475V15.4613C21.9956 15.0194 21.6375 14.6619 21.1963 14.6619C20.7544 14.6619 20.3969 15.02 20.3969 15.4613V16.7475H18.5775L20.6575 12.34C20.9131 11.7975 20.5181 11.1738 19.9181 11.1738C19.6019 11.1738 19.3138 11.3563 19.1788 11.6425L16.8844 16.5044C16.8087 16.6649 16.7694 16.8401 16.7694 17.0175C16.7694 17.6813 17.3075 18.22 17.9719 18.22H20.3969V18.7181C20.3969 19.16 20.755 19.5175 21.1963 19.5175C21.6381 19.5175 21.9956 19.1594 21.9956 18.7181V18.22H22.0012C22.4075 18.22 22.7369 17.8906 22.7369 17.4844C22.7369 17.0781 22.4075 16.7487 22.0012 16.7487H21.9956V16.7475Z" fill="white"/>
</g>
<path d="M15.9998 3C20.3092 3 23.9561 5.90187 25.1067 9.86187C25.0486 9.89125 24.9923 9.92062 24.9386 9.94875C25.0442 9.89312 25.1523 9.84188 25.2623 9.79625C26.5511 9.26688 27.9723 8.9725 27.9723 8.9725C26.4417 3.79125 21.6542 0 15.9998 0C10.3455 0 5.55797 3.79125 4.02734 8.9725C4.02734 8.9725 5.44797 9.26688 6.73734 9.79625C6.84797 9.84125 6.95547 9.8925 7.06109 9.94812C7.00734 9.92 6.95172 9.89125 6.89297 9.86125C8.04359 5.90125 11.6905 2.99938 15.9998 2.99938V3Z" fill="white"/>
<path d="M6.73732 9.79626C6.84794 9.84189 6.95607 9.89314 7.06169 9.94876H7.06357C7.81982 10.3731 8.33232 11.38 8.33107 12.245C8.29294 12.7819 8.16169 15.7169 8.19544 16.665C8.16169 17.6131 8.29232 20.5481 8.33107 21.085C8.33107 21.95 7.81919 22.9569 7.06357 23.3806C6.60169 23.6244 5.96544 23.9225 5.05107 24.1606C4.13607 24.3944 3.43169 24.4294 2.90482 24.4081C2.03169 24.3713 1.06044 23.4638 0.735442 22.3806C0.452317 21.7425 -0.0883077 17.9238 0.0123173 16.665C-0.0883077 15.4056 0.452317 11.5875 0.734817 10.9494C1.05982 9.86626 2.03107 8.95939 2.90419 8.92189C3.21482 8.90939 3.58732 8.91689 4.02732 8.97251C4.02732 8.97251 5.44794 9.26689 6.73732 9.79626ZM25.2623 9.79626C25.1517 9.84189 25.0436 9.89314 24.9379 9.94876H24.9361C24.1798 10.3731 23.6673 11.38 23.6686 12.245C23.7067 12.7819 23.8379 15.7169 23.8042 16.665C23.8379 17.6131 23.7073 20.5481 23.6686 21.085C23.6686 21.95 24.1804 22.9569 24.9361 23.3806C25.3979 23.6244 26.0342 23.9225 26.9486 24.1606C27.8636 24.3944 28.5679 24.4294 29.0948 24.4081C29.9679 24.3713 30.9392 23.4638 31.2642 22.3806C31.5473 21.7425 32.0879 17.9238 31.9867 16.665C32.0873 15.4056 31.5467 11.5875 31.2642 10.9494C30.9392 9.86626 29.9679 8.95939 29.0948 8.92189C28.7842 8.90939 28.4117 8.91689 27.9717 8.97251C27.9717 8.97251 26.5511 9.26689 25.2617 9.79626H25.2623Z" fill="#DF5832"/>
<path d="M7.06295 9.94939H7.06108C6.95545 9.89251 6.84733 9.84126 6.7367 9.79626C5.44795 9.26689 4.0267 8.97251 4.0267 8.97251C3.5867 8.91689 3.2142 8.90939 2.90358 8.92189C2.03045 8.95876 1.0592 9.86564 0.734205 10.9494C0.451705 11.5875 -0.0882953 15.4056 0.0123297 16.665C-0.0414203 17.3381 0.0879546 18.7431 0.26358 20.0025C3.3842 19.0406 6.12858 17.2194 8.21858 14.815C8.25295 13.725 8.30795 12.5638 8.33045 12.245C8.33108 11.38 7.8192 10.3731 7.06295 9.94939ZM31.8548 14.2681C31.6936 12.8425 31.433 11.33 31.2642 10.9494C30.9392 9.86626 29.968 8.95939 29.0948 8.92189C28.7842 8.90939 28.4117 8.91689 27.9717 8.97251C27.9717 8.97251 26.5511 9.26689 25.2617 9.79626C25.1511 9.84189 25.043 9.89314 24.9373 9.94876H24.9355C24.1792 10.3731 23.6667 11.38 23.668 12.245C23.7061 12.7819 23.8373 15.7169 23.8036 16.665C23.823 17.2169 23.7867 18.4413 23.7461 19.4744C26.9273 18.5331 29.7273 16.7019 31.8548 14.2681Z" fill="#E26730"/>
<path d="M18.6429 11.5455H16.0894V9.87105C16.5528 9.71269 16.875 9.37705 16.875 8.98469C16.875 8.44082 16.2598 8 15.5001 8C14.7404 8 14.125 8.44082 14.125 8.98469C14.125 9.37705 14.4472 9.71364 14.9108 9.87105V11.5455H12.3571C11.056 11.5455 10 12.6041 10 13.9091V17.0605C10 19.2348 11.7605 21 13.9289 21H17.0716C19.2399 21 21 19.2348 21 17.0605V13.9091C21 12.6041 19.9442 11.5455 18.6429 11.5455ZM12.7503 15.4849V14.6971C12.7503 14.5937 12.7706 14.4912 12.8101 14.3956C12.8496 14.3001 12.9074 14.2132 12.9804 14.1401C13.0534 14.0669 13.14 14.0089 13.2353 13.9693C13.3306 13.9297 13.4328 13.9093 13.5359 13.9093C13.6391 13.9093 13.7413 13.9297 13.8366 13.9693C13.9319 14.0089 14.0185 14.0669 14.0914 14.1401C14.1644 14.2132 14.2223 14.3001 14.2618 14.3956C14.3012 14.4912 14.3216 14.5937 14.3216 14.6971V15.4849C14.3216 15.5884 14.3013 15.6909 14.2619 15.7865C14.2224 15.8822 14.1645 15.969 14.0915 16.0422C14.0185 16.1154 13.9319 16.1734 13.8365 16.213C13.7411 16.2525 13.6389 16.2728 13.5357 16.2727C13.4325 16.2728 13.3303 16.2525 13.235 16.2129C13.1397 16.1733 13.0531 16.1153 12.9801 16.0421C12.9072 15.9689 12.8493 15.8821 12.8099 15.7865C12.7705 15.6909 12.7502 15.5884 12.7503 15.4849ZM17.4643 18.6364L15.8931 19.0304H15.1074L13.5357 18.6364V17.8486H17.4643V18.6364ZM18.2502 15.4849C18.2502 15.5884 18.23 15.6909 18.1905 15.7865C18.151 15.8822 18.0931 15.969 18.0201 16.0422C17.9471 16.1154 17.8605 16.1734 17.7651 16.213C17.6697 16.2525 17.5675 16.2728 17.4643 16.2727C17.3611 16.2728 17.2589 16.2525 17.1636 16.2129C17.0682 16.1734 16.9815 16.1154 16.9086 16.0422C16.8356 15.969 16.7777 15.8821 16.7383 15.7865C16.6988 15.6909 16.6786 15.5884 16.6787 15.4849V14.6971C16.6787 14.4882 16.7615 14.2877 16.9088 14.14C17.0562 13.9922 17.256 13.9092 17.4644 13.9092C17.6728 13.9092 17.8727 13.9922 18.02 14.14C18.1674 14.2877 18.2502 14.4882 18.2502 14.6971V15.4849Z" fill="white"/>
</g>
<defs>
<clipPath id="clip0_5279_464">
<rect width="32" height="32" fill="white"/>
</clipPath>
</defs>
</svg>
