<svg width="32" height="32" viewBox="0 0 32 32" fill="none" xmlns="http://www.w3.org/2000/svg">
<path d="M13.2854 8.24244C13.2854 7.70426 13.203 7.18062 13.0527 6.69092L14.4442 5.79395L12.8733 3.34547L11.4769 4.24244C10.8773 3.71954 10.1708 3.33398 9.40659 3.11274V1.45456H6.4975V3.11274C5.72174 3.33092 5.01871 3.72365 4.4272 4.24244L3.03084 3.34547L1.45508 5.79395L2.84659 6.69092C2.70114 7.18062 2.61871 7.70426 2.61871 8.24244C2.61871 8.78062 2.70114 9.30426 2.85144 9.79395L1.45508 10.6909L3.03084 13.1394L4.4272 12.2424C5.01871 12.7612 5.72174 13.154 6.4975 13.3721V15.0303H9.40659V13.3721C10.1824 13.154 10.8854 12.7612 11.4769 12.2424L12.8733 13.1394L14.449 10.6909L13.0575 9.79395C13.203 9.30426 13.2854 8.78062 13.2854 8.24244ZM7.95205 11.1515C6.3472 11.1515 5.04296 9.84729 5.04296 8.24244C5.04296 6.63759 6.3472 5.33335 7.95205 5.33335C9.5569 5.33335 10.8611 6.63759 10.8611 8.24244C10.8611 9.84729 9.5569 11.1515 7.95205 11.1515Z" fill="#2EB67D"/>
<path d="M29.3821 23.7576C29.3821 23.2194 29.2996 22.6958 29.1493 22.2061L30.5457 21.3091L28.9699 18.8606L27.5736 19.7576C26.9765 19.2312 26.2691 18.8452 25.5033 18.6279V16.9697H22.5942V18.6279C21.8184 18.8461 21.1154 19.2388 20.5239 19.7576L19.1275 18.8606L17.5518 21.3091L18.9433 22.2061C18.6333 23.2172 18.6333 24.298 18.9433 25.3091L17.5518 26.2061L19.1275 28.6545L20.5239 27.7576C21.1154 28.2764 21.8184 28.6691 22.5942 28.8873V30.5455H25.5033V28.8873C26.279 28.6691 26.9821 28.2764 27.5736 27.7576L28.9699 28.6545L30.5457 26.2061L29.1542 25.3091C29.2996 24.8194 29.3821 24.2958 29.3821 23.7576ZM24.0487 26.6667C22.4439 26.6667 21.1396 25.3624 21.1396 23.7576C21.1396 22.1527 22.4439 20.8485 24.0487 20.8485C25.6536 20.8485 26.9578 22.1527 26.9578 23.7576C26.9578 25.3624 25.6584 26.6667 24.0487 26.6667Z" fill="#7CB5E8"/>
<path d="M8.73718 17.5952C8.92627 18.4679 9.27051 19.2824 9.73596 20.0097L8.56263 21.5952L10.4051 23.4376L11.9905 22.2643C12.7178 22.7297 13.5323 23.074 14.4051 23.2631L14.696 25.2121H17.2996L17.5905 23.2631C18.4632 23.074 19.2778 22.7297 20.0051 22.2643L21.5905 23.4376L23.4329 21.5952L22.2596 20.0097C22.7251 19.2824 23.0693 18.4679 23.2584 17.5952L25.2075 17.3043V14.7006L23.2584 14.4097C23.0693 13.537 22.7251 12.7224 22.2596 11.9952L23.4329 10.4097L21.5905 8.5673L20.0051 9.74063C19.2778 9.27518 18.4632 8.93093 17.5905 8.74184L17.3044 6.7879H14.7008L14.4099 8.73699C13.5372 8.92608 12.7226 9.27033 11.9954 9.73578L10.4099 8.56245L8.56748 10.4049L9.74081 11.9903C9.27536 12.7176 8.93112 13.5321 8.74203 14.4049L6.78809 14.6958V17.2994L8.73718 17.5952ZM12.4851 16C12.4851 14.0558 14.0608 12.4849 16.0002 12.4849C17.9445 12.4849 19.5154 14.0606 19.5154 16C19.5154 17.9394 17.9396 19.5152 16.0002 19.5152C14.056 19.5152 12.4851 17.9443 12.4851 16Z" fill="#E26730"/>
<path opacity="0.3" d="M22.2649 11.9903L23.4382 10.4049L21.5958 8.56245L20.0103 9.73578C19.283 9.27033 18.4685 8.92608 17.5958 8.73699L17.3049 6.7879H14.7012L14.4103 8.73699C13.5376 8.92608 12.723 9.27033 11.9958 9.73578L11.7097 9.5273C11.3255 11.462 11.6345 13.4702 12.5824 15.2C12.7786 14.36 13.2769 13.6214 13.9823 13.1249C14.6878 12.6284 15.5511 12.4087 16.4081 12.5075C17.2651 12.6063 18.0558 13.0168 18.6297 13.6608C19.2037 14.3048 19.5207 15.1374 19.5206 16C19.5206 17.4303 18.6673 18.6521 17.4455 19.2049C18.2503 19.4618 19.1085 19.5976 20.0006 19.5976C20.9606 19.5976 21.8818 19.4279 22.74 19.137C22.9679 18.6473 23.1521 18.1334 23.2685 17.5903L25.2176 17.2994V14.6958L23.2685 14.4049C23.0746 13.5321 22.7303 12.7176 22.2649 11.9903Z" fill="white"/>
<path d="M31.2874 14.7733C31.219 14.7057 31.1267 14.6678 31.0305 14.6678C30.9342 14.6678 30.8419 14.7057 30.7735 14.7733L29.9298 15.617C29.7262 8.10667 23.5589 2.06061 16.0001 2.06061C15.8014 2.06061 15.6365 2.22546 15.6365 2.42424C15.6365 2.62303 15.8014 2.78788 16.0001 2.78788C23.1517 2.78788 28.9892 8.49939 29.2026 15.5976L28.3783 14.7733C28.2377 14.6327 28.005 14.6327 27.8644 14.7733C27.7238 14.9139 27.7238 15.1467 27.8644 15.2873L29.3189 16.7418C29.3917 16.8145 29.4838 16.8485 29.5759 16.8485C29.668 16.8485 29.7602 16.8145 29.8329 16.7418L31.2874 15.2873C31.428 15.1467 31.428 14.9139 31.2874 14.7733ZM16.0001 29.2121C8.84863 29.2121 3.01106 23.5006 2.79772 16.4024L3.62197 17.2267C3.69469 17.2994 3.78682 17.3333 3.87894 17.3333C3.97106 17.3333 4.06318 17.2994 4.13591 17.2267C4.27651 17.0861 4.27651 16.8533 4.13591 16.7127L2.68136 15.2582C2.61293 15.1906 2.5206 15.1526 2.42439 15.1526C2.32818 15.1526 2.23585 15.1906 2.16742 15.2582L0.712876 16.7127C0.57227 16.8533 0.57227 17.0861 0.712876 17.2267C0.853482 17.3673 1.08621 17.3673 1.22682 17.2267L2.07045 16.383C2.27409 23.8933 8.44136 29.9394 16.0001 29.9394C16.1989 29.9394 16.3638 29.7745 16.3638 29.5758C16.3638 29.377 16.1989 29.2121 16.0001 29.2121Z" fill="#4E6575"/>
</svg>
