<svg width="32" height="32" viewBox="0 0 32 32" fill="none" xmlns="http://www.w3.org/2000/svg">
<path d="M19.5 6.66667L17.1667 4.33333V5.5H11.3333V2H2V11.3333H5.5V10.1667C5.5 9.85725 5.62292 9.5605 5.84171 9.34171C6.0605 9.12292 6.35725 9 6.66667 9C6.97609 9 7.27283 9.12292 7.49162 9.34171C7.71042 9.5605 7.83333 9.85725 7.83333 10.1667V11.3333H11.3333V7.83333H17.1667V9L19.5 6.66667Z" fill="#64C8F0"/>
<path d="M30.0003 11.3333V2H20.667V5.5H21.8337C22.1431 5.5 22.4398 5.62292 22.6586 5.84171C22.8774 6.0605 23.0003 6.35725 23.0003 6.66667C23.0003 6.97609 22.8774 7.27283 22.6586 7.49162C22.4398 7.71042 22.1431 7.83333 21.8337 7.83333H20.667V11.3333H24.167V17.1667H23.0003L25.3337 19.5L27.667 17.1667H26.5003V11.3333H30.0003Z" fill="#3CC8B4"/>
<path d="M26.5 20.6667V21.8333C26.5 22.1427 26.3771 22.4395 26.1583 22.6583C25.9395 22.8771 25.6428 23 25.3333 23C25.0239 23 24.7272 22.8771 24.5084 22.6583C24.2896 22.4395 24.1667 22.1427 24.1667 21.8333V20.6667H20.6667V24.1667H14.8333V23L12.5 25.3333L14.8333 27.6667V26.5H20.6667V30H30V20.6667H26.5Z" fill="#FAB400"/>
<path d="M14.8333 24.1667V23L12.5 25.3333L14.8333 27.6667V26.5L13.6667 25.3333L14.8333 24.1667Z" fill="#DC9600"/>
<path d="M10.2291 24.1667H11.3333V20.6667H7.83333V14.8333H9L6.66667 12.5L4.33333 14.8333H5.5V20.6667H2V30H11.3333V26.5H10.1667C9.9968 26.5001 9.82895 26.4631 9.67486 26.3917C9.52077 26.3202 9.38414 26.2159 9.27454 26.0861C9.16493 25.9564 9.08498 25.8042 9.04028 25.6403C8.99559 25.4765 8.98721 25.3048 9.01575 25.1373C9.07195 24.8589 9.22429 24.6091 9.4461 24.4316C9.66792 24.2542 9.94509 24.1604 10.2291 24.1667Z" fill="#FA6450"/>
<path d="M20.667 2H21.8337V5.5H20.667V2ZM20.667 7.83333H21.8337V11.3333H20.667V7.83333ZM24.167 6.66667C24.167 6.35725 24.0441 6.0605 23.8253 5.84171C23.6065 5.62292 23.3097 5.5 23.0003 5.5H21.8337C22.1431 5.5 22.4398 5.62292 22.6586 5.84171C22.8774 6.0605 23.0003 6.35725 23.0003 6.66667C23.0003 6.97609 22.8774 7.27283 22.6586 7.49162C22.4398 7.71042 22.1431 7.83333 21.8337 7.83333H23.0003C23.3097 7.83333 23.6065 7.71042 23.8253 7.49162C24.0441 7.27283 24.167 6.97609 24.167 6.66667Z" fill="#1EAA96"/>
<path d="M26.5003 23C26.8097 23 27.1065 22.8771 27.3253 22.6583C27.5441 22.4395 27.667 22.1427 27.667 21.8333V20.6667H26.5003V21.8333C26.4998 22.0373 26.4456 22.2376 26.3433 22.414C26.2409 22.5904 26.0939 22.7368 25.917 22.8384C26.0937 22.943 26.295 22.9987 26.5003 23ZM20.667 20.6667H21.8337V24.1667H20.667V20.6667ZM20.667 26.5H21.8337V30H20.667V26.5Z" fill="#DC9600"/>
<path d="M2 2H3.16667V11.3333H2V2Z" fill="#46AAD2"/>
<path d="M2 20.6667H3.16667V30H2V20.6667ZM7.25 13.0833L6.66667 12.5L4.33333 14.8333H5.5L7.25 13.0833ZM5.5 14.8333H6.66667V20.6667H5.5V14.8333Z" fill="#DC4632"/>
<path d="M24.1667 11.3333H25.3333V17.1667H24.1667V11.3333ZM24.1667 17.1667H23L25.3333 19.5L25.9167 18.9167L24.1667 17.1667Z" fill="#1EAA96"/>
<path d="M21.8337 17.1667V14.8333H20.5142C20.4055 14.4119 20.2382 14.0077 20.0172 13.6328L20.9505 12.6995L19.3008 11.0498L18.3675 11.9832C17.9926 11.7621 17.5885 11.5948 17.167 11.4862V10.1667H14.8337V11.4862C14.4122 11.5948 14.0081 11.7621 13.6332 11.9832L12.6998 11.0498L11.0502 12.6995L11.9835 13.6328C11.7624 14.0077 11.5951 14.4119 11.4865 14.8333H10.167V17.1667H11.4865C11.5951 17.5881 11.7624 17.9922 11.9835 18.3672L11.0502 19.3005L12.6998 20.9502L13.6332 20.0168C14.0081 20.2379 14.4122 20.4052 14.8337 20.5138V21.8333H17.167V20.5138C17.5885 20.4052 17.9926 20.2379 18.3675 20.0168L19.3008 20.9502L20.9505 19.3005L20.0172 18.3672C20.2382 17.9922 20.4055 17.5881 20.5142 17.1667H21.8337ZM16.0003 18.3333C15.5388 18.3333 15.0877 18.1965 14.704 17.9401C14.3203 17.6837 14.0212 17.3193 13.8446 16.8929C13.668 16.4666 13.6218 15.9974 13.7118 15.5448C13.8019 15.0922 14.0241 14.6764 14.3504 14.3501C14.6767 14.0238 15.0925 13.8015 15.5451 13.7115C15.9977 13.6215 16.4669 13.6677 16.8933 13.8443C17.3196 14.0209 17.684 14.3199 17.9404 14.7037C18.1968 15.0874 18.3337 15.5385 18.3337 16C18.3337 16.6188 18.0878 17.2123 17.6502 17.6499C17.2127 18.0875 16.6192 18.3333 16.0003 18.3333Z" fill="white"/>
<path d="M14.7998 11.9832C15.1747 11.7621 15.5789 11.5948 16.0003 11.4862V10.1667H14.8337V11.4862C14.6972 11.5218 14.5677 11.5725 14.4358 11.6192L14.7998 11.9832ZM14.7998 20.0169L14.4358 20.3809C14.5677 20.4275 14.6972 20.4783 14.8337 20.5139V21.8334H16.0003V20.5139C15.5789 20.4052 15.1747 20.2379 14.7998 20.0169ZM17.167 13.6667C16.9698 13.6691 16.7737 13.697 16.5837 13.7495C17.0839 13.8768 17.5275 14.1672 17.8443 14.5748C18.1611 14.9823 18.3331 15.4838 18.3331 16C18.3331 16.5162 18.1611 17.0177 17.8443 17.4253C17.5275 17.8328 17.0839 18.1232 16.5837 18.2505C16.7737 18.3031 16.9698 18.3309 17.167 18.3334C17.7858 18.3334 18.3793 18.0875 18.8169 17.6499C19.2545 17.2124 19.5003 16.6189 19.5003 16C19.5003 15.3812 19.2545 14.7877 18.8169 14.3501C18.3793 13.9125 17.7858 13.6667 17.167 13.6667ZM11.4865 14.8334H12.6532C12.7618 14.4119 12.9291 14.0078 13.1502 13.6329L12.2168 12.6995L13.2832 11.6332L12.6998 11.0499L11.0502 12.6995L11.9835 13.6329C11.7624 14.0078 11.5951 14.4119 11.4865 14.8334ZM12.2174 19.2999L13.1507 18.3666C12.9295 17.9919 12.762 17.588 12.6532 17.1667H11.4865C11.5951 17.5882 11.7624 17.9923 11.9835 18.3672L11.0502 19.3005L12.6998 20.9502L13.2832 20.3669L12.2174 19.2999ZM10.167 14.8334H11.3337V17.1667H10.167V14.8334Z" fill="#E0E0E0"/>
</svg>
