<svg width="32" height="32" viewBox="0 0 32 32" fill="none" xmlns="http://www.w3.org/2000/svg">
<g clip-path="url(#clip0_5279_254)">
<path d="M22.5 12C22.4011 12 22.3045 11.9706 22.2223 11.9157C22.1401 11.8608 22.076 11.7827 22.0382 11.6913C22.0003 11.6 21.9904 11.4995 22.0097 11.4025C22.029 11.3055 22.0766 11.2164 22.1465 11.1465L24.6465 8.6465C24.7408 8.55542 24.8671 8.50502 24.9982 8.50616C25.1293 8.5073 25.2547 8.55989 25.3474 8.65259C25.4401 8.74529 25.4927 8.8707 25.4938 9.0018C25.495 9.1329 25.4446 9.2592 25.3535 9.3535L22.8535 11.8535C22.7598 11.9473 22.6326 12 22.5 12ZM7 24.5C6.90112 24.5 6.80448 24.4706 6.72227 24.4157C6.64007 24.3608 6.576 24.2827 6.53816 24.1913C6.50033 24.1 6.49042 23.9995 6.50971 23.9025C6.52899 23.8055 6.5766 23.7164 6.6465 23.6465L9.6465 20.6465C9.7408 20.5554 9.8671 20.505 9.9982 20.5062C10.1293 20.5073 10.2547 20.5599 10.3474 20.6526C10.4401 20.7453 10.4927 20.8707 10.4938 21.0018C10.495 21.1329 10.4446 21.2592 10.3535 21.3535L7.3535 24.3535C7.25975 24.4473 7.1326 24.5 7 24.5ZM10 10.5C9.8674 10.5 9.74025 10.4473 9.6465 10.3535L6.1465 6.8535C6.05268 6.75968 5.99997 6.63243 5.99997 6.49975C5.99997 6.36707 6.05268 6.23982 6.1465 6.146C6.24032 6.05218 6.36757 5.99947 6.50025 5.99947C6.63293 5.99947 6.76018 6.05218 6.854 6.146L10.354 9.646C10.4241 9.71593 10.4719 9.8051 10.4912 9.90221C10.5106 9.99932 10.5007 10.1 10.4628 10.1915C10.4249 10.2829 10.3606 10.3611 10.2783 10.416C10.1959 10.4709 10.099 10.5002 10 10.5ZM16 8C15.8674 8 15.7402 7.94732 15.6464 7.85355C15.5527 7.75979 15.5 7.63261 15.5 7.5V5.5C15.5 5.36739 15.5527 5.24021 15.6464 5.14645C15.7402 5.05268 15.8674 5 16 5C16.1326 5 16.2598 5.05268 16.3536 5.14645C16.4473 5.24021 16.5 5.36739 16.5 5.5V7.5C16.5 7.63261 16.4473 7.75979 16.3536 7.85355C16.2598 7.94732 16.1326 8 16 8ZM27.5 19.5C27.4228 19.5008 27.3465 19.4837 27.277 19.45L23.277 17.45C23.1583 17.3907 23.068 17.2867 23.026 17.1609C22.984 17.0351 22.9937 16.8977 23.053 16.779C23.1123 16.6603 23.2163 16.57 23.3421 16.528C23.4679 16.486 23.6053 16.4957 23.724 16.555L27.724 18.555C27.8236 18.606 27.9032 18.6889 27.95 18.7905C27.9969 18.8921 28.0084 19.0065 27.9826 19.1153C27.9568 19.2242 27.8952 19.3213 27.8077 19.391C27.7202 19.4607 27.6119 19.4991 27.5 19.5ZM7.5 16.5H5.5C5.36739 16.5 5.24021 16.4473 5.14645 16.3536C5.05268 16.2598 5 16.1326 5 16C5 15.8674 5.05268 15.7402 5.14645 15.6464C5.24021 15.5527 5.36739 15.5 5.5 15.5H7.5C7.63261 15.5 7.75979 15.5527 7.85355 15.6464C7.94732 15.7402 8 15.8674 8 16C8 16.1326 7.94732 16.2598 7.85355 16.3536C7.75979 16.4473 7.63261 16.5 7.5 16.5ZM18 28.5C17.8886 28.4999 17.7805 28.4626 17.6927 28.394C17.6049 28.3255 17.5426 28.2295 17.5155 28.1215L16.5155 24.1215C16.4843 23.9932 16.5052 23.8579 16.5734 23.7449C16.6417 23.6319 16.7518 23.5505 16.8799 23.5185C17.0079 23.4864 17.1434 23.5062 17.2569 23.5737C17.3703 23.6411 17.4525 23.7507 17.4855 23.8785L18.4855 27.8785C18.5177 28.0071 18.4975 28.1433 18.4294 28.257C18.3612 28.3708 18.2506 28.4528 18.122 28.485C18.0821 28.4951 18.0411 28.5002 18 28.5Z" fill="#D6E4E8"/>
<path d="M27.5 10.5C29.7091 10.5 31.5 8.70914 31.5 6.5C31.5 4.29086 29.7091 2.5 27.5 2.5C25.2909 2.5 23.5 4.29086 23.5 6.5C23.5 8.70914 25.2909 10.5 27.5 10.5Z" fill="#D6E4E8"/>
<path d="M4.5 30.5C6.70914 30.5 8.5 28.7091 8.5 26.5C8.5 24.2909 6.70914 22.5 4.5 22.5C2.29086 22.5 0.5 24.2909 0.5 26.5C0.5 28.7091 2.29086 30.5 4.5 30.5Z" fill="#D6E4E8"/>
<path d="M4.5 8.5C6.70914 8.5 8.5 6.70914 8.5 4.5C8.5 2.29086 6.70914 0.5 4.5 0.5C2.29086 0.5 0.5 2.29086 0.5 4.5C0.5 6.70914 2.29086 8.5 4.5 8.5Z" fill="#D6E4E8"/>
<path d="M5.99959 7.00001C5.29965 7.0006 4.61183 6.81736 4.00496 6.46861C3.39809 6.11987 2.89345 5.61786 2.54154 5.01282C2.18963 4.40778 2.0028 3.72093 1.99974 3.021C1.99667 2.32107 2.17749 1.6326 2.52409 1.02451C1.98707 1.32781 1.52747 1.75119 1.18119 2.26155C0.834913 2.77191 0.611342 3.35543 0.527947 3.96652C0.444553 4.5776 0.503595 5.19969 0.700459 5.78417C0.897324 6.36866 1.22668 6.8997 1.66278 7.33581C2.09889 7.77191 2.62994 8.10127 3.21442 8.29813C3.7989 8.495 4.42099 8.55404 5.03208 8.47064C5.64316 8.38725 6.22668 8.16368 6.73704 7.8174C7.24741 7.47112 7.67078 7.01152 7.97409 6.47451C7.37287 6.81853 6.69227 6.99967 5.99959 7.00001Z" fill="#BACED3"/>
<path d="M31.1696 29.755L23.2696 21.855C23.1066 21.6917 23.0051 21.477 22.9823 21.2473C22.9595 21.0177 23.0169 20.7872 23.1446 20.595C24.281 18.8294 24.7244 16.7059 24.3896 14.633C24.0548 12.5602 22.9653 10.6843 21.3308 9.36621C19.6963 8.04814 17.6322 7.38096 15.5355 7.49299C13.4387 7.60503 11.4574 8.48836 9.97271 9.9731C8.48797 11.4578 7.60463 13.4391 7.4926 15.5359C7.38056 17.6326 8.04774 19.6967 9.36581 21.3312C10.6839 22.9657 12.5598 24.0552 14.6326 24.39C16.7055 24.7248 18.829 24.2814 20.5946 23.145C20.7868 23.0172 21.0173 22.9599 21.2469 22.9827C21.4766 23.0055 21.6913 23.107 21.8546 23.27L29.7946 31.205C29.8969 31.3082 30.0206 31.3877 30.1569 31.438C30.2932 31.4883 30.4389 31.5082 30.5837 31.4963C30.7285 31.4844 30.869 31.441 30.9952 31.3691C31.1215 31.2971 31.2305 31.1985 31.3146 31.08C31.449 30.877 31.508 30.6333 31.4815 30.3913C31.455 30.1493 31.3447 29.9242 31.1696 29.755ZM15.9996 22.5C14.714 22.5 13.4573 22.1188 12.3884 21.4046C11.3195 20.6903 10.4864 19.6752 9.99439 18.4874C9.50242 17.2997 9.3737 15.9928 9.6245 14.7319C9.87531 13.471 10.4944 12.3128 11.4034 11.4038C12.3125 10.4948 13.4706 9.8757 14.7315 9.6249C15.9924 9.37409 17.2993 9.50282 18.487 9.99479C19.6748 10.4868 20.6899 11.3199 21.4042 12.3888C22.1184 13.4577 22.4996 14.7144 22.4996 16C22.4996 17.7239 21.8148 19.3772 20.5958 20.5962C19.3768 21.8152 17.7235 22.5 15.9996 22.5Z" fill="#D5D5D5"/>
<path d="M23.2695 21.855C23.1866 21.7725 23.1189 21.676 23.0695 21.57C22.914 21.4986 22.7429 21.4679 22.5723 21.4811C22.4017 21.4942 22.2373 21.5506 22.0945 21.645C20.4348 22.718 18.4518 23.1762 16.4895 22.94C15.4625 22.8179 14.4672 22.5061 13.554 22.0205C12.7548 21.6948 12.0282 21.2136 11.4164 20.6049C10.8046 19.9962 10.3198 19.2721 9.99003 18.4745C9.50908 17.5793 9.19705 16.6032 9.06953 15.595C8.92479 14.4824 9.0022 13.3522 9.29727 12.2698C9.59234 11.1873 10.0992 10.1742 10.7885 9.289C9.05843 10.6302 7.91284 12.5875 7.59062 14.7527C7.26839 16.918 7.79441 19.124 9.059 20.9109C10.3236 22.6978 12.2291 23.9275 14.3783 24.3438C16.5274 24.76 18.7543 24.3306 20.5945 23.145C20.7867 23.0172 21.0172 22.9599 21.2468 22.9827C21.4765 23.0055 21.6912 23.107 21.8545 23.27L29.7945 31.205C29.8969 31.3082 30.0205 31.3877 30.1568 31.438C30.2931 31.4883 30.4388 31.5082 30.5836 31.4963C30.7284 31.4844 30.8689 31.441 30.9952 31.3691C31.1214 31.2971 31.2304 31.1985 31.3145 31.08C31.4489 30.877 31.5079 30.6333 31.4814 30.3913C31.455 30.1493 31.3446 29.9242 31.1695 29.755L23.2695 21.855Z" fill="white"/>
<path d="M16 14.5C16.8284 14.5 17.5 13.8284 17.5 13C17.5 12.1716 16.8284 11.5 16 11.5C15.1716 11.5 14.5 12.1716 14.5 13C14.5 13.8284 15.1716 14.5 16 14.5Z" fill="white"/>
<path d="M15.5 13C15.5006 12.6907 15.597 12.3892 15.7761 12.137C15.9552 11.8848 16.2081 11.6944 16.5 11.592C16.3399 11.5327 16.1707 11.5016 16 11.5C15.6022 11.5 15.2206 11.658 14.9393 11.9393C14.658 12.2206 14.5 12.6022 14.5 13C14.5 13.3978 14.658 13.7794 14.9393 14.0607C15.2206 14.342 15.6022 14.5 16 14.5C16.1707 14.4984 16.3399 14.4673 16.5 14.408C16.2081 14.3056 15.9552 14.1152 15.7761 13.863C15.597 13.6108 15.5006 13.3093 15.5 13Z" fill="#D5D5D5"/>
<path d="M27.5 6C28.0523 6 28.5 5.55228 28.5 5C28.5 4.44772 28.0523 4 27.5 4C26.9477 4 26.5 4.44772 26.5 5C26.5 5.55228 26.9477 6 27.5 6Z" fill="#64C8F0"/>
<path d="M16 14.5C15.0717 14.5 14.1815 14.8687 13.5251 15.5251C12.8687 16.1815 12.5 17.0717 12.5 18V18.893C12.5008 19.0839 12.5556 19.2707 12.658 19.4319C12.7605 19.593 12.9064 19.7218 13.079 19.8035C13.9846 20.2613 14.9852 20.4999 16 20.4999C17.0148 20.4999 18.0154 20.2613 18.921 19.8035C19.0936 19.7218 19.2395 19.593 19.342 19.4319C19.4444 19.2707 19.4992 19.0839 19.5 18.893V18C19.5 17.0717 19.1313 16.1815 18.4749 15.5251C17.8185 14.8687 16.9283 14.5 16 14.5Z" fill="white"/>
<path d="M15.284 18.6C14.9039 18.4574 14.5768 18.2013 14.3471 17.8666C14.1175 17.5318 13.9963 17.1345 14 16.7285V16.5C14 15.9405 14.1348 15.3893 14.393 14.893C13.8228 15.1873 13.3445 15.6329 13.0106 16.1809C12.6767 16.729 12.5001 17.3583 12.5 18V18.893C12.5008 19.0839 12.5556 19.2707 12.658 19.4319C12.7605 19.593 12.9064 19.7218 13.079 19.8035C13.9846 20.2613 14.9852 20.4999 16 20.4999C17.0148 20.4999 18.0154 20.2613 18.921 19.8035C19.0936 19.7218 19.2395 19.593 19.342 19.4319C19.4444 19.2707 19.4992 19.0839 19.5 18.893V18.665C18.1287 19.1268 16.6404 19.1039 15.284 18.6Z" fill="#D5D5D5"/>
<path d="M29.006 8.7165C28.0376 9.09448 26.9624 9.09448 25.994 8.7165C25.8488 8.66118 25.7238 8.56305 25.6355 8.4351C25.5473 8.30715 25.5001 8.15542 25.5 8C25.5 7.46957 25.7107 6.96086 26.0858 6.58579C26.4609 6.21071 26.9696 6 27.5 6C28.0304 6 28.5391 6.21071 28.9142 6.58579C29.2893 6.96086 29.5 7.46957 29.5 8C29.4999 8.15542 29.4527 8.30715 29.3645 8.4351C29.2762 8.56305 29.1512 8.66118 29.006 8.7165Z" fill="#64C8F0"/>
<path d="M4.5 26C5.05228 26 5.5 25.5523 5.5 25C5.5 24.4477 5.05228 24 4.5 24C3.94772 24 3.5 24.4477 3.5 25C3.5 25.5523 3.94772 26 4.5 26Z" fill="#FAB400"/>
<path d="M6.006 28.7165C5.03758 29.0945 3.96242 29.0945 2.994 28.7165C2.84876 28.6612 2.72376 28.563 2.63554 28.4351C2.54732 28.3071 2.50005 28.1554 2.5 28C2.5 27.4696 2.71071 26.9609 3.08579 26.5858C3.46086 26.2107 3.96957 26 4.5 26C5.03043 26 5.53914 26.2107 5.91421 26.5858C6.28929 26.9609 6.5 27.4696 6.5 28C6.49995 28.1554 6.45268 28.3071 6.36446 28.4351C6.27624 28.563 6.15124 28.6612 6.006 28.7165Z" fill="#FAB400"/>
<path d="M4.5 4C5.05228 4 5.5 3.55228 5.5 3C5.5 2.44772 5.05228 2 4.5 2C3.94772 2 3.5 2.44772 3.5 3C3.5 3.55228 3.94772 4 4.5 4Z" fill="#3CC8B4"/>
<path d="M6.006 6.7165C5.03758 7.09448 3.96242 7.09448 2.994 6.7165C2.84876 6.66118 2.72376 6.56305 2.63554 6.4351C2.54732 6.30715 2.50005 6.15542 2.5 6C2.5 5.46957 2.71071 4.96086 3.08579 4.58579C3.46086 4.21071 3.96957 4 4.5 4C5.03043 4 5.53914 4.21071 5.91421 4.58579C6.28929 4.96086 6.5 5.46957 6.5 6C6.49995 6.15542 6.45268 6.30715 6.36446 6.4351C6.27624 6.56305 6.15124 6.66118 6.006 6.7165Z" fill="#3CC8B4"/>
<path d="M5.2565 6.9285C4.73145 6.8292 4.23162 6.62571 3.78652 6.33003C3.34142 6.03436 2.96008 5.6525 2.665 5.207C2.55635 5.45727 2.5002 5.72717 2.5 6C2.50005 6.15542 2.54732 6.30715 2.63554 6.4351C2.72376 6.56305 2.84876 6.66118 2.994 6.7165C3.71354 6.99718 4.49734 7.07062 5.2565 6.9285Z" fill="#1EAA96"/>
<path d="M28.9996 9.00001C28.2996 9.0006 27.6118 8.81736 27.005 8.46861C26.3981 8.11987 25.8934 7.61786 25.5415 7.01282C25.1896 6.40778 25.0028 5.72093 24.9997 5.021C24.9967 4.32107 25.1775 3.6326 25.5241 3.02451C24.9871 3.32781 24.5275 3.75119 24.1812 4.26155C23.8349 4.77191 23.6113 5.35543 23.5279 5.96652C23.4446 6.5776 23.5036 7.19969 23.7005 7.78417C23.8973 8.36866 24.2267 8.8997 24.6628 9.33581C25.0989 9.77191 25.6299 10.1013 26.2144 10.2981C26.7989 10.495 27.421 10.554 28.0321 10.4706C28.6432 10.3873 29.2267 10.1637 29.737 9.8174C30.2474 9.47112 30.6708 9.01152 30.9741 8.47451C30.3729 8.81853 29.6923 8.99967 28.9996 9.00001Z" fill="#BACED3"/>
<path d="M28.2565 8.9285C27.7315 8.8292 27.2316 8.62571 26.7865 8.33003C26.3414 8.03436 25.9601 7.6525 25.665 7.207C25.5564 7.45727 25.5002 7.72717 25.5 8C25.5001 8.15542 25.5473 8.30715 25.6355 8.4351C25.7238 8.56305 25.8488 8.66118 25.994 8.7165C26.7135 8.99718 27.4973 9.07062 28.2565 8.9285Z" fill="#46AAD2"/>
<path d="M5.99959 29C5.29965 29.0006 4.61183 28.8174 4.00496 28.4686C3.39809 28.1199 2.89345 27.6179 2.54154 27.0128C2.18963 26.4078 2.0028 25.7209 1.99974 25.021C1.99667 24.3211 2.17749 23.6326 2.52409 23.0245C1.98707 23.3278 1.52747 23.7512 1.18119 24.2615C0.834913 24.7719 0.611342 25.3554 0.527947 25.9665C0.444553 26.5776 0.503595 27.1997 0.700459 27.7842C0.897324 28.3687 1.22668 28.8997 1.66278 29.3358C2.09889 29.7719 2.62994 30.1013 3.21442 30.2981C3.7989 30.495 4.42099 30.554 5.03208 30.4706C5.64316 30.3873 6.22668 30.1637 6.73704 29.8174C7.24741 29.4711 7.67078 29.0115 7.97409 28.4745C7.37287 28.8185 6.69227 28.9997 5.99959 29Z" fill="#BACED3"/>
<path d="M5.2565 28.9285C4.73145 28.8292 4.23162 28.6257 3.78652 28.33C3.34142 28.0344 2.96008 27.6525 2.665 27.207C2.55635 27.4573 2.5002 27.7272 2.5 28C2.50005 28.1554 2.54732 28.3071 2.63554 28.4351C2.72376 28.563 2.84876 28.6612 2.994 28.7165C3.71354 28.9972 4.49734 29.0706 5.2565 28.9285Z" fill="#DC9600"/>
<path d="M16 5.5C16.8284 5.5 17.5 4.82843 17.5 4C17.5 3.17157 16.8284 2.5 16 2.5C15.1716 2.5 14.5 3.17157 14.5 4C14.5 4.82843 15.1716 5.5 16 5.5Z" fill="#E88B2A"/>
<path d="M28 20.5C28.8284 20.5 29.5 19.8284 29.5 19C29.5 18.1716 28.8284 17.5 28 17.5C27.1716 17.5 26.5 18.1716 26.5 19C26.5 19.8284 27.1716 20.5 28 20.5Z" fill="#E88B2A"/>
<path d="M18 29.5C18.8284 29.5 19.5 28.8284 19.5 28C19.5 27.1716 18.8284 26.5 18 26.5C17.1716 26.5 16.5 27.1716 16.5 28C16.5 28.8284 17.1716 29.5 18 29.5Z" fill="#E88B2A"/>
<path d="M4 17.5C4.82843 17.5 5.5 16.8284 5.5 16C5.5 15.1716 4.82843 14.5 4 14.5C3.17157 14.5 2.5 15.1716 2.5 16C2.5 16.8284 3.17157 17.5 4 17.5Z" fill="#E88B2A"/>
<path d="M19.9995 10.1545C19.9052 10.1545 19.8128 10.1278 19.733 10.0775C19.4347 9.88925 19.1227 9.72378 18.7995 9.5825C18.739 9.55647 18.6842 9.51873 18.6383 9.47146C18.5924 9.42418 18.5563 9.36831 18.5321 9.30704C18.5079 9.24577 18.496 9.18032 18.4971 9.11445C18.4983 9.04857 18.5125 8.98358 18.5388 8.9232C18.5652 8.86281 18.6032 8.80824 18.6507 8.7626C18.6982 8.71696 18.7543 8.68116 18.8157 8.65726C18.8771 8.63336 18.9426 8.62183 19.0085 8.62333C19.0743 8.62483 19.1392 8.63933 19.1995 8.666C19.5688 8.82757 19.9254 9.0166 20.2665 9.2315C20.3582 9.28932 20.4287 9.3754 20.4672 9.47676C20.5058 9.57812 20.5103 9.68927 20.4802 9.79344C20.4501 9.89762 20.3869 9.98917 20.3002 10.0543C20.2135 10.1194 20.1079 10.1546 19.9995 10.1545Z" fill="white"/>
</g>
<defs>
<clipPath id="clip0_5279_254">
<rect width="32" height="32" fill="white"/>
</clipPath>
</defs>
</svg>
