<svg width="32" height="32" viewBox="0 0 32 32" fill="none" xmlns="http://www.w3.org/2000/svg">
<path d="M4.52027 11.7529H10.0864V13.0626C10.0864 13.3322 9.86521 13.5539 9.59557 13.5539H8.94051V23.2419H9.59557C9.86521 23.2419 10.0864 23.4583 10.0864 23.7327V25.0428H4.52027V23.7327C4.52027 23.4583 4.74145 23.2419 5.01157 23.2419H5.66616V13.5539H5.01204C4.74239 13.5539 4.52074 13.3322 4.52074 13.0626L4.52027 11.7529ZM13.2163 11.7529H18.7829V13.0626C18.7829 13.3322 18.5612 13.5539 18.2916 13.5539H17.6365V23.2419H18.2916C18.5612 23.2419 18.7829 23.4583 18.7829 23.7327V25.0428H13.2163V23.7327C13.2163 23.4583 13.4375 23.2419 13.7076 23.2419H14.3622V13.5539H13.7076C13.4379 13.5539 13.2163 13.3322 13.2163 13.0626V11.7529ZM26.333 23.2419H26.9876C27.2572 23.2419 27.4789 23.4583 27.4789 23.7327V25.0428H21.9123V23.7327C21.9123 23.4583 22.1339 23.2419 22.4036 23.2419H23.0591V13.5539H22.404C22.1344 13.5539 21.9127 13.3322 21.9127 13.0626V11.7529H27.4793V13.0626C27.4793 13.3322 27.2582 13.5539 26.988 13.5539H26.3335L26.333 23.2419ZM29.14 26.5976V27.8593H2.8638V26.5981C2.8638 26.2706 3.12874 26.0056 3.45627 26.0056H28.548C28.8751 26.0056 29.14 26.2701 29.14 26.5976ZM30.8506 30.4654V29.4136C30.8506 29.0861 30.5847 28.8207 30.2572 28.8207H1.74333C1.4158 28.8207 1.15039 29.0861 1.15039 29.4136V30.4654C1.15039 30.7929 1.4158 31.0588 1.74333 31.0588H30.2572C30.5847 31.0588 30.8506 30.7929 30.8506 30.4654ZM15.4139 1.09175L2.68027 8.04564C2.49063 8.14917 2.37251 8.34822 2.37251 8.56422V10.199C2.37251 10.5252 2.63698 10.7896 2.96357 10.7896H29.0403C29.3669 10.7896 29.6313 10.5252 29.6313 10.199V8.56422C29.6313 8.34775 29.5132 8.14917 29.3236 8.04564L16.5942 1.09175C16.4132 0.992943 16.2102 0.941162 16.004 0.941162C15.7978 0.941162 15.5949 0.992943 15.4139 1.09175ZM16.004 8.17128C15.4912 8.17091 14.9995 7.96702 14.6368 7.60438C14.2742 7.24174 14.0703 6.75001 14.0699 6.23717C14.0705 5.72448 14.2745 5.23299 14.6372 4.87056C14.9998 4.50813 15.4914 4.30436 16.004 4.30399C17.0662 4.30399 17.9287 5.17081 17.9287 6.23764C17.9287 7.30399 17.0662 8.17128 16.004 8.17128Z" fill="#F92596"/>
</svg>
