<svg width="32" height="32" viewBox="0 0 32 32" fill="none" xmlns="http://www.w3.org/2000/svg">
<g clip-path="url(#clip0_4803_1476)">
<path d="M5.79366 12.3174L6.06897 12.4766V14.2239L4.81441 14.5374L7.72414 16.2349L7.7031 17.2551L7.65841 17.4114L9.37931 17.0283V16.6196C9.37931 15.8779 9.6789 15.1988 10.1694 14.6969L8.27635 14.2239L8.27428 12.4779L8.55014 12.3184C9.40193 11.8252 9.93103 10.9103 9.93103 9.93103V8.96662C9.93103 7.41407 8.73172 6.11476 7.25724 6.07055C6.51021 6.04152 5.79152 6.32379 5.25138 6.84752C4.71124 7.37152 4.41379 8.07517 4.41379 8.82759V9.93103C4.41379 10.9103 4.94235 11.8252 5.79366 12.3174ZM9.90517 6.15628C11.2017 4.06897 13.5062 2.75862 16 2.75862C18.476 2.75862 20.774 4.05683 22.0743 6.12366C22.0964 6.10159 22.1159 6.07731 22.1385 6.05524C22.4822 5.72145 22.8771 5.46421 23.3031 5.28097L23.9289 3.81572L22.1683 2.05469L20.6169 3.06434L20.3201 2.88228C19.5762 2.42641 18.7723 2.09262 17.931 1.89145L17.591 1.80952L17.2077 0H14.7917L14.409 1.80952L14.0695 1.89062C13.2281 2.09214 12.4243 2.42593 11.6806 2.88172L11.3837 3.06379L9.83214 2.05414L8.06952 3.81683L8.68855 5.29255C9.14545 5.49841 9.55821 5.7931 9.90517 6.15628ZM0 12.6897V22.7745L2.368 23.5641L4.37014 15.5558L0 12.6897Z" fill="#1FA9F3"/>
<path d="M22.6204 13.0967C21.5921 12.3785 20.9652 11.1939 20.9652 9.93103V8.82758C20.9652 8.21958 21.108 7.63634 21.3706 7.10965C20.3267 5.1293 18.2502 3.86206 15.9997 3.86206C13.7276 3.86206 11.6422 5.14654 10.6061 7.15406C10.8779 7.70096 11.0342 8.31737 11.0342 8.96661V9.93103C11.0342 11.194 10.4067 12.3796 9.37844 13.0972V13.3615L11.5859 13.9141L13.7928 13.3615V13.0967C12.7645 12.3785 12.1376 11.1939 12.1376 9.93103V8.82758C12.1376 7.77372 12.5542 6.78965 13.3106 6.05578C14.0664 5.32192 15.0622 4.93696 16.1182 4.9671C18.1824 5.02965 19.8618 6.8233 19.8618 8.96661V9.93103C19.8618 11.194 19.2343 12.3796 18.206 13.0972V13.3615L20.4135 13.9141L22.6204 13.3615V13.0967ZM6.62037 16.8685L5.36203 16.1347L3.41699 23.9141L4.50292 24.2759H4.54927L6.62037 17.0261V16.8685Z" fill="#1FA9F3"/>
<path d="M11.736 15.0135C11.3777 15.1029 11.0597 15.3096 10.8326 15.6007C10.6054 15.8918 10.4822 16.2505 10.4825 16.6197V16.783L10.7987 16.7129C11.9638 16.4548 13.1958 16.5093 14.3341 16.874L16.8316 17.6722C17.108 17.6827 17.3833 17.7132 17.6501 17.7895L21.0425 18.7587H21.3805L21.5169 18.687V16.6197C21.5169 15.859 21.001 15.1984 20.2634 15.0135L17.1036 14.224L17.1015 12.478L17.3774 12.3185C18.2292 11.8253 18.7583 10.9104 18.7583 9.93112V8.96671C18.7583 7.41416 17.559 6.11485 16.0845 6.07064C15.34 6.04161 14.6188 6.32388 14.0787 6.84761C13.5385 7.37161 13.2411 8.07526 13.2411 8.82768V9.93112C13.2411 10.9104 13.7696 11.8253 14.621 12.3175L14.8963 12.4766V14.224L11.736 15.0135ZM22.0687 8.82768V9.93112C22.0687 10.9104 22.5972 11.8253 23.4485 12.3175L23.7239 12.4766V14.224L21.8303 14.6971C22.3203 15.1989 22.6204 15.8775 22.6204 16.6197V18.106L28.6878 14.9125L25.9312 14.224L25.9292 12.478L26.205 12.3185C27.0568 11.8253 27.5859 10.9104 27.5859 9.93112V8.96671C27.5859 7.41416 26.3866 6.11485 24.9121 6.07064C24.1635 6.04161 23.4469 6.32388 22.9063 6.84761C22.3661 7.37161 22.0687 8.07526 22.0687 8.82768ZM17.2101 21.8048C16.8537 21.4842 16.2998 21.4295 15.8871 21.6773L13.8324 22.9093C13.5456 23.0817 13.2172 23.1727 12.8825 23.1725C11.8634 23.1725 11.0342 22.3433 11.0342 21.3242V21.2151C11.0342 20.5109 11.4254 19.8775 12.056 19.562L14.8114 18.1844L13.9986 17.9244C13.0452 17.6194 12.0151 17.572 11.0385 17.7905L7.31385 18.6186L5.82812 23.8185L7.52316 24.8355C7.57164 24.7703 7.61957 24.7046 7.6775 24.6466L8.64737 23.6768C8.96681 23.3562 9.41054 23.1725 9.86392 23.1725C10.7925 23.1725 11.5474 23.9128 11.5798 24.8339C12.4798 24.8656 13.2031 25.5891 13.235 26.4891C14.135 26.5208 14.8583 27.2442 14.8901 28.1442C15.5428 28.1674 16.1002 28.554 16.3715 29.1084L17.6029 30.1348C17.7658 30.2703 17.971 30.3446 18.1829 30.3449C18.5003 30.3449 18.7583 30.0868 18.7583 29.7695C18.7584 29.6851 18.74 29.6018 18.7042 29.5254C18.6684 29.4489 18.6163 29.3814 18.5514 29.3274L15.646 26.9066L16.3529 26.0586L19.3496 28.5556C19.4527 28.6422 19.583 28.6896 19.7176 28.6897H19.8381C20.1554 28.6897 20.4135 28.4317 20.4135 28.1143C20.4136 28.0299 20.3951 27.9466 20.3594 27.8702C20.3236 27.7938 20.2715 27.7262 20.2066 27.6722L17.3012 25.2515L18.0081 24.4034L21 26.8966C21.1065 26.9856 21.2408 27.0344 21.3796 27.0346H21.475C21.8028 27.0346 22.0687 26.7687 22.0687 26.4413C22.0686 26.3581 22.0511 26.2759 22.0172 26.1999C21.9834 26.1239 21.934 26.0558 21.8723 26.0001L17.2101 21.8048Z" fill="#1FA9F3"/>
<path d="M21.6531 19.8621L20.8139 19.8411L17.3468 18.8507C16.7792 18.6875 16.1539 18.7471 15.6273 19.0102L12.5497 20.5491C12.2953 20.6765 12.1375 20.9313 12.1375 21.215V21.3241C12.1375 21.7346 12.4713 22.069 12.8823 22.069C13.017 22.069 13.1488 22.0326 13.2641 21.9637L15.3193 20.7312C15.6644 20.5235 16.0596 20.4137 16.4624 20.4138C17.0115 20.4134 17.5412 20.6167 17.949 20.9844L22.6098 25.1797C22.6429 25.2093 22.6744 25.2398 22.7046 25.2718L31.9995 20.6245V14.4165L21.6531 19.8621ZM16.3945 30.5649C16.3097 30.7543 16.1948 30.9297 16.0469 31.0776L15.6326 31.492L16.0453 31.8559C16.1501 31.9488 16.2854 32.0001 16.4255 32H16.5275C16.8449 32 17.103 31.742 17.103 31.4246C17.1031 31.3402 17.0846 31.2569 17.0488 31.1805C17.0131 31.1041 16.9609 31.0365 16.8961 30.9825L16.3945 30.5649ZM14.8293 29.2414C14.6653 29.2418 14.5081 29.3068 14.3917 29.4224L13.4219 30.3923C13.3064 30.5086 13.2413 30.6657 13.2409 30.8297C13.2409 31.1708 13.5184 31.4482 13.8595 31.4482C14.0234 31.4478 14.1807 31.3828 14.297 31.2672L15.2668 30.2973C15.3823 30.1811 15.4474 30.0239 15.4478 29.86C15.4478 29.5189 15.1704 29.2415 14.8293 29.2415V29.2414ZM12.1375 26.5496C12.1375 26.2085 11.86 25.9311 11.5189 25.9311C11.3549 25.9314 11.1977 25.9965 11.0814 26.1121L10.1116 27.082C9.99604 27.1982 9.93099 27.3554 9.93056 27.5193C9.93056 27.8604 10.208 28.1379 10.5491 28.1379C10.7131 28.1375 10.8703 28.0724 10.9866 27.9568L11.9564 26.987C12.072 26.8707 12.137 26.7136 12.1375 26.5497V26.5496ZM13.7926 28.2048C13.7926 27.8637 13.5152 27.5862 13.1741 27.5862C13.0101 27.5866 12.8529 27.6517 12.7366 27.7673L11.7668 28.7371C11.6512 28.8534 11.5862 29.0106 11.5857 29.1745C11.5857 29.5156 11.8632 29.7931 12.2043 29.7931C12.3683 29.7927 12.5255 29.7276 12.6418 29.612L13.6116 28.6422C13.7271 28.5259 13.7922 28.3688 13.7926 28.2048V28.2048ZM10.4823 24.8944C10.4823 24.5533 10.2048 24.2759 9.86374 24.2759C9.69975 24.2763 9.54253 24.3413 9.42622 24.4569L8.45643 25.4268C8.34086 25.5431 8.27581 25.7002 8.27539 25.8642C8.27539 26.2053 8.55284 26.4827 8.89394 26.4827C9.05793 26.4823 9.21514 26.4173 9.33146 26.3017L10.3013 25.3318C10.4168 25.2155 10.4818 25.0584 10.4823 24.8945V24.8944Z" fill="#1FA9F3"/>
</g>
<defs>
<clipPath id="clip0_4803_1476">
<rect width="32" height="32" fill="white"/>
</clipPath>
</defs>
</svg>
