<svg width="32" height="32" viewBox="0 0 32 32" fill="none" xmlns="http://www.w3.org/2000/svg">
<path d="M23.9863 28.2415H21.5179L20.4346 23.624L12.7917 28.2415H7.45546C6.96983 28.2415 6.57617 28.6352 6.57617 29.1208C6.57617 29.6062 6.96988 29.9999 7.45546 29.9999H23.9863C24.4719 29.9999 24.8656 29.6062 24.8656 29.1208C24.8656 28.6352 24.4719 28.2415 23.9863 28.2415ZM10.7268 10.4156C10.8997 10.6454 11.1634 10.7666 11.4303 10.7666C11.6144 10.7666 11.7998 10.7089 11.9581 10.5899C12.3462 10.298 12.4242 9.74672 12.1325 9.35869C11.5516 8.586 11.2317 7.62834 11.2317 6.66173C11.2317 5.62794 11.5926 4.61792 12.2479 3.81809C12.5555 3.44253 12.5006 2.88846 12.1248 2.58068C11.7493 2.27304 11.1952 2.32802 10.8874 2.70349C9.97519 3.81678 9.47292 5.22256 9.47292 6.66173C9.47292 8.00737 9.91823 9.34046 10.7268 10.4156Z" fill="#F3A21F"/>
<path d="M8.84914 13.1265C9.04414 13.1265 9.24027 13.0621 9.40321 12.9295C9.78023 12.6234 9.83718 12.0695 9.53104 11.6926C8.37856 10.2752 7.74411 8.48847 7.74411 6.66179C7.74441 4.74992 8.4313 2.90173 9.67973 1.45373C9.99665 1.08604 9.95582 0.530849 9.58799 0.213551C9.22025 -0.103419 8.66511 -0.0624035 8.34777 0.305098C6.82403 2.07251 5.98567 4.32837 5.98535 6.66193C5.98535 8.89127 6.75987 11.0719 8.16631 12.802C8.34008 13.0157 8.59353 13.1265 8.84914 13.1265V13.1265ZM20.2081 6.66179C20.2081 7.62841 19.8884 8.58625 19.3072 9.35876C19.0154 9.74698 19.0934 10.2981 19.4816 10.59C19.6336 10.7047 19.819 10.7668 20.0095 10.7667C20.1459 10.7669 20.2805 10.7352 20.4026 10.6743C20.5247 10.6133 20.6309 10.5248 20.7128 10.4157C21.5214 9.34048 21.9669 8.00725 21.9669 6.66179C21.9669 5.22259 21.4646 3.81689 20.5524 2.70361C20.2445 2.32804 19.6907 2.27311 19.3147 2.58075C18.9394 2.88853 18.8843 3.44245 19.1921 3.81797C19.8474 4.61813 20.2081 5.62801 20.2081 6.66179Z" fill="#F3A21F"/>
<path d="M23.696 6.66176C23.696 8.48844 23.0616 10.2752 21.9093 11.6926C21.6028 12.0695 21.6601 12.6233 22.0369 12.9295C22.1934 13.0571 22.3891 13.1267 22.591 13.1265C22.8465 13.1265 23.1001 13.0155 23.2738 12.8018C24.6802 11.0719 25.4548 8.89128 25.4548 6.66176C25.4545 4.32821 24.6161 2.07238 23.0923 0.305013C22.775 -0.0628161 22.2198 -0.103644 21.852 0.213513C21.4845 0.530436 21.4435 1.08586 21.7604 1.45369C23.0089 2.90165 23.6958 4.74987 23.696 6.66176ZM10.0068 27.8695L18.2456 22.8917L11.8487 20.0192L10.0068 27.8695ZM19.9951 21.7499L18.8141 16.7154L14.1917 19.1437L19.9951 21.7499ZM15.7189 9.41956C17.2395 9.41956 18.4768 8.18248 18.4768 6.66176C18.4768 5.14127 17.2395 3.90418 15.7189 3.90418C14.1985 3.90418 12.9612 5.14122 12.9612 6.66176C12.9612 8.18248 14.1985 9.41956 15.7189 9.41956ZM17.4353 10.8384C16.891 11.0631 16.3077 11.1785 15.7189 11.1781C15.1301 11.1785 14.547 11.0631 14.0028 10.8384L12.2853 18.159L18.3992 14.9469L17.4353 10.8384Z" fill="#F3A21F"/>
</svg>
