<svg width="32" height="32" viewBox="0 0 32 32" fill="none" xmlns="http://www.w3.org/2000/svg">
<path d="M27.1736 6.53332C25.9937 5.35126 24.4467 4.60569 22.7869 4.41912C21.1272 4.23255 19.4533 4.61606 18.0403 5.50665L21.0003 8.51998C21.1186 8.65085 21.2097 8.80387 21.2684 8.97019C21.3271 9.13651 21.3522 9.31282 21.3423 9.48892C21.3323 9.66502 21.2876 9.83739 21.2106 9.99607C21.1336 10.1547 21.0258 10.2966 20.8936 10.4133C20.6471 10.6307 20.329 10.7495 20.0003 10.7467C19.812 10.7481 19.6255 10.7096 19.4532 10.6338C19.2808 10.5579 19.1265 10.4464 19.0003 10.3067L15.2403 6.53332C14.7011 5.99462 14.0801 5.54462 13.4003 5.19998C12.0133 4.48944 10.4371 4.23576 8.89725 4.47525C7.35736 4.71473 5.93266 5.43511 4.82697 6.53332C3.44337 8.14382 2.68262 10.1968 2.68262 12.32C2.68262 14.4432 3.44337 16.4962 4.82697 18.1067C7.30697 20.7733 13.3336 26.9467 16.0403 26.9467C18.147 26.9467 22.2803 23.2 25.147 20.28C25.867 19.56 26.4803 18.9467 27.0136 18.3467L27.2136 18.1333C28.5988 16.5162 29.3568 14.4552 29.3495 12.3259C29.3422 10.1966 28.57 8.14086 27.1736 6.53332ZM18.667 18H17.3336V19.3333C17.3336 19.6869 17.1932 20.0261 16.9431 20.2761C16.6931 20.5262 16.3539 20.6667 16.0003 20.6667C15.6467 20.6667 15.3075 20.5262 15.0575 20.2761C14.8075 20.0261 14.667 19.6869 14.667 19.3333V18H13.3336C12.98 18 12.6409 17.8595 12.3908 17.6095C12.1408 17.3594 12.0003 17.0203 12.0003 16.6667C12.0003 16.313 12.1408 15.9739 12.3908 15.7238C12.6409 15.4738 12.98 15.3333 13.3336 15.3333H14.667V14C14.667 13.6464 14.8075 13.3072 15.0575 13.0572C15.3075 12.8071 15.6467 12.6667 16.0003 12.6667C16.3539 12.6667 16.6931 12.8071 16.9431 13.0572C17.1932 13.3072 17.3336 13.6464 17.3336 14V15.3333H18.667C19.0206 15.3333 19.3597 15.4738 19.6098 15.7238C19.8598 15.9739 20.0003 16.313 20.0003 16.6667C20.0003 17.0203 19.8598 17.3594 19.6098 17.6095C19.3597 17.8595 19.0206 18 18.667 18Z" fill="#39C0FA"/>
</svg>
