<svg width="32" height="32" viewBox="0 0 32 32" fill="none" xmlns="http://www.w3.org/2000/svg">
<g clip-path="url(#clip0_4803_1504)">
<path d="M31.0621 30.125H30.0621V11.6252C30.0621 11.1075 29.6423 10.6877 29.1246 10.6877H25.3747C24.8569 10.6877 24.4372 11.1075 24.4372 11.6252V30.125H22.5622V17.8751C22.5622 17.3574 22.1424 16.9377 21.6247 16.9377H17.8748C17.357 16.9377 16.9373 17.3574 16.9373 17.8751V30.125H15.0623V21.3126C15.0623 20.7949 14.6426 20.3751 14.1248 20.3751H10.3749C9.85712 20.3751 9.43737 20.7949 9.43737 21.3126V30.125H7.5624V23.5626C7.5624 23.0448 7.14265 22.6251 6.62491 22.6251H2.87496C2.35722 22.6251 1.93747 23.0448 1.93747 23.5626V30.125H0.937487C0.419744 30.125 0 30.5447 0 31.0625C0 31.5802 0.419744 32 0.937487 32H31.0621C31.5798 32 31.9996 31.5802 31.9996 31.0625C31.9996 30.5447 31.5798 30.125 31.0621 30.125Z" fill="#8F5DBF"/>
<path d="M0.937487 20.1442C6.78853 20.1442 13.1336 18.0428 18.8039 14.2272C23.2447 11.2388 26.9466 7.42115 29.2461 3.51202L30.1566 6.90991C30.2688 7.32878 30.8108 7.69065 31.3048 7.57277C31.8084 7.45265 32.1016 6.92472 31.9676 6.4246L30.4325 0.695304C30.2984 0.195248 29.7846 -0.101623 29.2843 0.0324381L23.555 1.5676C23.0549 1.7016 22.7581 2.21566 22.8921 2.71578C23.0262 3.21589 23.54 3.51277 24.0403 3.37864L27.7312 2.38966C25.5859 6.11748 22.0404 9.78918 17.7571 12.6716C12.3929 16.2813 6.4196 18.2692 0.937487 18.2692C0.419744 18.2692 0 18.6889 0 19.2067C0 19.7244 0.419744 20.1442 0.937487 20.1442Z" fill="#8F5DBF"/>
</g>
<defs>
<clipPath id="clip0_4803_1504">
<rect width="32" height="32" fill="white"/>
</clipPath>
</defs>
</svg>
