<svg width="26" height="29" viewBox="0 0 26 29" fill="none" xmlns="http://www.w3.org/2000/svg">
<path d="M23.9093 3.65839C22.1217 3.46807 20.3623 3.07028 18.6667 2.47306C17.1107 1.92316 15.6181 1.20796 14.2147 0.339727C13.8485 0.117506 13.4283 0 13 0C12.5717 0 12.1515 0.117506 11.7853 0.339727L11.784 0.341061C10.3808 1.20859 8.88875 1.92334 7.33333 2.47306C5.63854 3.07004 3.88006 3.46782 2.09333 3.65839C1.51939 3.71685 0.98755 3.98621 0.600825 4.41432C0.214099 4.84242 3.42012e-06 5.39881 0 5.97573V12.9024C0.000971614 15.4584 0.68504 17.9677 1.9814 20.1706C3.27776 22.3735 5.1393 24.1898 7.37333 25.4317L11.8667 27.9291C12.2127 28.1237 12.603 28.2259 13 28.2259C13.397 28.2259 13.7873 28.1237 14.1333 27.9291L18.6267 25.4317C20.8607 24.1898 22.7222 22.3735 24.0186 20.1706C25.315 17.9677 25.999 15.4584 26 12.9024V5.97706C26.0007 5.4001 25.7873 4.8434 25.4011 4.41479C25.0148 3.98619 24.4833 3.71751 23.9093 3.65839ZM18.3053 11.6611L13.3053 16.9944C13.0678 17.2478 12.7407 17.3984 12.3937 17.414C12.0468 17.4297 11.7074 17.3093 11.448 17.0784L8.448 14.4117C8.3105 14.2974 8.19739 14.1566 8.11541 13.9977C8.03343 13.8388 7.98425 13.665 7.9708 13.4867C7.95735 13.3084 7.9799 13.1292 8.03711 12.9598C8.09432 12.7904 8.18502 12.6342 8.30381 12.5006C8.42261 12.367 8.56707 12.2586 8.7286 12.1819C8.89014 12.1052 9.06545 12.0618 9.2441 12.0543C9.42275 12.0467 9.60109 12.0752 9.76852 12.138C9.93594 12.2008 10.089 12.2966 10.2187 12.4197L12.2493 14.2237L16.3613 9.83706C16.4861 9.70433 16.6367 9.59849 16.8038 9.52604C16.971 9.45359 17.1512 9.41605 17.3333 9.41573C17.5934 9.41559 17.8479 9.49154 18.0654 9.63423C18.2829 9.77691 18.4539 9.9801 18.5574 10.2188C18.6608 10.4574 18.6922 10.7211 18.6477 10.9774C18.6031 11.2337 18.4833 11.4713 18.3053 11.6611Z" fill="#0BAE80"/>
</svg>
