<svg width="48" height="37" viewBox="0 0 48 37" fill="none" xmlns="http://www.w3.org/2000/svg">
<path d="M17.6029 36.0995C12.8779 36.0995 8.52353 34.0995 5.18824 30.4995C1.85294 26.8995 0 22.0995 0 17.0995C0 14.3995 2.03824 12.1995 4.53971 12.1995C7.04118 12.1995 9.07941 14.3995 9.07941 17.0995C9.07941 22.1995 12.8779 26.2995 17.6029 26.2995C22.3279 26.2995 26.1265 22.1995 26.1265 17.0995C26.1265 14.3995 28.1647 12.1995 30.6662 12.1995C33.1676 12.1995 35.2059 14.3995 35.2059 17.0995C35.2059 27.4995 27.3309 36.0995 17.6029 36.0995ZM4.53971 13.6995C2.77941 13.6995 1.38971 15.1995 1.38971 17.0995C1.38971 21.7995 3.05735 26.0995 6.11471 29.4995C9.17206 32.7995 13.2485 34.5995 17.6029 34.5995C26.4971 34.5995 33.8162 26.7995 33.8162 17.0995C33.8162 15.1995 32.4265 13.6995 30.6662 13.6995C28.9059 13.6995 27.5162 15.1995 27.5162 17.0995C27.5162 22.9995 23.0691 27.7995 17.6029 27.7995C12.1368 27.7995 7.6897 22.9995 7.6897 17.0995C7.6897 15.1995 6.3 13.6995 4.53971 13.6995Z" fill="white"/>
<path d="M13.8975 18.2C13.8975 8.1 21.4945 0 30.7592 0C40.1166 0 47.621 8.2 47.621 18.2C47.621 20.5 45.9533 22.3 43.8225 22.3C41.6916 22.3 40.0239 20.5 40.0239 18.2C40.0239 12.7 35.8548 8.2 30.7592 8.2C25.6636 8.2 21.4945 12.7 21.4945 18.2C21.4945 20.5 19.8269 22.3 17.696 22.3C15.5651 22.3 13.8975 20.5 13.8975 18.2Z" fill="white"/>
</svg>
