<svg width="28" height="28" viewBox="0 0 28 28" fill="none" xmlns="http://www.w3.org/2000/svg">
<path d="M5.219 11.375C5.14413 11.3771 5.06999 11.3599 5.00368 11.3251C4.93737 11.2902 4.8811 11.239 4.84027 11.1762C4.79944 11.1134 4.77541 11.0412 4.77048 10.9665C4.76555 10.8917 4.77989 10.817 4.81212 10.7494C5.82083 8.49945 7.62055 6.69818 9.86962 5.68752C9.97579 5.63995 10.0965 5.6365 10.2052 5.67793C10.3139 5.71937 10.4017 5.80229 10.4493 5.90846C10.4969 6.01463 10.5003 6.13535 10.4589 6.24406C10.4175 6.35277 10.3345 6.44057 10.2284 6.48815C8.1776 7.41179 6.53688 9.05562 5.61712 11.1081C5.58392 11.1865 5.52857 11.2535 5.45786 11.301C5.38714 11.3484 5.30413 11.3741 5.219 11.375ZM22.7802 11.375C22.6961 11.3748 22.6138 11.3504 22.5432 11.3046C22.4725 11.2588 22.4166 11.1937 22.3821 11.1169C21.4647 9.06832 19.8291 7.42647 17.784 6.50127C17.7306 6.47771 17.6823 6.44387 17.6419 6.40166C17.6016 6.35945 17.57 6.3097 17.5488 6.25526C17.5277 6.20082 17.5175 6.14276 17.5188 6.08438C17.5201 6.026 17.5329 5.96845 17.5565 5.91502C17.5801 5.86159 17.6139 5.81332 17.6561 5.77297C17.6983 5.73262 17.7481 5.70098 17.8025 5.67985C17.8569 5.65873 17.915 5.64853 17.9734 5.64985C18.0318 5.65116 18.0893 5.66396 18.1427 5.68752C20.3869 6.7008 22.1816 8.50175 23.1871 10.7494C23.2194 10.817 23.2337 10.8917 23.2288 10.9665C23.2238 11.0412 23.1998 11.1134 23.159 11.1762C23.1181 11.239 23.0619 11.2902 22.9956 11.3251C22.9293 11.3599 22.8551 11.3771 22.7802 11.375ZM15.7496 25.3356C15.6336 25.3409 15.5202 25.2998 15.4345 25.2214C15.3488 25.1431 15.2977 25.0339 15.2924 24.9178C15.2872 24.8018 15.3283 24.6884 15.4067 24.6027C15.485 24.517 15.5942 24.4659 15.7102 24.4606C17.094 24.339 18.4318 23.9029 19.6214 23.1856C20.811 22.4684 21.8211 21.4889 22.5746 20.3219C22.6384 20.2244 22.7384 20.1563 22.8524 20.1325C22.9089 20.1207 22.9671 20.1202 23.0238 20.1309C23.0805 20.1416 23.1345 20.1634 23.1827 20.195C23.231 20.2266 23.2726 20.2674 23.3051 20.3151C23.3376 20.3627 23.3604 20.4163 23.3721 20.4728C23.3839 20.5293 23.3845 20.5875 23.3737 20.6442C23.363 20.7009 23.3412 20.7549 23.3096 20.8031C22.4832 22.0808 21.3763 23.1531 20.0731 23.9385C18.7699 24.7239 17.3047 25.2017 15.789 25.3356H15.7496Z" fill="white"/>
<path d="M14.875 24.0625H13.125C12.6418 24.0625 12.25 24.4543 12.25 24.9375C12.25 25.4207 12.6418 25.8125 13.125 25.8125H14.875C15.3582 25.8125 15.75 25.4207 15.75 24.9375C15.75 24.4543 15.3582 24.0625 14.875 24.0625Z" fill="white"/>
<path d="M9.9967 5.99377L10.0842 6.16877C10.186 6.37122 10.3623 6.5263 10.5761 6.60137C10.7899 6.67644 11.0245 6.66565 11.2305 6.57127C13.0101 5.8386 15.0071 5.8386 16.7867 6.57127C16.9926 6.6673 17.2279 6.67946 17.4426 6.60515C17.6574 6.53085 17.8348 6.37592 17.9373 6.17314L18.0292 5.99377C18.0808 5.88891 18.1108 5.77478 18.1175 5.65812C18.1243 5.54146 18.1076 5.42463 18.0684 5.31453C18.0293 5.20443 17.9685 5.10328 17.8896 5.01706C17.8107 4.93084 17.7154 4.86129 17.6092 4.81252C16.4718 4.32333 15.2467 4.07104 14.0086 4.07104C12.7705 4.07104 11.5453 4.32333 10.408 4.81252C10.3025 4.86209 10.2081 4.93222 10.1301 5.01879C10.0521 5.10536 9.99223 5.20663 9.95392 5.31666C9.91562 5.42669 9.89967 5.54326 9.90701 5.65953C9.91436 5.7758 9.94485 5.88944 9.9967 5.99377Z" fill="white"/>
<path d="M4.8125 12.6875H3.9375C2.971 12.6875 2.1875 13.471 2.1875 14.4375V18.8125C2.1875 19.779 2.971 20.5625 3.9375 20.5625H4.8125C5.779 20.5625 6.5625 19.779 6.5625 18.8125V14.4375C6.5625 13.471 5.779 12.6875 4.8125 12.6875Z" fill="#E26730"/>
<path d="M24.0625 12.6875H23.1875C22.221 12.6875 21.4375 13.471 21.4375 14.4375V18.8125C21.4375 19.779 22.221 20.5625 23.1875 20.5625H24.0625C25.029 20.5625 25.8125 19.779 25.8125 18.8125V14.4375C25.8125 13.471 25.029 12.6875 24.0625 12.6875Z" fill="#E26730"/>
<path d="M9.1875 17.0625C9.01444 17.0625 8.84527 17.0112 8.70138 16.915C8.55748 16.8189 8.44533 16.6822 8.37911 16.5223C8.31288 16.3625 8.29555 16.1865 8.32931 16.0168C8.36308 15.8471 8.44641 15.6912 8.56878 15.5688C8.69115 15.4464 8.84706 15.3631 9.0168 15.3293C9.18653 15.2956 9.36246 15.3129 9.52235 15.3791C9.68223 15.4453 9.81889 15.5575 9.91504 15.7014C10.0112 15.8453 10.0625 16.0144 10.0625 16.1875C10.0625 16.4196 9.97031 16.6421 9.80622 16.8062C9.64212 16.9703 9.41956 17.0625 9.1875 17.0625ZM14 17.0625C13.8269 17.0625 13.6578 17.0112 13.5139 16.915C13.37 16.8189 13.2578 16.6822 13.1916 16.5223C13.1254 16.3625 13.1081 16.1865 13.1418 16.0168C13.1756 15.8471 13.2589 15.6912 13.3813 15.5688C13.5037 15.4464 13.6596 15.3631 13.8293 15.3293C13.999 15.2956 14.175 15.3129 14.3348 15.3791C14.4947 15.4453 14.6314 15.5575 14.7275 15.7014C14.8237 15.8453 14.875 16.0144 14.875 16.1875C14.875 16.4196 14.7828 16.6421 14.6187 16.8062C14.4546 16.9703 14.2321 17.0625 14 17.0625ZM18.8125 17.0625C18.6394 17.0625 18.4703 17.0112 18.3264 16.915C18.1825 16.8189 18.0703 16.6822 18.0041 16.5223C17.9379 16.3625 17.9206 16.1865 17.9543 16.0168C17.9881 15.8471 18.0714 15.6912 18.1938 15.5688C18.3162 15.4464 18.4721 15.3631 18.6418 15.3293C18.8115 15.2956 18.9875 15.3129 19.1473 15.3791C19.3072 15.4453 19.4439 15.5575 19.54 15.7014C19.6362 15.8453 19.6875 16.0144 19.6875 16.1875C19.6875 16.4196 19.5953 16.6421 19.4312 16.8062C19.2671 16.9703 19.0446 17.0625 18.8125 17.0625Z" fill="white"/>
</svg>
