<svg width="25" height="26" viewBox="0 0 25 26" fill="none" xmlns="http://www.w3.org/2000/svg">
<path d="M21.9417 17.3874C22.0232 17.3994 22.1062 17.3817 22.1758 17.3376C22.2453 17.2935 22.2967 17.2258 22.3205 17.147C22.3443 17.0682 22.339 16.9834 22.3056 16.9081C22.2721 16.8329 22.2127 16.7722 22.1382 16.737L13.7599 12.7536L12.8797 12.5238C12.8298 12.5579 12.7898 12.6046 12.7637 12.659C12.7376 12.7135 12.7263 12.774 12.7311 12.8342C12.7358 12.8944 12.7563 12.9524 12.7906 13.0021C12.8248 13.0519 12.8716 13.0917 12.9262 13.1176L21.8434 17.3573C21.8745 17.3721 21.9076 17.3822 21.9417 17.3874ZM2.84145 15.8104C2.75926 15.8104 2.6798 15.7809 2.6175 15.7273C2.55519 15.6737 2.51418 15.5996 2.5019 15.5183C2.48962 15.437 2.5069 15.3541 2.55059 15.2844C2.59429 15.2148 2.6615 15.1632 2.74002 15.1389L11.6018 12.3944L3.86372 5.26338C3.82891 5.2333 3.8005 5.19654 3.78017 5.15527C3.75985 5.114 3.74803 5.06906 3.7454 5.02314C3.74278 4.97721 3.74941 4.93122 3.7649 4.88791C3.78039 4.84459 3.80443 4.80483 3.83559 4.77099C3.86674 4.73714 3.90438 4.7099 3.94627 4.69088C3.98815 4.67186 4.03344 4.66145 4.07942 4.66027C4.12541 4.65909 4.17117 4.66716 4.21397 4.684C4.25678 4.70085 4.29577 4.72612 4.32862 4.75832L12.5062 12.2935C12.5506 12.3344 12.5834 12.3862 12.6014 12.4439C12.6194 12.5015 12.6218 12.5628 12.6085 12.6217C12.5953 12.6805 12.5667 12.7349 12.5257 12.7792C12.4848 12.8235 12.4328 12.8562 12.3752 12.8741L2.94341 15.7956C2.91052 15.8055 2.87633 15.8105 2.84198 15.8104H2.84145Z" fill="#5B5E8B"/>
<path d="M11.7406 14.347C11.6714 14.3436 11.6049 14.3193 11.5498 14.2773C11.4947 14.2353 11.4537 14.1775 11.4321 14.1117C11.4105 14.0459 11.4094 13.9751 11.4289 13.9086C11.4484 13.8421 11.4877 13.7831 11.5414 13.7394L21.2268 5.72511C21.297 5.66696 21.3874 5.63908 21.4781 5.6476C21.5689 5.65612 21.6525 5.70035 21.7107 5.77054C21.7688 5.84074 21.7967 5.93116 21.7882 6.02191C21.7797 6.11267 21.7355 6.19632 21.6653 6.25447L11.9783 14.2683C11.9115 14.3236 11.8261 14.3515 11.7395 14.3465L11.7406 14.347ZM12.3877 12.8894C12.2967 12.8894 12.2093 12.8532 12.1449 12.7888C12.0805 12.7244 12.0444 12.6371 12.0444 12.546V4.08632C12.0444 3.99524 12.0805 3.9079 12.1449 3.8435C12.2093 3.7791 12.2967 3.74292 12.3877 3.74292C12.4788 3.74292 12.5662 3.7791 12.6306 3.8435C12.695 3.9079 12.7311 3.99524 12.7311 4.08632V12.546C12.7311 12.6371 12.695 12.7244 12.6306 12.7888C12.5662 12.8532 12.4788 12.8894 12.3877 12.8894Z" fill="#5B5E8B"/>
<path d="M12.2731 18.1561C15.3715 18.1561 17.8832 15.6444 17.8832 12.5461C17.8832 9.44773 15.3715 6.93604 12.2731 6.93604C9.17479 6.93604 6.66309 9.44773 6.66309 12.5461C6.66309 15.6444 9.17479 18.1561 12.2731 18.1561Z" fill="#DEDDFF"/>
<path d="M13.0891 18.0933C12.8207 18.1324 12.5524 18.1551 12.2729 18.1551C9.17598 18.1551 6.66602 15.6451 6.66602 12.5482C6.66602 9.44551 9.17598 6.93555 12.2729 6.93555C12.4911 6.93555 12.7093 6.94664 12.9269 6.97464C10.2157 7.36558 8.131 9.70279 8.131 12.5202C8.131 15.3995 10.2997 17.7694 13.0891 18.0938V18.0933Z" fill="#C6C6F7"/>
<path d="M24.9445 5.6064C24.904 6.31473 24.6102 6.98489 24.1166 7.49455C24.1166 7.50036 24.1161 7.5067 24.1098 7.50618C23.8116 7.81837 23.449 8.06185 23.0472 8.21969C22.6454 8.37753 22.214 8.44593 21.7831 8.42014C20.9908 8.37398 20.2493 8.01508 19.7216 7.42236C19.1939 6.82964 18.9231 6.0516 18.9688 5.25931C19.0639 3.62369 20.4777 2.34889 22.1302 2.44504C22.9226 2.4912 23.6642 2.85017 24.1919 3.44301C24.7197 4.03585 24.9904 4.81402 24.9445 5.6064Z" fill="#65B9FF"/>
<path d="M22.2776 8.40535C22.1139 8.42753 21.9511 8.43018 21.7831 8.42067C20.9908 8.37451 20.2492 8.01554 19.7214 7.4227C19.1937 6.82986 18.923 6.05169 18.9689 5.25931C19.064 3.62369 20.4777 2.34889 22.1302 2.44504C22.3046 2.45508 22.4715 2.47727 22.6321 2.51795C21.2305 2.65848 20.0461 3.8144 19.9589 5.31689C19.9179 6.02272 20.1283 6.72025 20.5528 7.28566C20.9773 7.85107 21.5884 8.24777 22.2776 8.40535Z" fill="#3E7FFF"/>
<path d="M2.75509 18.2643C4.27669 18.2643 5.51019 17.0308 5.51019 15.5092C5.51019 13.9876 4.27669 12.7542 2.75509 12.7542C1.2335 12.7542 0 13.9876 0 15.5092C0 17.0308 1.2335 18.2643 2.75509 18.2643Z" fill="#46CC6B"/>
<path d="M3.24406 18.2211C3.08404 18.2529 2.92117 18.2681 2.75803 18.2665C2.0275 18.266 1.32706 17.9755 0.810498 17.459C0.293938 16.9424 0.00349064 16.242 0.00293096 15.5114C0.00258347 15.1495 0.073609 14.7911 0.211942 14.4567C0.350276 14.1223 0.553201 13.8184 0.809104 13.5625C1.06501 13.3066 1.36887 13.1037 1.70329 12.9654C2.03771 12.827 2.39612 12.756 2.75803 12.7563C2.92655 12.7563 3.08874 12.769 3.24406 12.8013C2.60777 12.9146 2.03166 13.2482 1.61677 13.7438C1.20188 14.2393 0.974677 14.8651 0.975006 15.5114C0.975006 16.8597 1.95395 17.9945 3.24406 18.2211Z" fill="#34BA5D"/>
<path d="M4.11722 15.177L3.8816 15.0793C3.86469 15.0793 3.86469 15.074 3.85888 15.0676V15.0449L3.97352 14.8093C4.00258 14.7522 3.98515 14.6772 3.93918 14.626L3.66394 14.3444C3.63953 14.3221 3.60939 14.3071 3.5769 14.301C3.54442 14.295 3.51089 14.2981 3.48009 14.31L3.24447 14.4136H3.22756C3.22175 14.4136 3.21013 14.4078 3.21013 14.402L3.1182 14.1553C3.10696 14.1243 3.08681 14.0975 3.06029 14.078C3.03377 14.0585 3.00208 14.0474 2.96922 14.0459H2.573C2.53989 14.0461 2.50757 14.056 2.48006 14.0744C2.45254 14.0928 2.43103 14.1189 2.4182 14.1494L2.32628 14.3904C2.32628 14.402 2.31466 14.402 2.30885 14.4078H2.28613L2.05632 14.2926C2.02602 14.2798 1.99273 14.2757 1.96024 14.2808C1.92774 14.286 1.89733 14.3001 1.87247 14.3217L1.59141 14.6027C1.53964 14.6545 1.52802 14.7295 1.55707 14.7808L1.66009 15.0217C1.6659 15.0275 1.66009 15.0391 1.66009 15.0449C1.66009 15.0449 1.65481 15.0565 1.63737 15.0565C1.54386 15.103 1.29292 15.1252 1.29292 15.2974L1.28711 15.6937C1.28711 15.7624 1.32726 15.8199 1.39066 15.8485L1.63156 15.9404C1.64318 15.9404 1.649 15.952 1.649 15.952C1.65428 15.9631 1.65428 15.9689 1.649 15.9747L1.53964 16.2104C1.52544 16.2402 1.52057 16.2737 1.52566 16.3064C1.53075 16.3391 1.54556 16.3695 1.56817 16.3937L1.84975 16.6811C1.89571 16.7265 1.96439 16.7445 2.02779 16.7096L2.26288 16.606C2.27451 16.6008 2.28613 16.606 2.28613 16.606C2.29141 16.606 2.29722 16.6119 2.30303 16.6235L2.38915 16.8644C2.41239 16.9278 2.47526 16.9737 2.53866 16.9737H2.93488C3.00356 16.979 3.06696 16.9394 3.08968 16.876L3.1816 16.6293C3.18688 16.6235 3.19322 16.6177 3.19851 16.6177C3.19851 16.6124 3.21013 16.6124 3.22175 16.6177L3.45685 16.7265C3.51443 16.7556 3.58892 16.7439 3.63488 16.698L3.92228 16.4169C3.94566 16.3944 3.96151 16.3652 3.96765 16.3333C3.9738 16.3015 3.96995 16.2685 3.95662 16.2389L3.84726 16.0033V15.9805C3.84726 15.9747 3.85888 15.9689 3.86469 15.9631L4.11141 15.877C4.14198 15.8636 4.16831 15.842 4.18757 15.8148C4.20684 15.7875 4.21832 15.7555 4.22077 15.7222V15.326C4.22163 15.2933 4.21205 15.2613 4.19342 15.2345C4.1748 15.2077 4.1481 15.1876 4.11722 15.177ZM2.75685 16.0608C2.68405 16.0614 2.61187 16.0476 2.54444 16.0201C2.47701 15.9927 2.41566 15.9523 2.36392 15.901C2.31218 15.8498 2.27106 15.7889 2.24294 15.7218C2.21481 15.6546 2.20022 15.5826 2.20002 15.5098C2.20002 15.2055 2.44673 14.953 2.75685 14.953C3.06115 14.953 3.30786 15.2055 3.30786 15.5098C3.30786 15.8141 3.06115 16.0608 2.75685 16.0608Z" fill="#179C5F"/>
<path d="M22.0705 19.8561C23.5921 19.8561 24.8256 18.6226 24.8256 17.101C24.8256 15.5794 23.5921 14.3459 22.0705 14.3459C20.5489 14.3459 19.3154 15.5794 19.3154 17.101C19.3154 18.6226 20.5489 19.8561 22.0705 19.8561Z" fill="#F879CA"/>
<path d="M15.0397 2.65208C15.0397 4.11548 13.8563 5.30416 12.3876 5.30416C12.3031 5.30416 12.2185 5.29887 12.1393 5.28831C11.4828 5.2266 10.873 4.92218 10.4291 4.43462C9.98526 3.94706 9.73926 3.31143 9.73926 2.65208C9.73926 1.99273 9.98526 1.3571 10.4291 0.869539C10.873 0.381977 11.4828 0.077565 12.1393 0.0158543C12.2185 0.00528829 12.3031 5.28351e-06 12.3876 5.28351e-06C12.7361 -0.000690964 13.0812 0.0674318 13.4033 0.200464C13.7254 0.333497 14.018 0.528821 14.2644 0.775228C14.5108 1.02163 14.7062 1.31427 14.8392 1.63635C14.9722 1.95843 15.0404 2.30361 15.0397 2.65208Z" fill="#FCB73E"/>
<path d="M13.0331 5.22078C12.7425 5.30016 12.4395 5.32347 12.1403 5.28946C11.4838 5.22775 10.874 4.92333 10.4301 4.43577C9.98624 3.94821 9.74023 3.31258 9.74023 2.65323C9.74023 1.99388 9.98624 1.35825 10.4301 0.870688C10.874 0.383126 11.4838 0.0787141 12.1403 0.0170035C12.2999 -0.00338918 12.4614 -0.00338918 12.621 0.0170035C12.046 0.156943 11.5348 0.48628 11.1697 0.952009C10.8046 1.41774 10.6068 1.99277 10.6082 2.58455C10.6082 3.96342 11.6648 5.09927 13.012 5.22078H13.0331Z" fill="#FD982E"/>
<path d="M5.97619 3.56932C5.97619 5.03271 4.79279 6.22139 3.32411 6.22139C3.23958 6.22139 3.15506 6.21611 3.07581 6.20554C2.41935 6.14383 1.80954 5.83942 1.36566 5.35186C0.921783 4.8643 0.675781 4.22867 0.675781 3.56932C0.675781 2.90997 0.921783 2.27434 1.36566 1.78677C1.80954 1.29921 2.41935 0.994801 3.07581 0.933091C3.15506 0.922524 3.23958 0.917242 3.32411 0.917242C3.67258 0.916545 4.01776 0.984668 4.33984 1.1177C4.66192 1.25073 4.95456 1.44606 5.20097 1.69246C5.44737 1.93887 5.6427 2.23151 5.77573 2.55359C5.90876 2.87567 5.97688 3.22085 5.97619 3.56932Z" fill="#E83D62"/>
<path d="M3.96962 6.13728C3.67907 6.21666 3.37606 6.23997 3.07679 6.20596C2.42033 6.14425 1.81051 5.83984 1.36664 5.35228C0.922759 4.86471 0.676758 4.22908 0.676758 3.56973C0.676758 2.91038 0.922759 2.27475 1.36664 1.78719C1.81051 1.29963 2.42033 0.995218 3.07679 0.933507C3.23639 0.913115 3.39794 0.913115 3.55754 0.933507C2.98254 1.07345 2.47135 1.40278 2.10624 1.86851C1.74113 2.33424 1.54334 2.90927 1.54471 3.50105C1.54471 4.87992 2.60131 6.01577 3.94848 6.13728H3.96962Z" fill="#CE2955"/>
<path d="M22.5745 19.8123C22.0515 19.9074 21.4915 19.8546 20.9632 19.6274C19.5738 19.0146 18.9345 17.3927 19.5474 15.998C20.0651 14.804 21.333 14.1701 22.5587 14.392C22.1159 14.474 21.7 14.6633 21.3472 14.9433C20.9945 15.2233 20.7157 15.5854 20.5353 15.998C20.2432 16.6678 20.2288 17.4262 20.4952 18.1066C20.7616 18.7871 21.2872 19.334 21.9564 19.6274C22.1572 19.7172 22.3632 19.7806 22.5745 19.8123Z" fill="#E2429A"/>
<path d="M21.0289 16.0488C20.9115 16.166 20.8183 16.3053 20.7548 16.4586C20.6912 16.6119 20.6585 16.7762 20.6585 16.9421C20.6585 17.1081 20.6912 17.2724 20.7548 17.4257C20.8183 17.579 20.9115 17.7182 21.0289 17.8355C21.228 18.036 21.4888 18.1636 21.7693 18.1978C22.0498 18.232 22.3337 18.1708 22.5752 18.0241L23.2107 18.6602C23.2388 18.6886 23.2722 18.7112 23.309 18.7266C23.3458 18.742 23.3853 18.7499 23.4252 18.7499C23.4652 18.7499 23.5047 18.742 23.5415 18.7266C23.5783 18.7112 23.6117 18.6886 23.6397 18.6602C23.6682 18.6321 23.6909 18.5987 23.7063 18.5618C23.7218 18.525 23.7298 18.4854 23.7298 18.4454C23.7298 18.4054 23.7218 18.3658 23.7063 18.329C23.6909 18.2921 23.6682 18.2587 23.6397 18.2306L23.0042 17.5951C23.3006 17.1096 23.2366 16.4698 22.8156 16.0488C22.6983 15.9314 22.5591 15.8382 22.4058 15.7747C22.2525 15.7111 22.0882 15.6784 21.9222 15.6784C21.7563 15.6784 21.592 15.7111 21.4387 15.7747C21.2854 15.8382 21.1461 15.9314 21.0289 16.0488ZM22.3861 17.406C22.3254 17.4672 22.2531 17.5159 22.1735 17.5491C22.0939 17.5823 22.0085 17.5994 21.9222 17.5994C21.836 17.5994 21.7506 17.5823 21.6709 17.5491C21.5913 17.5159 21.5191 17.4672 21.4584 17.406C21.3971 17.3453 21.3485 17.273 21.3153 17.1934C21.2821 17.1138 21.265 17.0284 21.265 16.9421C21.265 16.8559 21.2821 16.7705 21.3153 16.6908C21.3485 16.6112 21.3971 16.539 21.4584 16.4783C21.5191 16.417 21.5913 16.3684 21.6709 16.3352C21.7506 16.302 21.836 16.2849 21.9222 16.2849C22.0085 16.2849 22.0939 16.302 22.1735 16.3352C22.2531 16.3684 22.3254 16.417 22.3861 16.4783C22.4473 16.539 22.496 16.6112 22.5292 16.6908C22.5624 16.7705 22.5795 16.8559 22.5795 16.9421C22.5795 17.0284 22.5624 17.1138 22.5292 17.1934C22.496 17.273 22.4473 17.3453 22.3861 17.406ZM23.5837 6.49865L22.4146 3.7388C22.3512 3.59721 22.2334 3.50106 22.0712 3.50106H22.0252C21.8641 3.50106 21.7442 3.59774 21.6818 3.73986L20.5127 6.49918C20.4583 6.62861 20.4847 6.74642 20.564 6.82884C20.696 6.96619 20.9512 6.94401 21.05 6.73374L21.3258 6.07125H22.7707L23.048 6.73691C23.0966 6.84257 23.2002 6.91442 23.3222 6.91442C23.5235 6.91442 23.6762 6.72582 23.5837 6.49865ZM22.5398 5.52129H21.5561L22.048 4.33789L22.5398 5.52129ZM11.4418 3.74355H10.8448C10.8264 3.74355 10.8081 3.73992 10.7911 3.73285C10.7741 3.72578 10.7586 3.71542 10.7456 3.70236C10.7326 3.68931 10.7223 3.67381 10.7153 3.65676C10.7083 3.63972 10.7047 3.62145 10.7048 3.60302V2.97435C10.7048 2.89669 10.7671 2.83382 10.8448 2.83382H11.4418C11.5189 2.83382 11.5818 2.89669 11.5818 2.97382V3.60302C11.5818 3.62145 11.5783 3.63972 11.5713 3.65676C11.5643 3.67381 11.554 3.68931 11.541 3.70236C11.5279 3.71542 11.5125 3.72578 11.4955 3.73285C11.4784 3.73992 11.4602 3.74355 11.4418 3.74355ZM12.6859 3.74355H12.0889C12.0705 3.74355 12.0523 3.73992 12.0352 3.73285C12.0182 3.72578 12.0028 3.71542 11.9898 3.70236C11.9767 3.68931 11.9664 3.67381 11.9594 3.65676C11.9524 3.63972 11.9489 3.62145 11.9489 3.60302V2.38582C11.9489 2.30869 12.0113 2.24582 12.0889 2.24582H12.6859C12.7631 2.24582 12.8259 2.30869 12.8259 2.38582V3.60302C12.826 3.62145 12.8224 3.63972 12.8154 3.65676C12.8084 3.67381 12.7981 3.68931 12.7851 3.70236C12.7721 3.71542 12.7566 3.72578 12.7396 3.73285C12.7226 3.73992 12.7043 3.74355 12.6859 3.74355ZM13.9301 3.74355H13.3331C13.3147 3.74355 13.2964 3.73992 13.2794 3.73285C13.2624 3.72578 13.2469 3.71542 13.2339 3.70236C13.2209 3.68931 13.2106 3.67381 13.2036 3.65676C13.1966 3.63972 13.193 3.62145 13.1931 3.60302V1.52574C13.1931 1.44861 13.2554 1.38574 13.3331 1.38574H13.9301C14.0072 1.38574 14.0701 1.44861 14.0701 1.52574V3.60302C14.0701 3.62145 14.0666 3.63972 14.0596 3.65676C14.0526 3.67381 14.0423 3.68931 14.0293 3.70236C14.0162 3.71542 14.0008 3.72578 13.9838 3.73285C13.9667 3.73992 13.9485 3.74355 13.9301 3.74355ZM2.50977 4.12552C2.46398 4.12559 2.41965 4.1095 2.38456 4.08008L1.73264 3.53223C1.71085 3.51388 1.69334 3.491 1.68132 3.46517C1.66931 3.43935 1.66309 3.41121 1.66309 3.38272C1.66309 3.35424 1.66931 3.3261 1.68132 3.30028C1.69334 3.27445 1.71085 3.25156 1.73264 3.23321L2.38403 2.68536C2.42376 2.65202 2.4751 2.63582 2.52677 2.64032C2.57843 2.64483 2.6262 2.66968 2.65954 2.7094C2.69289 2.74912 2.70909 2.80047 2.70458 2.85214C2.70008 2.9038 2.67523 2.95156 2.6355 2.98491L2.16162 3.38272L2.6355 3.78053C2.66619 3.80638 2.68817 3.84103 2.69849 3.87979C2.7088 3.91856 2.70693 3.95956 2.69315 3.99723C2.67936 4.0349 2.65432 4.06741 2.62142 4.09036C2.58852 4.11331 2.54988 4.12559 2.50977 4.12552ZM4.13747 4.5508C4.0974 4.55076 4.05831 4.53841 4.02549 4.51542C3.99268 4.49243 3.96772 4.45991 3.954 4.42226C3.94028 4.38462 3.93846 4.34366 3.94878 4.30495C3.95911 4.26624 3.98108 4.23163 4.01173 4.20582L4.48509 3.80801L4.01173 3.41019C3.97375 3.3764 3.95043 3.32915 3.94672 3.27845C3.943 3.22775 3.95918 3.1776 3.99183 3.13863C4.02447 3.09967 4.07101 3.07495 4.12158 3.06972C4.17214 3.0645 4.22275 3.07918 4.26267 3.11065L4.9146 3.65744C4.93648 3.67579 4.95407 3.6987 4.96614 3.72458C4.97821 3.75046 4.98446 3.77866 4.98446 3.80721C4.98446 3.83577 4.97821 3.86397 4.96614 3.88985C4.95407 3.91572 4.93648 3.93864 4.9146 3.95699L4.26267 4.50431C4.22766 4.53391 4.18332 4.55019 4.13747 4.55027V4.5508ZM2.98894 5.12612C2.95917 5.12621 2.92978 5.1195 2.903 5.1065C2.87622 5.0935 2.85276 5.07456 2.83442 5.05112C2.81607 5.02768 2.80332 5.00036 2.79714 4.97124C2.79096 4.94212 2.79151 4.91197 2.79875 4.8831L3.46917 2.21201C3.48178 2.16171 3.51385 2.11847 3.55834 2.09182C3.60282 2.06517 3.65607 2.05728 3.70637 2.06989C3.75667 2.0825 3.79991 2.11458 3.82656 2.15906C3.85321 2.20355 3.8611 2.2568 3.84849 2.3071L3.1786 4.9782C3.168 5.02047 3.14358 5.05798 3.10921 5.08478C3.07485 5.11158 3.03252 5.12613 2.98894 5.12612Z" fill="#DEDDFF"/>
<path d="M10.4328 12.2472C10.623 12.1214 10.7302 11.9328 10.7302 11.6739C10.7302 11.2708 10.4528 10.937 9.83103 10.937H8.93978C8.91014 10.937 8.8808 10.9429 8.85348 10.9543C8.82615 10.9658 8.80138 10.9826 8.78062 11.0037C8.75986 11.0249 8.74353 11.05 8.73258 11.0775C8.72163 11.1051 8.71628 11.1345 8.71684 11.1641V13.457C8.71684 13.5816 8.81299 13.6794 8.93978 13.6794H9.85374C10.6018 13.6794 10.8776 13.3376 10.8776 12.8864C10.8776 12.5821 10.7064 12.3697 10.4328 12.2472ZM10.4391 12.8711C10.4391 13.1944 10.1401 13.2525 9.81993 13.2525H9.16589V12.4933H9.8231C10.4391 12.4933 10.4391 12.7776 10.4391 12.8711ZM9.16589 12.0781V11.3638H9.80461C10.0519 11.3638 10.2959 11.4558 10.2959 11.6998C10.2959 12.0126 10.0503 12.0781 9.74016 12.0781H9.16589ZM12.4192 10.937H11.558C11.5284 10.9369 11.499 10.9427 11.4716 10.9542C11.4442 10.9656 11.4194 10.9824 11.3985 11.0036C11.3777 11.0247 11.3613 11.0498 11.3504 11.0774C11.3394 11.105 11.334 11.1345 11.3346 11.1641V13.4755C11.3346 13.5378 11.3562 13.5912 11.399 13.6339C11.4418 13.6767 11.4952 13.6984 11.5575 13.6984C11.5871 13.699 11.6165 13.6936 11.6441 13.6826C11.6716 13.6717 11.6966 13.6553 11.7177 13.6346C11.7388 13.6138 11.7556 13.589 11.767 13.5617C11.7784 13.5344 11.7842 13.5051 11.7842 13.4755V12.72H12.4192C12.6659 12.72 12.8709 12.6772 13.0294 12.5932C13.3395 12.4273 13.4805 12.1526 13.4805 11.8287C13.4805 11.3332 13.1419 10.937 12.4192 10.937ZM13.031 11.8287C13.031 12.1843 12.7404 12.2894 12.3848 12.2894H11.7842V11.3675H12.3848C12.7377 11.3675 13.031 11.4716 13.031 11.8287ZM15.0934 10.8989C14.301 10.8989 13.7315 11.4394 13.7146 12.3095C13.7315 13.1595 14.2841 13.7174 15.0934 13.7174C15.9387 13.7174 16.4565 13.113 16.4723 12.3068C16.4559 11.4912 15.9266 10.8989 15.0934 10.8989ZM15.0934 13.2905C14.5123 13.2905 14.1636 12.8753 14.1636 12.3079C14.1636 11.7558 14.4991 11.3258 15.0934 11.3258C15.6677 11.3258 16.0227 11.7363 16.0227 12.3084C16.0227 12.8843 15.664 13.2905 15.0934 13.2905Z" fill="#E83D62"/>
<path d="M18.2826 15.8157L19.1115 19.8688C19.2161 20.3818 19.0682 20.9291 18.7301 21.3058C18.5489 21.5118 18.4712 21.7955 18.5261 22.065L18.8959 23.8707C18.9583 24.1761 18.7692 24.4835 18.4701 24.5543L14.6495 25.463C14.5784 25.4793 14.5048 25.481 14.4331 25.4681C14.3614 25.4552 14.293 25.428 14.2321 25.388C14.1711 25.3481 14.1189 25.2962 14.0785 25.2355C14.0381 25.1749 14.0104 25.1067 13.997 25.0351L13.6589 23.3825C13.6245 23.2022 13.5304 23.0388 13.3916 22.9187C11.8701 21.6381 10.1055 18.7161 9.59044 17.8312C9.54599 17.7543 9.53349 17.6631 9.55562 17.5771C9.57775 17.4912 9.63275 17.4173 9.70878 17.3715C11.0242 16.6071 12.2795 18.7641 12.2795 18.7641L11.1679 13.3305C11.076 12.8804 11.3544 12.4324 11.7882 12.3294C11.8908 12.3047 11.9973 12.3014 12.1012 12.3198C12.2051 12.3382 12.3041 12.3778 12.392 12.4361C12.5653 12.5497 12.6953 12.7315 12.7418 12.9565L13.1924 15.1622C13.1667 15.0378 13.1693 14.9092 13.1999 14.786C13.2306 14.6627 13.2885 14.5479 13.3694 14.45C13.4787 14.3105 13.633 14.207 13.8163 14.1632C14.249 14.0601 14.678 14.3428 14.7689 14.7871L15.0013 15.9229C14.9479 15.6619 15.0214 15.3999 15.1772 15.2087C15.2876 15.0713 15.4414 14.9678 15.6221 14.925C16.0542 14.8225 16.4837 15.1035 16.5751 15.5489L16.7061 16.1908C16.6522 15.9266 16.7257 15.6646 16.8842 15.4723C16.9783 15.3532 17.1046 15.2637 17.2482 15.2145C17.3917 15.1652 17.5464 15.1583 17.6938 15.1945C17.8411 15.2307 17.975 15.3085 18.0794 15.4186C18.1838 15.5287 18.2543 15.6666 18.2826 15.8157Z" fill="#FFAF93"/>
<path d="M16.8924 24.8396L18.7335 24.4011C18.6616 24.4753 18.5702 24.5276 18.4699 24.5522L14.645 25.4619C14.5745 25.4783 14.5013 25.4802 14.43 25.4675C14.3587 25.4548 14.2907 25.4278 14.2301 25.3881C14.1696 25.3484 14.1177 25.2968 14.0776 25.2365C14.0374 25.1762 14.01 25.1084 13.9968 25.0372L13.6576 23.381C13.6249 23.2015 13.5312 23.0387 13.3924 22.9203C11.8683 21.6397 10.1048 18.7176 9.5918 17.8306C9.5004 17.6706 9.55323 17.4598 9.70697 17.3736C9.89399 17.268 10.0757 17.2141 10.2564 17.2099C10.2163 17.2632 10.1925 17.3271 10.1881 17.3937C10.1837 17.4603 10.1988 17.5268 10.2316 17.585C10.7446 18.472 12.508 21.394 14.0322 22.6746C14.1732 22.7898 14.2609 22.9567 14.2984 23.1406C14.5467 24.3552 15.7143 25.1196 16.8924 24.8396ZM13.3692 14.45L14.3122 19.0616C14.3205 19.1034 14.3125 19.1469 14.2899 19.1831C14.2674 19.2193 14.2319 19.2455 14.1907 19.2565C14.1703 19.2613 14.1491 19.262 14.1285 19.2584C14.1079 19.2548 14.0882 19.2472 14.0706 19.2358C14.053 19.2245 14.0378 19.2097 14.026 19.1924C14.0143 19.1751 14.0061 19.1555 14.0021 19.135L13.0522 14.4902C13.049 14.4738 13.0453 14.4569 13.0453 14.4426L13.1922 15.1622C13.1665 15.0378 13.1691 14.9092 13.1997 14.786C13.2303 14.6627 13.2882 14.5479 13.3692 14.45ZM15.177 15.2087L15.7846 18.1777C15.7936 18.22 15.7861 18.2641 15.7636 18.3009C15.7411 18.3378 15.7053 18.3646 15.6636 18.3758C15.6431 18.3805 15.6219 18.381 15.6012 18.3772C15.5806 18.3734 15.5609 18.3654 15.5435 18.3537C15.526 18.342 15.5111 18.3269 15.4997 18.3093C15.4883 18.2916 15.4806 18.2719 15.4771 18.2512L15.0011 15.9235C14.9477 15.6619 15.0212 15.4004 15.177 15.2087ZM16.884 15.4728L17.3758 17.8782C17.3832 17.92 17.3749 17.9631 17.3525 17.9992C17.3301 18.0353 17.2951 18.0618 17.2543 18.0736C17.2339 18.0784 17.2129 18.0789 17.1923 18.0754C17.1717 18.0718 17.1521 18.0641 17.1345 18.0527C17.117 18.0414 17.1019 18.0266 17.0902 18.0094C17.0784 17.9921 17.0703 17.9726 17.0662 17.9521L16.7059 16.1908C16.652 15.9266 16.7255 15.6651 16.884 15.4728Z" fill="#EE8778"/>
</svg>
