<svg width="27" height="28" viewBox="0 0 27 28" fill="none" xmlns="http://www.w3.org/2000/svg">
<path d="M4.35559 17.1122C4.35559 17.1122 6.82041 10.452 6.7993 10.4449C6.77819 10.4379 6.5602 9.55024 6.5602 9.55024C6.47362 9.55879 6.38622 9.54803 6.3043 9.51874C6.22237 9.48944 6.14797 9.44233 6.08645 9.38081L5.02556 8.31993C4.7956 8.08997 4.42274 8.08997 4.19278 8.31993L2.22234 10.2904C1.99238 10.5203 1.99238 10.8932 2.22234 11.1232L3.28322 12.184C3.37351 12.2745 3.43197 12.3918 3.44977 12.5183C3.46758 12.6449 3.44377 12.7737 3.38193 12.8856C3.07502 13.442 2.83086 14.0309 2.65393 14.6413C2.61851 14.7639 2.54421 14.8716 2.44222 14.9484C2.34024 15.0251 2.21608 15.0666 2.08846 15.0666H0.588875C0.263648 15.0666 0 15.3303 0 15.6555V18.4421C0 18.7673 0.263648 19.031 0.588875 19.031H2.08841C2.35063 19.031 2.58092 19.2044 2.65387 19.4563C2.83077 20.0667 3.07493 20.6555 3.38187 21.212C3.44371 21.3238 3.46752 21.4527 3.44972 21.5792C3.43191 21.7058 3.37346 21.8231 3.28316 21.9135L2.22228 22.9744C1.99232 23.2043 1.99232 23.5772 2.22228 23.8072L4.19273 25.7776C4.42269 26.0076 4.79555 26.0076 5.02551 25.7776L6.08639 24.7167C6.1468 24.6564 6.21963 24.6099 6.29982 24.5805C6.38002 24.5512 6.46564 24.5396 6.55074 24.5468L6.79935 23.1L4.35559 17.1122Z" fill="#E26730"/>
<path d="M21.313 15.0666H19.0107C18.9738 15.0666 18.9373 15.0739 18.9032 15.088C18.8691 15.1021 18.8381 15.1228 18.8121 15.1489C18.786 15.175 18.7653 15.2059 18.7511 15.24C18.737 15.2741 18.7297 15.3107 18.7297 15.3476V16.7678C18.7297 16.9229 18.604 17.0488 18.4488 17.0488H16.9153C16.7641 17.0488 16.6417 17.1685 16.6346 17.3196C16.492 20.3632 13.9584 22.7814 10.8697 22.7384C7.80499 22.6958 5.30375 20.1946 5.26115 17.1298C5.21691 13.9501 7.7812 11.3586 10.9508 11.3586C11.5137 11.3586 12.0575 11.4405 12.571 11.5928C12.7516 11.6464 12.933 11.5126 12.933 11.3242V6.68653C12.933 6.3613 12.6693 6.09766 12.3441 6.09766H9.55751C9.23228 6.09766 8.96863 6.3613 8.96863 6.68653V8.18606C8.96863 8.44829 8.79516 8.67858 8.54333 8.75153C7.93296 8.92848 7.34413 9.17264 6.78764 9.47953C6.71732 9.51835 6.63981 9.54241 6.55987 9.55024C4.85641 11.583 3.8291 14.2005 3.8291 17.0539C3.8291 19.9022 4.85258 22.5156 6.55046 24.5467C6.63184 24.5534 6.71272 24.5767 6.78764 24.618C7.34411 24.9249 7.93295 25.1691 8.54333 25.346C8.66593 25.3814 8.7737 25.4557 8.85041 25.5577C8.92712 25.6597 8.96861 25.7838 8.96863 25.9114V27.411C8.96863 27.7362 9.23228 27.9998 9.55751 27.9998H12.3441C12.6693 27.9998 12.933 27.7362 12.933 27.411V25.9114C12.933 25.6492 13.1065 25.4189 13.3583 25.346C13.9686 25.169 14.5574 24.9249 15.1139 24.618C15.2257 24.5562 15.3546 24.5323 15.4812 24.5501C15.6077 24.5679 15.725 24.6264 15.8155 24.7167L16.8763 25.7776C17.1063 26.0075 17.4792 26.0075 17.7091 25.7776L19.6796 23.8071C19.9095 23.5771 19.9095 23.2043 19.6796 22.9743L18.6187 21.9134C18.5284 21.823 18.4699 21.7056 18.4521 21.5791C18.4343 21.4525 18.4582 21.3236 18.52 21.2118C18.8269 20.6554 19.0711 20.0665 19.248 19.4562C19.2834 19.3336 19.3577 19.2258 19.4597 19.1491C19.5617 19.0724 19.6858 19.0309 19.8134 19.0308H21.3129C21.6381 19.0308 21.9018 18.7672 21.9018 18.4419V15.6553C21.9018 15.3303 21.6382 15.0666 21.313 15.0666Z" fill="#E88B2A"/>
<path d="M16.9157 12.6909H14.7736C14.7056 12.6909 14.6404 12.718 14.5923 12.766C14.5442 12.8141 14.5172 12.8793 14.5172 12.9473V15.0894C14.5172 15.1574 14.5442 15.2226 14.5923 15.2707C14.6404 15.3187 14.7056 15.3457 14.7736 15.3457H16.9157C16.9837 15.3457 17.0489 15.3187 17.0969 15.2707C17.145 15.2226 17.172 15.1574 17.172 15.0894V12.9473C17.172 12.8793 17.145 12.8141 17.0969 12.766C17.0489 12.718 16.9837 12.6909 16.9157 12.6909ZM20.243 5.83574e-09H18.1009C18.0329 5.83574e-09 17.9677 0.0270109 17.9196 0.0750905C17.8715 0.12317 17.8445 0.18838 17.8445 0.256375V2.39843C17.8445 2.46642 17.8715 2.53163 17.9196 2.57971C17.9677 2.62779 18.0329 2.6548 18.1009 2.6548H20.243C20.311 2.6548 20.3762 2.62779 20.4242 2.57971C20.4723 2.53163 20.4993 2.46642 20.4993 2.39843V0.256375C20.4993 0.222705 20.4927 0.189364 20.4798 0.158256C20.467 0.127148 20.4481 0.0988825 20.4243 0.0750745C20.4005 0.0512664 20.3722 0.0323823 20.3411 0.0195008C20.31 0.00661925 20.2766 -7.17856e-06 20.243 5.83574e-09ZM24.7821 10.1488H22.64C22.572 10.1488 22.5068 10.1758 22.4587 10.2239C22.4107 10.272 22.3836 10.3372 22.3836 10.4052V12.5472C22.3836 12.6152 22.4107 12.6804 22.4587 12.7285C22.5068 12.7766 22.572 12.8036 22.64 12.8036H24.7821C24.8501 12.8036 24.9153 12.7766 24.9634 12.7285C25.0114 12.6804 25.0385 12.6152 25.0385 12.5472V10.4052C25.0385 10.3372 25.0114 10.272 24.9634 10.2239C24.9153 10.1758 24.8501 10.1488 24.7821 10.1488ZM26.0244 3.40271H22.2959C22.2279 3.40271 22.1627 3.42972 22.1146 3.4778C22.0665 3.52588 22.0395 3.59109 22.0395 3.65909V7.38757C22.0395 7.45557 22.0665 7.52078 22.1146 7.56885C22.1627 7.61693 22.2279 7.64394 22.2959 7.64394H26.0244C26.0924 7.64394 26.1576 7.61693 26.2056 7.56885C26.2537 7.52078 26.2807 7.45557 26.2807 7.38757V3.65914C26.2807 3.62547 26.2741 3.59212 26.2612 3.56101C26.2484 3.5299 26.2295 3.50163 26.2057 3.47782C26.1819 3.45401 26.1536 3.43512 26.1225 3.42223C26.0914 3.40934 26.058 3.40271 26.0244 3.40271ZM19.9423 5.93633H15.763C15.695 5.93633 15.6298 5.96334 15.5817 6.01142C15.5337 6.0595 15.5066 6.12471 15.5066 6.1927V10.372C15.5066 10.44 15.5337 10.5052 15.5817 10.5533C15.6298 10.6013 15.695 10.6284 15.763 10.6284H19.9423C20.0103 10.6284 20.0755 10.6013 20.1236 10.5533C20.1717 10.5052 20.1987 10.44 20.1987 10.372V6.1927C20.1987 6.12471 20.1717 6.0595 20.1236 6.01142C20.0755 5.96334 20.0103 5.93633 19.9423 5.93633ZM10.9515 14.7501C9.681 14.7501 8.64746 15.7837 8.64746 17.0541C8.64746 18.3246 9.68105 19.3582 10.9515 19.3582C12.2219 19.3582 13.2555 18.3246 13.2555 17.0541C13.2555 15.7837 12.2219 14.7501 10.9515 14.7501Z" fill="#1EAA96"/>
</svg>
