<svg width="28" height="28" viewBox="0 0 28 28" fill="none" xmlns="http://www.w3.org/2000/svg">
<path d="M14.0001 5.77124C12.9762 5.77124 12.1462 6.60123 12.1462 7.62509V9.05353H8.42676V12.773H9.8552C10.8791 12.773 11.7091 13.603 11.7091 14.6268C11.7091 15.6507 10.8791 16.4807 9.8552 16.4807H8.42676V20.2002H14.0001L15.3845 14.4417L14.0001 5.77124Z" fill="#29BCA7"/>
<path d="M19.5734 9.05353H15.8539V7.62509C15.8539 6.60123 15.0239 5.77124 14 5.77124V20.2002H19.5734V9.05353Z" fill="#1EAA96"/>
<path d="M5.13688 3.67106C2.76952 6.03843 1.46582 9.18597 1.46582 12.5338V15.8383H3.10645V12.5338C3.10645 6.52728 7.9931 1.64062 13.9996 1.64062L15.3841 0.85225L13.9996 0C10.6517 0 7.50425 1.30375 5.13688 3.67106Z" fill="#E88B2A"/>
<path d="M22.8628 3.67106C20.4954 1.30375 17.3479 0 14 0V1.64062C20.0065 1.64062 24.8932 6.52728 24.8932 12.5338V15.8383H26.5338V12.5338C26.5338 9.18597 25.2301 6.03843 22.8628 3.67106Z" fill="#DF5832"/>
<path d="M23.3108 23.8828V24.037C23.3108 25.3176 22.269 26.3594 20.9884 26.3594H16.3057L17.4771 28.0001H20.9884C22.9512 28.0001 24.5809 26.5641 24.8932 24.6886C24.9286 24.476 24.9514 24.2595 24.9514 24.037V23.8828H23.3108Z" fill="#B4C5F2"/>
<path d="M0 15.0181V24.6886H3.1068L4.2222 19.8533L3.1068 15.0181H0Z" fill="#E88B2A"/>
<path d="M3.90822 15.0181H3.10645V24.6886H3.90822C5.0052 24.6886 5.89447 23.7993 5.89447 22.7023V17.0044C5.89447 15.9073 5.0052 15.0181 3.90822 15.0181Z" fill="#EBF3FE"/>
<path d="M27.9995 15.0181V24.6886H24.8927L23.7773 19.8533L24.8927 15.0181H27.9995Z" fill="#E88B2A"/>
<path d="M24.0917 15.0181H24.8935V24.6886H24.0917C22.9947 24.6886 22.1055 23.7993 22.1055 22.7023V17.0044C22.1055 15.9073 22.9947 15.0181 24.0917 15.0181Z" fill="#D0E4FC"/>
<path d="M12.33 24.387C11.3323 24.387 10.5234 25.1958 10.5234 26.1935C10.5234 27.1912 11.3323 28.0001 12.33 28.0001H14.0005L15.0633 26.3594L14.0005 24.387H12.33Z" fill="#E88B2A"/>
<path d="M17.477 26.1935C17.477 25.1958 16.6682 24.387 15.6705 24.387H14V28.0001H17.477V26.1935Z" fill="#DF5832"/>
</svg>
