<svg width="28" height="28" viewBox="0 0 28 28" fill="none" xmlns="http://www.w3.org/2000/svg">
<path fill-rule="evenodd" clip-rule="evenodd" d="M25.446 14.2625C24.9785 14.0988 24.4621 14.3474 24.2985 14.8149L22.8446 18.9671C22.6766 19.447 22.373 19.804 21.9263 20.0468L21.7731 20.1302L21.773 20.1301C22.0449 19.8845 22.1364 19.4784 21.9699 19.1326C21.7677 18.7125 21.2586 18.5343 20.8386 18.7364L18.0139 20.0961C17.2689 20.4546 16.7558 21.0286 16.4825 21.8089L15.2458 25.341H19.0624L19.2331 24.8533C19.3091 24.6363 19.4425 24.4735 19.6403 24.3563L23.4164 22.1183C23.6142 22.0011 23.7476 21.8383 23.8236 21.6213L25.9983 15.41C26.162 14.9425 25.9135 14.4262 25.446 14.2625ZM2.55388 14.2625C3.02137 14.0988 3.53774 14.3474 3.70143 14.8149L5.1553 18.9671C5.3233 19.447 5.62693 19.804 6.07365 20.0468L6.22686 20.1302L6.22692 20.1301C5.95504 19.8845 5.86359 19.4784 6.03002 19.1326C6.23224 18.7125 6.74133 18.5343 7.16139 18.7364L9.98609 20.0961C10.731 20.4546 11.2442 21.0286 11.5174 21.8089L12.7541 25.341H8.93754L8.7668 24.8533C8.69081 24.6363 8.55747 24.4735 8.35962 24.3563L4.58349 22.1183C4.38569 22.0011 4.2523 21.8383 4.17631 21.6213L2.00155 15.4101C1.83786 14.9425 2.08639 14.4262 2.55388 14.2625Z" fill="#FCD4A9"/>
<path fill-rule="evenodd" clip-rule="evenodd" d="M5.23535 19.1641C5.4127 19.546 5.69063 19.8384 6.07384 20.0467L6.22706 20.1301C6.23501 20.1247 7.89972 20.9153 8.05243 20.9887C8.1453 21.0349 8.21622 21.1158 8.24981 21.214C8.2834 21.3121 8.27696 21.4195 8.23188 21.513C8.1868 21.6064 8.10672 21.6783 8.00899 21.713C7.91127 21.7478 7.80377 21.7426 7.70982 21.6987L5.81215 20.7616C5.6124 20.6641 5.23535 20.1344 5.23535 19.1641Z" fill="#F0B16E"/>
<path fill-rule="evenodd" clip-rule="evenodd" d="M13.108 24.6021H8.5439C8.40211 24.6021 8.28613 24.7956 8.28613 25.0322V26.5425C8.28613 26.7791 8.40211 26.9726 8.5439 26.9726H13.108C13.2497 26.9726 13.3658 26.7791 13.3658 26.5425V25.0322C13.3657 24.7956 13.2497 24.6021 13.108 24.6021ZM14.892 24.6021H19.4561C19.5979 24.6021 19.7138 24.7956 19.7138 25.0322V26.5425C19.7138 26.7791 19.5979 26.9726 19.4561 26.9726H14.892C14.7502 26.9726 14.6342 26.7791 14.6342 26.5425V25.0322C14.6342 24.7956 14.7502 24.6021 14.892 24.6021Z" fill="#E26730"/>
<path fill-rule="evenodd" clip-rule="evenodd" d="M13.108 24.6021H8.5439C8.40211 24.6021 8.28613 24.7956 8.28613 25.0322V26.0157C8.28613 26.2523 8.40211 26.4459 8.5439 26.4459H13.108C13.2497 26.4459 13.3658 26.2523 13.3658 26.0157V25.0322C13.3657 24.7956 13.2497 24.6021 13.108 24.6021ZM19.7138 26.0157C19.7138 26.2523 19.5979 26.4459 19.4561 26.4459H14.892C14.7502 26.4459 14.6342 26.2523 14.6342 26.0157V25.0322C14.6342 24.7956 14.7502 24.6021 14.892 24.6021H19.4561C19.5979 24.6021 19.7138 24.7956 19.7138 25.0322V26.0157Z" fill="#E88B2A"/>
<path fill-rule="evenodd" clip-rule="evenodd" d="M21.9659 9.83295C22.0402 9.75977 22.1404 9.71892 22.2446 9.71931C22.3489 9.7197 22.4488 9.76129 22.5225 9.83503C22.5962 9.90876 22.6378 10.0086 22.6382 10.1129C22.6386 10.2172 22.5978 10.3174 22.5246 10.3917L16.3016 16.6146V19.2837C16.2999 19.3873 16.2575 19.4861 16.1836 19.5588C16.1097 19.6315 16.0102 19.6722 15.9065 19.6722C15.8028 19.6722 15.7033 19.6315 15.6294 19.5588C15.5555 19.4861 15.5131 19.3873 15.5114 19.2837V16.4509C15.5113 16.399 15.5215 16.3476 15.5414 16.2997C15.5613 16.2518 15.5904 16.2082 15.6271 16.1716L21.9659 9.83295ZM13.6052 5.50667C13.6073 5.40329 13.6499 5.30487 13.7237 5.23251C13.7976 5.16015 13.8969 5.11963 14.0003 5.11963C14.1037 5.11963 14.203 5.16015 14.2768 5.23251C14.3507 5.30487 14.3933 5.40329 14.3954 5.50667V19.2426C14.3942 19.3466 14.352 19.4459 14.278 19.519C14.2041 19.5921 14.1043 19.6331 14.0003 19.6331C13.8963 19.6331 13.7965 19.5921 13.7226 19.519C13.6486 19.4459 13.6064 19.3466 13.6052 19.2426V5.50667ZM5.47595 10.3917C5.40277 10.3174 5.36192 10.2172 5.36231 10.1129C5.3627 10.0086 5.40429 9.90876 5.47802 9.83503C5.55175 9.76129 5.65164 9.7197 5.75591 9.71931C5.86018 9.71892 5.96038 9.75977 6.03466 9.83295L12.3733 16.1716C12.41 16.2083 12.4392 16.2518 12.459 16.2998C12.4789 16.3477 12.4891 16.3991 12.489 16.451L12.4891 19.2837C12.4873 19.3874 12.4449 19.4862 12.371 19.5589C12.2971 19.6315 12.1976 19.6723 12.0939 19.6723C11.9903 19.6723 11.8907 19.6315 11.8168 19.5589C11.7429 19.4862 11.7005 19.3874 11.6988 19.2837V16.6146L5.47595 10.3917Z" fill="#4187B5"/>
<path fill-rule="evenodd" clip-rule="evenodd" d="M6.59883 6.29332C4.49799 6.29332 2.79492 7.9964 2.79492 10.0972C2.79492 12.1981 4.49799 13.9011 6.59883 13.9011C8.69967 13.9011 10.4027 12.1981 10.4027 10.0972C10.4027 7.9964 8.69973 6.29332 6.59883 6.29332ZM21.4011 6.29332C19.3002 6.29332 17.5972 7.9964 17.5972 10.0972C17.5972 12.1981 19.3002 13.9011 21.4011 13.9011C23.5019 13.9011 25.205 12.1981 25.205 10.0972C25.205 7.9964 23.5019 6.29332 21.4011 6.29332ZM14 1.02759C16.1008 1.02759 17.8039 2.73066 17.8039 4.8315C17.8039 6.93234 16.1008 8.63541 14 8.63541C11.8991 8.63541 10.196 6.93234 10.196 4.8315C10.196 2.73066 11.8991 1.02759 14 1.02759Z" fill="#CCCCCC"/>
<path fill-rule="evenodd" clip-rule="evenodd" d="M6.15571 6.31915C4.26369 6.53867 2.79492 8.14626 2.79492 10.0972C2.79492 12.0482 4.26369 13.6558 6.15571 13.8753C8.04772 13.6558 9.51655 12.0482 9.51655 10.0972C9.51655 8.14632 8.04772 6.53867 6.15571 6.31915ZM20.9579 13.8753C22.8499 13.6558 24.3187 12.0481 24.3187 10.0972C24.3187 8.14626 22.8499 6.53867 20.9579 6.31909C19.0659 6.53861 17.5971 8.1462 17.5971 10.0972C17.5971 12.0482 19.0659 13.6558 20.9579 13.8753ZM13.5568 1.05347C15.4488 1.27299 16.9176 2.88058 16.9176 4.83156C16.9176 6.78255 15.4488 8.39008 13.5568 8.60966C11.6648 8.39014 10.196 6.78255 10.196 4.83156C10.196 2.88058 11.6648 1.27299 13.5568 1.05347Z" fill="#E6E6E6"/>
<path fill-rule="evenodd" clip-rule="evenodd" d="M22.7661 19.1641C22.5888 19.546 22.3108 19.8384 21.9276 20.0467C21.3393 20.3667 20.6032 20.674 19.9491 20.9887C19.8562 21.0349 19.7853 21.1158 19.7517 21.214C19.7181 21.3121 19.7246 21.4195 19.7696 21.513C19.8147 21.6064 19.8948 21.6783 19.9925 21.713C20.0903 21.7478 20.1977 21.7426 20.2917 21.6987L22.1894 20.7616C22.3891 20.6641 22.7661 20.1344 22.7661 19.1641Z" fill="#F0B16E"/>
<path fill-rule="evenodd" clip-rule="evenodd" d="M4.54205 13.2973C5.79236 14.1027 7.40578 14.1027 8.65609 13.2973V12.163C8.65609 11.0316 7.73046 10.106 6.59904 10.106C5.46767 10.106 4.54199 11.0316 4.54199 12.163V13.2973H4.54205Z" fill="#14B5A2"/>
<path fill-rule="evenodd" clip-rule="evenodd" d="M6.59927 10.106C5.95006 10.106 5.42383 9.57972 5.42383 8.93057C5.42383 8.28136 5.95006 7.75513 6.59927 7.75513C7.24842 7.75513 7.77471 8.28142 7.77471 8.93057C7.77465 9.57972 7.24842 10.106 6.59927 10.106Z" fill="#F0B16E"/>
<path fill-rule="evenodd" clip-rule="evenodd" d="M19.3438 13.2973C20.5941 14.1027 22.2075 14.1027 23.4578 13.2973V12.163C23.4578 11.0316 22.5322 10.106 21.4007 10.106C20.2694 10.106 19.3438 11.0316 19.3438 12.163V13.2973Z" fill="#E33F65"/>
<path fill-rule="evenodd" clip-rule="evenodd" d="M21.401 10.106C20.7519 10.106 20.2256 9.57972 20.2256 8.93057C20.2256 8.28136 20.7519 7.75513 21.401 7.75513C22.0502 7.75513 22.5764 8.28142 22.5764 8.93057C22.5764 9.57972 22.0502 10.106 21.401 10.106Z" fill="#F0B16E"/>
<path fill-rule="evenodd" clip-rule="evenodd" d="M16.0574 8.03172C14.8071 8.83705 13.1937 8.83705 11.9434 8.03172V6.89738C11.9434 5.76601 12.869 4.84033 14.0004 4.84033C15.1318 4.84033 16.0574 5.76596 16.0574 6.89738V8.03172Z" fill="#E26730"/>
<path fill-rule="evenodd" clip-rule="evenodd" d="M13.9996 4.84033C14.6488 4.84033 15.175 4.31409 15.175 3.66494C15.175 3.01573 14.6488 2.4895 13.9996 2.4895C13.3505 2.4895 12.8242 3.01579 12.8242 3.66494C12.8242 4.31409 13.3505 4.84033 13.9996 4.84033Z" fill="#F0B16E"/>
<path fill-rule="evenodd" clip-rule="evenodd" d="M4.54199 13.2975C5.0721 13.6393 5.67927 13.843 6.30823 13.8903C6.93722 13.8431 7.54441 13.6393 8.07453 13.2975V12.1632C8.07453 11.1304 7.30324 10.2693 6.30829 10.127C5.31334 10.2693 4.54205 11.1305 4.54205 12.1632L4.54199 13.2975Z" fill="#19CFBA"/>
<path fill-rule="evenodd" clip-rule="evenodd" d="M6.30846 10.0698C5.79992 9.94039 5.42383 9.47946 5.42383 8.93066C5.42383 8.38186 5.79992 7.92086 6.30846 7.7915C6.817 7.92092 7.19309 8.38186 7.19309 8.93066C7.19315 9.47951 6.817 9.94039 6.30846 10.0698Z" fill="#FCD4A9"/>
<path fill-rule="evenodd" clip-rule="evenodd" d="M19.3438 13.2975C19.8739 13.6393 20.481 13.843 21.11 13.8903C21.739 13.8431 22.3461 13.6393 22.8762 13.2975V12.1632C22.8762 11.1304 22.1049 10.2693 21.11 10.127C20.115 10.2693 19.3438 11.1305 19.3438 12.1632V13.2975Z" fill="#FA6E85"/>
<path fill-rule="evenodd" clip-rule="evenodd" d="M21.1103 10.0698C20.6017 9.94039 20.2256 9.47946 20.2256 8.93066C20.2256 8.38186 20.6017 7.92092 21.1103 7.7915C21.6188 7.92092 21.9949 8.38186 21.9949 8.93066C21.995 9.47946 21.6188 9.94039 21.1103 10.0698Z" fill="#FCD4A9"/>
<path fill-rule="evenodd" clip-rule="evenodd" d="M13.7096 8.6244C13.0806 8.57721 12.4735 8.37344 11.9434 8.03164V6.8973C11.9434 5.86455 12.7146 5.00344 13.7096 4.86108C14.7046 5.00344 15.4758 5.8646 15.4758 6.8973V8.03169C14.9457 8.37344 14.3386 8.57719 13.7096 8.6244Z" fill="#E88B2A"/>
<path fill-rule="evenodd" clip-rule="evenodd" d="M13.7089 2.52563C13.2003 2.65505 12.8242 3.11599 12.8242 3.66479C12.8242 4.21359 13.2004 4.67452 13.7089 4.80394C14.2174 4.67452 14.5935 4.21359 14.5935 3.66479C14.5935 3.11599 14.2174 2.65505 13.7089 2.52563Z" fill="#FCD4A9"/>
</svg>
