<svg width="28" height="28" viewBox="0 0 28 28" fill="none" xmlns="http://www.w3.org/2000/svg">
<g clip-path="url(#clip0_5189_8364)">
<path d="M11.8485 16.9207C11.0096 16.0818 9.90746 15.6621 8.80485 15.6621C7.70273 15.6621 6.60067 16.0818 5.76176 16.9207C4.94812 17.7344 4.49974 18.8157 4.49974 19.9661C4.49974 20.9869 4.85389 21.9529 5.5026 22.7255L4.41131 23.818L3.9947 23.4026L1.08013 26.3188C0.702457 26.6965 0.702457 27.3115 1.08013 27.6891L1.08068 27.6897C1.26251 27.8721 1.50604 27.9725 1.7664 27.9725C2.02677 27.9725 2.27029 27.8721 2.45213 27.6897L5.36894 24.7729L4.9531 24.3582L6.04455 23.2668C7.73352 24.6817 10.2612 24.5965 11.8485 23.0092C12.6622 22.1967 13.11 21.1159 13.11 19.9661C13.11 18.8158 12.6622 17.7344 11.8485 16.9207ZM10.9243 22.0839C10.3581 22.6506 9.60558 22.9627 8.80479 22.9627C8.00461 22.9627 7.25156 22.6507 6.68593 22.0839C5.51764 20.9156 5.51764 19.015 6.68593 17.8467C7.2701 17.2625 8.03775 16.9701 8.80479 16.9701C9.57244 16.9701 10.3401 17.2625 10.9243 17.8467C12.0926 19.0149 12.0926 20.9156 10.9243 22.0839Z" fill="#E26730"/>
<path d="M4.03898 15.909C4.04863 15.9655 4.04584 16.0233 4.03079 16.0785C4.01575 16.1338 3.98882 16.185 3.95188 16.2288C3.91495 16.2725 3.86891 16.3076 3.81698 16.3317C3.76505 16.3558 3.70849 16.3682 3.65125 16.3681C3.5586 16.368 3.46897 16.3351 3.39819 16.2753C3.32742 16.2155 3.28005 16.1327 3.26445 16.0413C3.14951 15.3663 3.09175 14.6828 3.0918 13.998C3.0918 11.5185 3.83927 9.13648 5.25337 7.10943C6.63511 5.12881 8.55076 3.62245 10.7933 2.75324C10.8901 2.71746 10.997 2.72116 11.0911 2.76354C11.1851 2.80592 11.2587 2.88358 11.296 2.97976C11.3333 3.07594 11.3312 3.18293 11.2903 3.27762C11.2494 3.37231 11.1729 3.44712 11.0773 3.48589C6.7709 5.15501 3.87755 9.37951 3.87755 13.998C3.87755 14.639 3.93185 15.282 4.03898 15.909ZM25.0437 7.10943C23.6623 5.1287 21.7469 3.62234 19.5045 2.75324C19.4073 2.71558 19.2992 2.71806 19.2039 2.76013C19.1086 2.8022 19.0338 2.88041 18.9962 2.97757C18.9585 3.07473 18.961 3.18286 19.0031 3.27819C19.0451 3.37352 19.1234 3.44823 19.2205 3.48589C23.5259 5.15468 26.4187 9.37913 26.4187 13.998C26.4187 20.2122 21.3631 25.2678 15.1489 25.2678C14.2765 25.2678 13.4071 25.1675 12.5649 24.9696C12.4642 24.9478 12.359 24.9664 12.2719 25.0215C12.1848 25.0765 12.1228 25.1635 12.0992 25.2638C12.0757 25.3641 12.0924 25.4697 12.1459 25.5577C12.1994 25.6458 12.2853 25.7093 12.3852 25.7346C13.2911 25.9468 14.2185 26.0539 15.1489 26.0536C18.3696 26.0536 21.3971 24.7997 23.6738 22.523C25.9506 20.2463 27.2044 17.2187 27.2044 13.9981C27.2044 11.5184 26.4573 9.13637 25.0437 7.10943ZM19.6392 7.60189C18.7666 7.60189 17.9614 8.06258 17.5136 8.79659C18.247 9.44978 18.7105 10.4004 18.7105 11.4575C18.7105 11.7656 18.6712 12.0647 18.5971 12.3498C18.9237 12.4996 19.2784 12.5793 19.6392 12.5793C21.0117 12.5793 22.1285 11.4626 22.1285 10.09C22.1285 8.71806 21.0117 7.60189 19.6392 7.60189ZM20.4439 18.5C21.6295 18.3917 22.7463 18.0482 23.7053 17.4927V16.564C23.7053 14.7998 22.2699 13.3649 20.5062 13.3649H18.7739C18.5511 13.3649 18.3284 13.389 18.109 13.4362C17.8635 13.8019 17.5527 14.1192 17.1921 14.3721C19.0371 14.8508 20.4085 16.5152 20.4439 18.5ZM15.1489 14.2335C16.6797 14.2335 17.9244 12.9883 17.9244 11.4575C17.9244 9.92616 16.6797 8.68038 15.1489 8.68038C13.6186 8.68038 12.3735 9.92611 12.3735 11.4575C12.3735 12.9883 13.6186 14.2335 15.1489 14.2335ZM12.7842 8.79659C12.3364 8.06263 11.5312 7.60189 10.6586 7.60189C9.28603 7.60189 8.16937 8.71801 8.16937 10.09C8.16937 11.4626 9.28603 12.5793 10.6586 12.5793C11.0194 12.5793 11.3741 12.4996 11.7006 12.3498C11.6251 12.0584 11.587 11.7585 11.5873 11.4575C11.5873 10.4004 12.0508 9.44978 12.7842 8.79659ZM13.8964 19.9662C13.8966 20.2115 13.8791 20.4564 13.8442 20.6991C14.2767 20.7577 14.7125 20.7871 15.1489 20.7872C16.7959 20.7872 18.3508 20.3849 19.66 19.6217V18.5774C19.66 16.6156 18.0635 15.0192 16.1017 15.0192H14.1961C13.337 15.0192 12.5087 15.3345 11.8645 15.8968C12.0554 16.0399 12.2358 16.1965 12.4044 16.3653C13.3667 17.3277 13.8964 18.606 13.8964 19.9662ZM12.1888 13.4362C11.9703 13.389 11.7474 13.3651 11.5239 13.3649H9.79162C8.51784 13.3649 7.38203 14.1354 6.8742 15.2554C8.25802 14.6898 9.8427 14.7588 11.1776 15.4608C11.7168 14.9382 12.382 14.564 13.1085 14.3744C12.7471 14.1207 12.4353 13.8026 12.1888 13.4362ZM12.2472 2.66634L13.6184 3.71711L13.126 5.37458C13.1029 5.45249 13.1045 5.53566 13.1306 5.61263C13.1567 5.68959 13.206 5.75658 13.2717 5.80434C13.3375 5.8521 13.4165 5.87829 13.4977 5.87931C13.579 5.88032 13.6586 5.85611 13.7255 5.81L15.149 4.8294L16.5724 5.81C16.6379 5.85519 16.7157 5.87937 16.7953 5.87934C16.8564 5.87934 16.9167 5.86506 16.9714 5.83764C17.0261 5.81022 17.0736 5.77041 17.1102 5.7214C17.1467 5.67238 17.1713 5.6155 17.1821 5.55529C17.1928 5.49508 17.1893 5.4332 17.1719 5.37458L16.6795 3.71711L18.0507 2.66634C18.1152 2.61691 18.1628 2.5487 18.1869 2.4711C18.211 2.39351 18.2104 2.31034 18.1853 2.23306C18.1602 2.15578 18.1118 2.08819 18.0466 2.03959C17.9815 1.99099 17.9029 1.96378 17.8217 1.9617L16.0943 1.91773L15.5194 0.289461C15.4923 0.21284 15.4422 0.14649 15.3759 0.0995475C15.3095 0.0526051 15.2303 0.0273793 15.149 0.0273438H15.1489C15.0676 0.027344 14.9884 0.0525167 14.9221 0.0993978C14.8557 0.146279 14.8056 0.212564 14.7785 0.289133L14.2021 1.91767L12.4761 1.96164C12.3948 1.96376 12.3163 1.99101 12.2512 2.03962C12.1861 2.08823 12.1377 2.15583 12.1126 2.2331C12.0875 2.31038 12.0869 2.39353 12.111 2.47111C12.1352 2.5487 12.1827 2.61691 12.2472 2.66634Z" fill="#F8CEC2"/>
</g>
<defs>
<clipPath id="clip0_5189_8364">
<rect width="28" height="28" fill="white"/>
</clipPath>
</defs>
</svg>
