<svg width="28" height="28" viewBox="0 0 28 28" fill="none" xmlns="http://www.w3.org/2000/svg">
<path fill-rule="evenodd" clip-rule="evenodd" d="M20.2478 24.8952H3.40015C3.15771 24.8952 2.96094 24.6984 2.96094 24.456C2.96094 24.2136 3.15771 24.0168 3.40015 24.0168H11.3848V18.0855C11.3848 17.8431 11.5815 17.6462 11.824 17.6462C12.0664 17.6462 12.2632 17.8431 12.2632 18.0855V24.0168H20.2478C20.4902 24.0168 20.687 24.2136 20.687 24.456C20.687 24.6984 20.4902 24.8952 20.2478 24.8952Z" fill="#A79BA7"/>
<path d="M3.39951 25.8059C4.14494 25.8059 4.74922 25.2016 4.74922 24.4562C4.74922 23.7107 4.14494 23.1064 3.39951 23.1064C2.65409 23.1064 2.0498 23.7107 2.0498 24.4562C2.0498 25.2016 2.65409 25.8059 3.39951 25.8059Z" fill="#6CF5C2"/>
<path fill-rule="evenodd" clip-rule="evenodd" d="M3.20117 23.1209C3.26681 23.1113 3.33307 23.1064 3.39942 23.1064C4.14433 23.1064 4.74908 23.7112 4.74908 24.4562C4.74908 25.2011 4.14433 25.8059 3.39942 25.8059C3.33206 25.8059 3.2659 25.8009 3.20117 25.7914C3.85225 25.6953 4.35263 25.1337 4.35263 24.4562C4.35263 23.7786 3.85225 23.217 3.20117 23.1209Z" fill="#00E499"/>
<path d="M20.2472 25.8059C20.9926 25.8059 21.5969 25.2016 21.5969 24.4562C21.5969 23.7107 20.9926 23.1064 20.2472 23.1064C19.5017 23.1064 18.8975 23.7107 18.8975 24.4562C18.8975 25.2016 19.5017 25.8059 20.2472 25.8059Z" fill="#6CF5C2"/>
<path fill-rule="evenodd" clip-rule="evenodd" d="M20.0488 23.1209C20.1145 23.1113 20.1807 23.1064 20.247 23.1064C20.9919 23.1064 21.5967 23.7112 21.5967 24.4562C21.5967 25.2011 20.9919 25.8059 20.247 25.8059C20.1807 25.8059 20.1145 25.801 20.0488 25.7914C20.6999 25.6953 21.2003 25.1337 21.2003 24.4562C21.2003 23.7786 20.6999 23.217 20.0488 23.1209Z" fill="#00E499"/>
<path fill-rule="evenodd" clip-rule="evenodd" d="M12.8729 23.1233C12.9166 23.1233 12.9585 23.1406 12.9894 23.1715C13.0203 23.2024 13.0376 23.2443 13.0376 23.288V25.3869C13.0376 25.4306 13.0202 25.4724 12.9893 25.5033C12.9585 25.5342 12.9166 25.5516 12.8729 25.5516H10.7741C10.7304 25.5516 10.6885 25.5343 10.6576 25.5034C10.6267 25.4725 10.6094 25.4306 10.6094 25.3869V23.288C10.6094 23.2443 10.6267 23.2024 10.6576 23.1715C10.6885 23.1406 10.7304 23.1233 10.7741 23.1233H12.8729Z" fill="#8AC9FE"/>
<path fill-rule="evenodd" clip-rule="evenodd" d="M12.4766 23.1233H12.873C12.9167 23.1233 12.9586 23.1406 12.9895 23.1715C13.0204 23.2024 13.0377 23.2443 13.0377 23.288V25.3869C13.0377 25.4306 13.0203 25.4724 12.9894 25.5033C12.9585 25.5342 12.9167 25.5516 12.873 25.5516H12.4766C12.5202 25.5516 12.5621 25.5343 12.593 25.5034C12.6239 25.4725 12.6413 25.4306 12.6413 25.3869V23.288C12.6413 23.2443 12.6239 23.2024 12.593 23.1715C12.5777 23.1562 12.5596 23.1441 12.5396 23.1358C12.5196 23.1275 12.4982 23.1233 12.4766 23.1233Z" fill="#60B7FF"/>
<path fill-rule="evenodd" clip-rule="evenodd" d="M19.1862 15.6908C21.2145 15.6908 22.8729 14.0324 22.8729 12.0041C22.8729 10.3456 21.7473 8.87745 20.1487 8.44246C19.8605 5.77801 17.6039 3.70085 14.8579 3.70085C14.2271 3.70085 13.6236 3.80961 13.0634 4.01077C11.9977 2.98306 10.5567 2.35229 8.96348 2.35229C5.70637 2.35229 3.0691 4.995 3.0691 8.24668C3.0691 8.36088 3.0691 8.47507 3.07997 8.58927C1.73141 9.13845 0.774414 10.4653 0.774414 12.0041C0.774414 14.0324 2.43833 15.6908 4.46657 15.6908H19.1862Z" fill="#D8ECFE"/>
<path fill-rule="evenodd" clip-rule="evenodd" d="M9.2346 3.63881C9.47699 3.63881 9.67381 3.83564 9.67381 4.07803C9.67381 4.32048 9.47699 4.51724 9.2346 4.51724C7.48515 4.51724 5.99643 5.6323 5.43967 7.19042C5.35814 7.4187 5.10658 7.53779 4.87829 7.45626C4.76863 7.417 4.67904 7.33582 4.62919 7.23056C4.57935 7.12529 4.57333 7.00453 4.61246 6.89483C5.29061 4.99703 7.1038 3.63881 9.2346 3.63881ZM13.0635 4.01077C11.9977 2.98306 10.5567 2.35229 8.96349 2.35229C8.83299 2.35229 8.70249 2.35773 8.57742 2.3686C10.0129 2.46106 11.4974 3.24407 12.4708 4.18481C12.6611 4.1141 12.8623 4.05975 13.0635 4.01077ZM19.1862 15.6908C21.2145 15.6908 22.873 14.0324 22.873 12.0041C22.873 10.3456 21.7474 8.87745 20.1487 8.44246C19.8605 5.77801 17.6039 3.70085 14.8579 3.70085C14.7274 3.70085 14.5969 3.70629 14.4664 3.71716C17.0329 3.90201 19.0938 5.90308 19.3711 8.44246C20.9698 8.87745 22.0954 10.3456 22.0954 12.0041C22.0954 14.0324 20.4369 15.6908 18.4087 15.6908H19.1862Z" fill="#C4E2FF"/>
<path fill-rule="evenodd" clip-rule="evenodd" d="M21.5975 2.19434C24.7055 2.19434 27.2246 4.71346 27.2246 7.82146C27.2246 10.9295 24.7055 13.4492 21.5975 13.4492C18.4895 13.4492 15.9697 10.9295 15.9697 7.82146C15.9697 4.71346 18.4895 2.19434 21.5975 2.19434Z" fill="#8AC9FE"/>
<path fill-rule="evenodd" clip-rule="evenodd" d="M21.5976 2.19434C24.7056 2.19434 27.2247 4.71346 27.2247 7.82146C27.2247 10.9295 24.7056 13.4492 21.5976 13.4492C21.5073 13.4492 21.4182 13.4473 21.3291 13.4426C24.3121 13.3024 26.6877 10.8398 26.6877 7.82146C26.6877 4.80389 24.3121 2.34126 21.3291 2.20104C21.4185 2.19646 21.5081 2.19422 21.5976 2.19434Z" fill="#41A8FC"/>
<path fill-rule="evenodd" clip-rule="evenodd" d="M21.1675 2.91487C20.6338 3.32034 20.1692 3.80942 19.7916 4.36318C20.2376 4.44098 20.7002 4.4888 21.1675 4.50675V2.91487ZM27.2087 7.39213C27.2193 7.53366 27.2246 7.67657 27.2246 7.8208V7.82283C27.2246 7.96706 27.2193 8.10997 27.2087 8.25151H25.311C25.2579 9.11363 25.0491 9.94446 24.7035 10.7095C25.1861 10.8577 25.6394 11.0432 26.0481 11.2658C25.8668 11.4993 25.6677 11.7184 25.4526 11.9212C25.0983 11.7457 24.7089 11.5995 24.2954 11.4818C23.8538 12.2027 23.2857 12.8379 22.6185 13.3569C22.2816 13.4184 21.9399 13.4493 21.5975 13.4492C21.2486 13.4492 20.9076 13.4173 20.5766 13.3569C19.909 12.8382 19.3408 12.203 18.8996 11.4818C18.4855 11.5995 18.096 11.7457 17.7424 11.9212C17.5272 11.7186 17.328 11.4994 17.1469 11.2658C17.555 11.0432 18.0083 10.8577 18.4908 10.7095C18.1459 9.94446 17.9371 9.11363 17.8833 8.25151H15.9857C15.975 8.1093 15.9697 7.96675 15.9697 7.82415V7.81948C15.9697 7.67525 15.9751 7.533 15.9857 7.39213H17.882C17.9323 6.54224 18.1385 5.70885 18.4902 4.9335C18.0076 4.78527 17.555 4.60047 17.1469 4.37779C17.3279 4.14404 17.527 3.92491 17.7424 3.72242C18.096 3.89794 18.4862 4.04415 18.9003 4.1618C19.3428 3.44142 19.911 2.80632 20.5779 2.28674C20.9083 2.22629 21.2492 2.19434 21.5975 2.19434C21.9458 2.19434 22.2861 2.22629 22.6164 2.28674C23.2834 2.80648 23.8518 3.44154 24.2947 4.1618C24.7089 4.04415 25.0983 3.89794 25.4526 3.72242C25.6678 3.92508 25.867 4.1442 26.0481 4.37779C25.64 4.60047 25.1867 4.78527 24.7042 4.9335C25.0559 5.70885 25.262 6.54224 25.3124 7.39213H27.2087ZM24.4496 8.25151H22.0269V10.2761C22.649 10.2994 23.2672 10.3718 23.8567 10.4941C24.1904 9.80089 24.3938 9.04182 24.4496 8.25151ZM21.1675 8.25151H18.7447C18.8006 9.04182 19.0046 9.80089 19.3376 10.4941C19.9278 10.3718 20.5453 10.2994 21.1675 10.2761V8.25151ZM18.7434 7.39213H21.1675V5.3675C20.5453 5.34423 19.9272 5.27181 19.337 5.14949C18.9975 5.85219 18.796 6.6135 18.7434 7.39213ZM22.0269 7.39213H24.4509C24.3987 6.61345 24.1971 5.85208 23.8574 5.14949C23.2672 5.27181 22.649 5.34423 22.0269 5.3675V7.39213ZM19.7902 11.2804C20.1674 11.835 20.6326 12.3242 21.1675 12.7288V11.1362C20.7002 11.1548 20.2369 11.2027 19.7902 11.2804ZM22.0269 4.50675C22.4942 4.4888 22.9568 4.44098 23.4027 4.36318C23.0252 3.80942 22.5606 3.32034 22.0269 2.91487V4.50675ZM23.4041 11.2804C22.9574 11.2027 22.4948 11.1548 22.0269 11.1362V12.7288C22.5621 12.3245 23.0273 11.8353 23.4041 11.2804Z" fill="#60B7FF"/>
<path fill-rule="evenodd" clip-rule="evenodd" d="M16.5044 12.6523V18.7263C16.5044 19.5506 14.4033 20.2202 11.8112 20.2202C9.21921 20.2202 7.11816 19.5506 7.11816 18.7263V12.6523C7.11816 11.828 9.21921 11.1614 11.8112 11.1614C14.4033 11.1614 16.5044 11.828 16.5044 12.6523Z" fill="#E26730"/>
<path fill-rule="evenodd" clip-rule="evenodd" d="M11.8112 17.1818C14.4033 17.1818 16.5044 16.5152 16.5044 15.6908V12.6523C16.5044 13.4797 14.4033 14.1463 11.8112 14.1463C10.0168 14.1463 8.45733 13.8278 7.66872 13.3547C7.49018 13.2506 7.35325 13.1375 7.26102 13.0184C7.16878 12.9024 7.11816 12.7803 7.11816 12.6523V15.6908C7.11816 15.7176 7.12113 15.7444 7.12415 15.7712C7.25805 16.5568 9.30551 17.1818 11.8112 17.1818Z" fill="#E88B2A"/>
<path fill-rule="evenodd" clip-rule="evenodd" d="M8.23438 15.3247C8.23423 15.4009 8.24914 15.4764 8.27826 15.5469C8.30737 15.6174 8.35011 15.6814 8.40402 15.7353C8.45794 15.7892 8.52197 15.832 8.59244 15.8611C8.66291 15.8902 8.73844 15.9051 8.81469 15.905C9.13312 15.905 9.39204 15.6461 9.39204 15.3247C9.39204 15.0062 9.13312 14.7473 8.81469 14.7473C8.49329 14.7473 8.23438 15.0062 8.23438 15.3247ZM8.23438 18.3095C8.23423 18.3858 8.24914 18.4613 8.27826 18.5318C8.30737 18.6022 8.35011 18.6663 8.40402 18.7202C8.45794 18.7741 8.52197 18.8168 8.59244 18.846C8.66291 18.8751 8.73844 18.89 8.81469 18.8898C9.13312 18.8898 9.39204 18.6309 9.39204 18.3095C9.39204 17.9911 9.13312 17.7322 8.81469 17.7322C8.49329 17.7322 8.23438 17.9911 8.23438 18.3095Z" fill="#ECEFF1"/>
</svg>
