<svg width="28" height="28" viewBox="0 0 28 28" fill="none" xmlns="http://www.w3.org/2000/svg">
<g clip-path="url(#clip0_5761_832)">
<path fill-rule="evenodd" clip-rule="evenodd" d="M21 13.9999C21.0017 15.296 20.9098 16.5905 20.7251 17.8733C19.706 18.6815 18.628 19.4125 17.5 20.0601C16.3765 20.7117 15.2067 21.2799 14 21.7601C12.7922 21.2823 11.6222 20.714 10.5 20.0601C9.37201 19.4125 8.29396 18.6815 7.27487 17.8733C6.90838 15.3028 6.90838 12.6933 7.27487 10.1229C8.29409 9.31594 9.37213 8.58623 10.5 7.93981C11.6235 7.28818 12.7933 6.71996 14 6.23975C15.2078 6.71759 16.3778 7.28589 17.5 7.93981C18.628 8.58743 19.706 9.31839 20.7251 10.1266C20.9099 11.4095 21.0019 12.704 21 13.9999Z" fill="#B0D3F0"/>
<path d="M24.9928 14C26.495 11.7553 27.0312 9.5816 26.4978 7.85167C26.4613 7.73335 26.3794 7.63435 26.2699 7.57646C26.1605 7.51856 26.0325 7.50652 25.9142 7.54297C25.7959 7.57942 25.6969 7.66138 25.639 7.77082C25.5811 7.88026 25.569 8.00821 25.6055 8.12653C26.0325 9.51067 25.6004 11.2901 24.4052 13.1833C23.449 11.965 22.3571 10.8595 21.1507 9.8882C20.9172 8.34774 20.5064 6.83943 19.9266 5.39327C22.4504 5.2934 24.3091 5.95327 25.1967 7.287C25.2654 7.38997 25.3722 7.46144 25.4936 7.48569C25.6149 7.50993 25.741 7.48496 25.844 7.41627C25.9469 7.34758 26.0184 7.24079 26.0426 7.11941C26.0669 6.99802 26.0419 6.87197 25.9732 6.769C24.8532 5.089 22.5666 4.28353 19.5188 4.48233C18.164 1.7122 16.2087 0 14 0C11.7912 0 9.83589 1.71267 8.48023 4.48C5.20376 4.27047 2.77429 5.24487 1.78216 7.18667C1.76069 7.23333 1.74669 7.2828 1.74109 7.33367C1.6938 7.37798 1.65656 7.43193 1.63189 7.49187C0.897359 9.28013 1.38829 11.5827 3.00763 14C1.28329 16.5727 0.839959 18.9849 1.77329 20.818C1.81234 20.8948 1.8719 20.9594 1.94537 21.0044C2.01885 21.0495 2.10337 21.0733 2.18956 21.0733H2.20729C2.17103 21.1515 2.15736 21.2383 2.16783 21.3239C2.1783 21.4095 2.2125 21.4905 2.26656 21.5577C3.33056 22.8606 5.20143 23.5522 7.60896 23.5522C7.89129 23.5522 8.18389 23.5396 8.48069 23.52C9.83589 26.2878 11.7912 28 14 28C16.2087 28 18.164 26.2878 19.5197 23.52C19.8198 23.5396 20.1152 23.5527 20.4003 23.5527C22.9231 23.5527 24.8434 22.7953 25.8785 21.3696C25.9467 21.2744 25.9764 21.1569 25.9615 21.0407C25.9466 20.9245 25.8883 20.8182 25.7982 20.7433C25.9106 20.7856 26.0352 20.7815 26.1445 20.732C26.2539 20.6824 26.3392 20.5915 26.3816 20.4792C27.0965 18.6928 26.6 16.4019 24.9928 14ZM23.8499 14C23.1038 14.9934 22.2595 15.9091 21.3299 16.7333C21.5133 14.9156 21.5122 13.0841 21.3266 11.2667C22.2574 12.0907 23.1028 13.0065 23.8499 14ZM18.9424 22.5307C17.7001 22.3819 16.4761 22.1072 15.2894 21.7107C16.9662 20.9661 18.5595 20.0458 20.0424 18.9653C19.7977 20.188 19.4291 21.3826 18.9424 22.5307ZM7.95803 18.9653C8.70043 19.5063 9.47105 20.0074 10.2666 20.4666C11.0584 20.9222 11.8727 21.3374 12.7064 21.7107C11.521 22.1074 10.2984 22.3818 9.05703 22.5307C8.57064 21.3826 8.2024 20.188 7.95803 18.9653ZM9.05749 5.46933C10.2998 5.6182 11.5238 5.89307 12.7106 6.28927C11.0337 7.03393 9.44046 7.9542 7.95756 9.03467C8.20224 7.81197 8.57078 6.61736 9.05749 5.46933ZM10.7333 19.6579C9.68092 19.0522 8.67483 18.3695 7.72329 17.6153C7.38169 15.2172 7.38169 12.7828 7.72329 10.3847C8.67487 9.63055 9.68095 8.94782 10.7333 8.34213C11.7833 7.73489 12.876 7.20461 14.0028 6.75547C15.1286 7.20466 16.2203 7.73494 17.2694 8.34213C18.3218 8.94777 19.3279 9.63051 20.2794 10.3847C20.4502 11.5822 20.5352 12.7904 20.5333 14C20.5342 15.2097 20.4486 16.4178 20.2771 17.6153C19.3254 18.3695 18.3191 19.0522 17.2666 19.6579C16.2175 20.2647 15.1257 20.7946 14 21.2436C12.8742 20.7946 11.7825 20.2647 10.7333 19.6579ZM6.67329 16.7333C5.74227 15.9095 4.89689 14.9938 4.15003 14C4.89612 13.0066 5.74038 12.0909 6.67003 11.2667C6.48647 13.0843 6.48647 14.9157 6.67003 16.7333H6.67329ZM15.2954 6.28927C16.4808 5.8926 17.7034 5.6182 18.9448 5.46933C19.4313 6.61738 19.7997 7.81199 20.0442 9.03467C19.3011 8.49364 18.5297 7.99251 17.7333 7.5334C16.9414 7.07782 16.1269 6.66258 15.2931 6.28927H15.2954ZM14 0.933333C15.7528 0.933333 17.3455 2.32353 18.5201 4.57847C16.9742 4.79791 15.4585 5.19309 14.0023 5.75633C12.5448 5.19268 11.0276 4.79749 9.48029 4.57847C10.6549 2.32353 12.2472 0.933333 14 0.933333ZM2.49523 7.8442C2.50758 7.80755 2.51496 7.76941 2.51716 7.7308C2.5559 7.69621 2.58856 7.65535 2.61376 7.60993C3.39496 6.0816 5.36709 5.29013 8.07376 5.39373C7.49416 6.83993 7.08357 8.34824 6.85016 9.88867C5.64273 10.8612 4.55006 11.9681 3.59329 13.188C2.30203 11.1533 1.91049 9.26987 2.49523 7.8442ZM2.98943 20.9659C2.94274 20.9101 2.88343 20.8662 2.81639 20.8379C2.74935 20.8096 2.67653 20.7976 2.60396 20.8031C2.63538 20.7397 2.65173 20.6699 2.65173 20.5991C2.65173 20.5284 2.63538 20.4586 2.60396 20.3952C1.87783 18.9644 2.23996 16.9535 3.59329 14.8125C4.55047 16.0322 5.64345 17.139 6.85109 18.1113C7.08431 19.6499 7.4941 21.1564 8.07236 22.6011C5.72923 22.6912 3.93536 22.1242 2.98943 20.9659ZM14 27.0667C12.2472 27.0667 10.6544 25.6765 9.47983 23.4215C11.0265 23.2023 12.543 22.8071 14 22.2437C15.4575 22.8073 16.9747 23.2025 18.522 23.4215C17.345 25.6765 15.7528 27.0667 14 27.0667ZM25.123 20.8194C24.2097 22.0794 22.3771 22.6959 19.9299 22.6002C20.508 21.1558 20.9176 19.6496 21.1507 18.1113C22.3579 17.1389 23.4503 16.032 24.4066 14.812C25.6872 16.8364 26.0829 18.7082 25.5131 20.132C25.4763 20.2261 25.4715 20.3297 25.4993 20.4268C25.5271 20.5239 25.5861 20.6092 25.6671 20.6696C25.5726 20.6305 25.4679 20.624 25.3693 20.6512C25.2708 20.6783 25.1841 20.7375 25.123 20.8194Z" fill="#66CCFF"/>
<path d="M12.097 11.0204C12.0615 10.9353 12.0017 10.8627 11.9251 10.8116C11.8484 10.7605 11.7584 10.7333 11.6662 10.7333C11.5741 10.7333 11.4841 10.7605 11.4074 10.8116C11.3308 10.8627 11.271 10.9353 11.2355 11.0204L8.90218 16.6204C8.85453 16.7346 8.85421 16.8631 8.9013 16.9776C8.94838 17.092 9.03901 17.1831 9.15325 17.2308C9.26748 17.2784 9.39597 17.2787 9.51044 17.2317C9.62492 17.1846 9.716 17.0939 9.76365 16.9797L10.4216 15.4H12.9108L13.5688 16.9797C13.6165 17.0939 13.7076 17.1846 13.8221 17.2317C13.9365 17.2787 14.065 17.2784 14.1792 17.2308C14.2935 17.1831 14.3841 17.092 14.4312 16.9776C14.4783 16.8631 14.478 16.7346 14.4303 16.6204L12.097 11.0204ZM10.8108 14.4667L11.6662 12.4134L12.5216 14.4667H10.8108Z" fill="#E26730"/>
<path fill-rule="evenodd" clip-rule="evenodd" d="M18.1998 16.3333H17.2664V11.6666H18.1998C18.3235 11.6666 18.4422 11.6174 18.5298 11.5299C18.6173 11.4424 18.6664 11.3237 18.6664 11.1999C18.6664 11.0762 18.6173 10.9575 18.5298 10.87C18.4422 10.7824 18.3235 10.7333 18.1998 10.7333H15.3998C15.276 10.7333 15.1573 10.7824 15.0698 10.87C14.9823 10.9575 14.9331 11.0762 14.9331 11.1999C14.9331 11.3237 14.9823 11.4424 15.0698 11.5299C15.1573 11.6174 15.276 11.6666 15.3998 11.6666H16.3331V16.3333H15.3998C15.276 16.3333 15.1573 16.3824 15.0698 16.47C14.9823 16.5575 14.9331 16.6762 14.9331 16.7999C14.9331 16.9237 14.9823 17.0424 15.0698 17.1299C15.1573 17.2174 15.276 17.2666 15.3998 17.2666H18.1998C18.3235 17.2666 18.4422 17.2174 18.5298 17.1299C18.6173 17.0424 18.6664 16.9237 18.6664 16.7999C18.6664 16.6762 18.6173 16.5575 18.5298 16.47C18.4422 16.3824 18.3235 16.3333 18.1998 16.3333Z" fill="#E26730"/>
<path d="M2.33311 8.86665C3.1063 8.86665 3.73311 8.23985 3.73311 7.46665C3.73311 6.69345 3.1063 6.06665 2.33311 6.06665C1.55991 6.06665 0.933105 6.69345 0.933105 7.46665C0.933105 8.23985 1.55991 8.86665 2.33311 8.86665Z" fill="#E88B2A"/>
<path d="M25.6666 21.9333C26.4398 21.9333 27.0666 21.3065 27.0666 20.5333C27.0666 19.7601 26.4398 19.1333 25.6666 19.1333C24.8934 19.1333 24.2666 19.7601 24.2666 20.5333C24.2666 21.3065 24.8934 21.9333 25.6666 21.9333Z" fill="#E88B2A"/>
<path d="M2.33311 21.9333C3.1063 21.9333 3.73311 21.3065 3.73311 20.5333C3.73311 19.7601 3.1063 19.1333 2.33311 19.1333C1.55991 19.1333 0.933105 19.7601 0.933105 20.5333C0.933105 21.3065 1.55991 21.9333 2.33311 21.9333Z" fill="#E88B2A"/>
<path d="M25.6666 8.86665C26.4398 8.86665 27.0666 8.23985 27.0666 7.46665C27.0666 6.69345 26.4398 6.06665 25.6666 6.06665C24.8934 6.06665 24.2666 6.69345 24.2666 7.46665C24.2666 8.23985 24.8934 8.86665 25.6666 8.86665Z" fill="#E88B2A"/>
</g>
<defs>
<clipPath id="clip0_5761_832">
<rect width="28" height="28" fill="white"/>
</clipPath>
</defs>
</svg>
