<svg width="26" height="22" viewBox="0 0 26 22" fill="none" xmlns="http://www.w3.org/2000/svg">
<path fill-rule="evenodd" clip-rule="evenodd" d="M24.0478 6.50774L22.2296 1.31303L21.6395 2.69096L20.4115 3.3909L23.2848 6.81914L24.0478 6.50774ZM20.2586 0.535889L14.3994 4.59229L14.5486 5.67535C15.4112 5.75089 16.1791 6.15663 16.7253 6.76543L20.7093 2.33874L20.2586 0.535889Z" fill="#FFBF31"/>
<path fill-rule="evenodd" clip-rule="evenodd" d="M21.7368 0.253109C22.6393 0.774164 22.9485 1.92813 22.4275 2.83058C21.9064 3.73302 20.7524 4.04226 19.85 3.52121C18.9475 3.00015 18.6383 1.84618 19.1594 0.943739C19.6804 0.0412951 20.8344 -0.267947 21.7368 0.253109Z" fill="#FA6E85"/>
<path fill-rule="evenodd" clip-rule="evenodd" d="M1.95166 6.50774L3.76981 1.31303L4.35992 2.69096L5.58795 3.3909L2.71462 6.81914L1.95166 6.50774ZM5.74081 0.535889L11.6 4.59229L11.4508 5.67535C10.5882 5.75089 9.82028 6.15663 9.27413 6.76543L5.29012 2.33874L5.74081 0.535889Z" fill="#FFBF31"/>
<path fill-rule="evenodd" clip-rule="evenodd" d="M4.2626 0.253122C3.36009 0.774178 3.05091 1.92815 3.57197 2.83059C4.09303 3.73303 5.24699 4.04228 6.14944 3.52122C7.05188 3.00017 7.36112 1.8462 6.84007 0.943752C6.31901 0.0412469 5.16504 -0.267934 4.2626 0.253122Z" fill="#FA6E85"/>
<path fill-rule="evenodd" clip-rule="evenodd" d="M14.5267 4.5898C14.9749 4.75817 15.3922 4.99948 15.7617 5.30399L17.1745 5.00369C17.1998 4.99805 17.2262 5.00069 17.2499 5.01123C17.2736 5.02176 17.2933 5.03964 17.306 5.0622L18.2704 6.73254C18.2836 6.75487 18.2892 6.78084 18.2865 6.80662C18.2838 6.8324 18.2729 6.85663 18.2553 6.87573L17.2895 7.94842C17.3675 8.4208 17.3674 8.90276 17.2894 9.37513L18.2553 10.4479C18.2915 10.488 18.2974 10.5444 18.2704 10.5911L17.306 12.2615C17.2933 12.284 17.2736 12.3019 17.2499 12.3125C17.2263 12.323 17.1998 12.3257 17.1745 12.32L15.7621 12.0198C15.3925 12.3244 14.975 12.5658 14.5267 12.7341L14.0809 14.1061C14.0731 14.1309 14.0576 14.1524 14.0366 14.1677C14.0157 14.1829 13.9904 14.191 13.9644 14.1907H12.0357C12.0098 14.191 11.9845 14.1829 11.9635 14.1677C11.9425 14.1524 11.927 14.1309 11.9192 14.1061L11.4734 12.7339C11.0251 12.5655 10.6079 12.3242 10.2384 12.0197L8.82559 12.32C8.80028 12.3256 8.77383 12.323 8.75015 12.3124C8.72646 12.3019 8.7068 12.284 8.69406 12.2614L7.72971 10.5911C7.71653 10.5687 7.71087 10.5428 7.71358 10.517C7.71629 10.4912 7.72722 10.467 7.74475 10.4479L8.71058 9.37519C8.63264 8.90275 8.63264 8.42074 8.71058 7.9483L7.74475 6.8756C7.7272 6.85652 7.71626 6.83229 7.71355 6.8065C7.71084 6.78071 7.71651 6.75474 7.72971 6.73242L8.69406 5.06208C8.70679 5.03949 8.72645 5.0216 8.75014 5.01106C8.77383 5.00052 8.80029 4.99789 8.82559 5.00356L10.2384 5.30386C10.6079 4.99938 11.0252 4.75807 11.4734 4.58968L11.9192 3.21742C11.927 3.19269 11.9425 3.17112 11.9635 3.15588C11.9845 3.14065 12.0098 3.13256 12.0357 3.13282H13.9644C14.0184 3.13282 14.0642 3.16612 14.0809 3.21742L14.5267 4.5898ZM13 6.34271C11.7192 6.34271 10.6809 7.38099 10.6809 8.66181C10.6809 9.94262 11.7192 10.9809 13 10.9809C14.2808 10.9809 15.3191 9.94262 15.3191 8.66181C15.3191 7.38099 14.2808 6.34271 13 6.34271Z" fill="#60B7FE"/>
<path fill-rule="evenodd" clip-rule="evenodd" d="M7.46204 13.395C7.82298 13.5305 8.15902 13.7249 8.45655 13.9701L9.5943 13.7282C9.61468 13.7237 9.63598 13.7258 9.65505 13.7343C9.67413 13.7428 9.68997 13.7572 9.70024 13.7754L10.4768 15.1205C10.4985 15.1582 10.4938 15.2035 10.4647 15.2359L9.68686 16.0997C9.74965 16.4801 9.74961 16.8683 9.68674 17.2487L10.4646 18.1126C10.4937 18.1449 10.4985 18.1903 10.4768 18.2279L9.70018 19.5731C9.68992 19.5913 9.67408 19.6057 9.655 19.6142C9.63592 19.6227 9.61462 19.6248 9.59424 19.6202L8.4568 19.3785C8.15913 19.6238 7.82295 19.8182 7.46186 19.9537L7.10285 21.0587C7.0966 21.0786 7.0841 21.096 7.06721 21.1082C7.05032 21.1205 7.02994 21.127 7.00906 21.1268H5.45583C5.43495 21.127 5.41456 21.1205 5.39768 21.1082C5.38079 21.096 5.36829 21.0786 5.36203 21.0587L5.00297 19.9535C4.64203 19.8179 4.306 19.6236 4.00846 19.3784L2.87071 19.6202C2.85033 19.6248 2.82904 19.6226 2.80997 19.6142C2.7909 19.6057 2.77505 19.5913 2.76477 19.5731L1.98812 18.2279C1.97751 18.21 1.97296 18.189 1.97514 18.1683C1.97733 18.1475 1.98614 18.128 2.00027 18.1126L2.77803 17.2488C2.71526 16.8683 2.71526 16.4802 2.77803 16.0997L2.00027 15.2359C1.98614 15.2205 1.97733 15.201 1.97514 15.1802C1.97296 15.1594 1.97751 15.1385 1.98812 15.1205L2.76477 13.7754C2.77503 13.7572 2.79087 13.7428 2.80995 13.7343C2.82903 13.7258 2.85033 13.7237 2.87071 13.7282L4.00846 13.9701C4.30601 13.7249 4.64204 13.5306 5.00297 13.395L5.36203 12.2898C5.36829 12.2699 5.38079 12.2525 5.39768 12.2403C5.41456 12.228 5.43495 12.2215 5.45583 12.2217H7.00906C7.05254 12.2217 7.08941 12.2485 7.10285 12.2898L7.46204 13.395ZM20.996 13.395C21.3569 13.5305 21.693 13.7249 21.9905 13.9701L23.1283 13.7282C23.1487 13.7237 23.17 13.7258 23.1891 13.7343C23.2081 13.7428 23.224 13.7572 23.2342 13.7754L24.0109 15.1205C24.0327 15.1582 24.0279 15.2035 23.9988 15.2359L23.2209 16.0997C23.2837 16.4801 23.2837 16.8683 23.2209 17.2487L23.9988 18.1126C24.0279 18.1449 24.0326 18.1903 24.0109 18.2279L23.2342 19.5731C23.224 19.5913 23.2081 19.6057 23.1891 19.6142C23.17 19.6227 23.1487 19.6248 23.1283 19.6202L21.9909 19.3785C21.6932 19.6238 21.357 19.8182 20.9959 19.9537L20.6369 21.0587C20.6307 21.0786 20.6182 21.096 20.6013 21.1082C20.5844 21.1205 20.564 21.127 20.5431 21.1268H18.9899C18.969 21.127 18.9486 21.1205 18.9317 21.1082C18.9149 21.096 18.9024 21.0786 18.8961 21.0587L18.537 19.9535C18.1761 19.8179 17.8401 19.6236 17.5425 19.3784L16.4048 19.6202C16.3844 19.6248 16.3631 19.6226 16.344 19.6142C16.325 19.6057 16.3091 19.5913 16.2988 19.5731L15.5222 18.2279C15.5116 18.21 15.507 18.189 15.5092 18.1683C15.5114 18.1475 15.5202 18.128 15.5343 18.1126L16.3122 17.2488C16.2494 16.8683 16.2494 16.4802 16.3122 16.0997L15.5343 15.2359C15.5202 15.2205 15.5114 15.201 15.5092 15.1802C15.507 15.1594 15.5116 15.1385 15.5222 15.1205L16.2988 13.7754C16.3091 13.7572 16.3249 13.7428 16.344 13.7343C16.3631 13.7258 16.3844 13.7237 16.4048 13.7282L17.5425 13.9701C17.8401 13.7249 18.1761 13.5306 18.537 13.395L18.8961 12.2898C18.9024 12.2699 18.9149 12.2525 18.9317 12.2403C18.9486 12.228 18.969 12.2215 18.9899 12.2217H20.5431C20.5866 12.2217 20.6235 12.2485 20.6369 12.2898L20.996 13.395ZM19.7665 14.8066C18.735 14.8066 17.8989 15.6427 17.8989 16.6742C17.8989 17.7056 18.735 18.5417 19.7665 18.5417C20.7979 18.5417 21.6341 17.7056 21.6341 16.6742C21.6341 15.6427 20.798 14.8066 19.7665 14.8066ZM6.23254 14.8066C5.20109 14.8066 4.36494 15.6427 4.36494 16.6742C4.36494 17.7056 5.20109 18.5417 6.23254 18.5417C7.26398 18.5417 8.10014 17.7056 8.10014 16.6742C8.1002 15.6427 7.26404 14.8066 6.23254 14.8066Z" fill="#19CFBA"/>
<path fill-rule="evenodd" clip-rule="evenodd" d="M24.7493 7.47865L25.9248 9.09478C25.9791 9.16977 26.0052 9.26152 25.9986 9.35388C25.992 9.44624 25.9529 9.5333 25.8884 9.59974L24.7685 10.9437C24.7358 10.9839 24.6954 11.0173 24.6497 11.0418C24.604 11.0663 24.5538 11.0815 24.5022 11.0865C24.4506 11.0915 24.3985 11.0863 24.3489 11.071C24.2993 11.0558 24.2533 11.0308 24.2134 10.9977C24.1735 10.9645 24.1406 10.9237 24.1166 10.8778C24.0926 10.8318 24.0779 10.7815 24.0734 10.7299C24.0689 10.6782 24.0748 10.6261 24.0905 10.5767C24.1063 10.5273 24.1317 10.4815 24.1653 10.442L25.1086 9.31011L24.19 8.047C23.7938 8.26202 23.3009 8.27694 22.8783 8.04687L21.9596 9.31011L22.9029 10.442C22.9365 10.4815 22.9619 10.5273 22.9777 10.5767C22.9934 10.6261 22.9993 10.6782 22.9948 10.7299C22.9903 10.7815 22.9756 10.8318 22.9516 10.8778C22.9276 10.9237 22.8947 10.9645 22.8548 10.9977C22.8149 11.0308 22.7689 11.0558 22.7193 11.071C22.6697 11.0863 22.6176 11.0915 22.566 11.0865C22.5144 11.0815 22.4643 11.0663 22.4185 11.0418C22.3728 11.0173 22.3324 10.9839 22.2997 10.9437L21.1797 9.59974C21.1152 9.5333 21.0762 9.44624 21.0695 9.35388C21.0629 9.26152 21.0891 9.16977 21.1434 9.09478L22.3187 7.47877C22.108 7.07617 22.1016 6.57774 22.3456 6.15516C22.7246 5.49876 23.5639 5.27387 24.2203 5.65285C24.8605 6.02246 25.09 6.83001 24.7493 7.47865ZM1.77941 5.65285C1.13922 6.02246 0.909588 6.83001 1.25028 7.47865L0.074851 9.09478C0.0205169 9.16977 -0.005629 9.26152 0.00101432 9.35388C0.00765765 9.44624 0.0466645 9.5333 0.111171 9.59974L1.2311 10.9437C1.26384 10.9839 1.30424 11.0173 1.34995 11.0418C1.39566 11.0663 1.44577 11.0815 1.4974 11.0865C1.54902 11.0915 1.60113 11.0863 1.6507 11.071C1.70028 11.0558 1.74634 11.0308 1.78621 10.9977C1.82609 10.9645 1.859 10.9237 1.88302 10.8778C1.90705 10.8318 1.92172 10.7815 1.9262 10.7299C1.93067 10.6782 1.92485 10.6261 1.90907 10.5767C1.8933 10.5273 1.86788 10.4815 1.83429 10.442L0.891028 9.31011L1.80963 8.047C2.20581 8.26202 2.69875 8.27694 3.12127 8.04687L4.03999 9.31011L3.09673 10.442C3.06314 10.4815 3.03772 10.5273 3.02195 10.5767C3.00617 10.6261 3.00035 10.6782 3.00482 10.7299C3.0093 10.7815 3.02397 10.8318 3.048 10.8778C3.07202 10.9237 3.10493 10.9645 3.14481 10.9977C3.18468 11.0308 3.23074 11.0558 3.28032 11.071C3.32989 11.0863 3.382 11.0915 3.43362 11.0865C3.48525 11.0815 3.53536 11.0663 3.58107 11.0418C3.62678 11.0173 3.66718 10.9839 3.69992 10.9437L4.81991 9.59974C4.88442 9.5333 4.92342 9.44624 4.93007 9.35388C4.93671 9.26152 4.91056 9.16977 4.85623 9.09478L3.68093 7.47877C3.89157 7.07617 3.89798 6.57774 3.65398 6.15516C3.27512 5.49876 2.43582 5.27387 1.77941 5.65285Z" fill="#FA6E85"/>
</svg>
