<svg width="28" height="28" viewBox="0 0 28 28" fill="none" xmlns="http://www.w3.org/2000/svg">
<g clip-path="url(#clip0_5694_1996)">
<path d="M14.0048 27.9812C13.8841 27.9552 11.0175 27.3211 8.10876 25.7403C4.1123 23.5684 2 20.6501 2 17.301V4.13275C2 3.67819 2.36723 3.3097 2.82031 3.3097C7.17459 3.3097 9.77137 2.48873 11.3206 1.79978C12.9257 1.08611 13.4801 0.366148 13.528 0.312773C13.8843 -0.134352 14.5365 -0.0920784 14.8343 0.375554C14.884 0.440961 15.5439 1.13478 17.0034 1.82477C18.4368 2.50219 21.2163 3.3097 25.5366 3.3097C25.9894 3.3097 26.3569 3.67819 26.3569 4.13275V17.301C26.3569 20.6501 24.2446 23.5684 20.2481 25.7403C17.3394 27.3211 14.4728 27.9552 14.3521 27.9812C14.2377 28.0062 14.1192 28.0062 14.0048 27.9812Z" fill="#66CCFF"/>
<path d="M25.5364 3.30965C21.2161 3.30965 18.4366 2.50213 17.0032 1.8245C15.5437 1.13473 14.8839 0.440908 14.8341 0.375502C14.6909 0.150736 14.4566 0.00789258 14.1782 0.0012207V28C14.6758 28 26.3567 25.2483 26.3567 17.3006V4.1327C26.3567 3.67813 25.9892 3.30965 25.5364 3.30965Z" fill="#59ABFF"/>
<path d="M11.7202 13.4602V10.6893C11.7202 9.40498 12.7317 8.24774 14.2034 8.24774C15.5452 8.24774 16.637 9.34302 16.637 10.6893C16.637 11.1438 17.0042 11.5123 17.4573 11.5123C17.9101 11.5123 18.2776 11.1438 18.2776 10.6893C18.2776 8.50624 16.5393 6.60181 14.1538 6.60181C11.9074 6.60181 10.0796 8.43553 10.0796 10.6893V13.4602L11.7202 13.4602Z" fill="#E1E4F9"/>
<path d="M14.1782 6.60181V8.24774C15.5977 8.24774 16.6366 9.38633 16.6366 10.6893C16.6366 11.1438 17.0038 11.5123 17.457 11.5123C17.9098 11.5123 18.2773 11.1438 18.2773 10.6893C18.2773 8.48295 16.5068 6.60181 14.1782 6.60181Z" fill="#D6DAF6"/>
<path d="M19.1001 13.1858H9.25635C8.80326 13.1858 8.43604 13.5543 8.43604 14.0087V20.5928C8.43604 21.0473 8.80326 21.4158 9.25635 21.4158H19.1001C19.553 21.4158 19.9202 21.0473 19.9202 20.5928V14.0087C19.9202 13.5543 19.553 13.1858 19.1001 13.1858ZM14.1782 18.1237C13.7251 18.1237 13.3579 17.7552 13.3579 17.3008C13.3579 16.8462 13.7251 16.4778 14.1782 16.4778C14.6311 16.4778 14.9985 16.8462 14.9985 17.3008C14.9985 17.7552 14.6311 18.1237 14.1782 18.1237Z" fill="white"/>
<path d="M19.1001 13.1858H14.1782V16.4778C14.6311 16.4778 14.9985 16.8462 14.9985 17.3008C14.9985 17.7552 14.6311 18.1237 14.1782 18.1237V21.4159H19.1001C19.553 21.4159 19.9202 21.0473 19.9202 20.5928V14.0087C19.9202 13.5543 19.553 13.1858 19.1001 13.1858Z" fill="white"/>
</g>
<defs>
<clipPath id="clip0_5694_1996">
<rect width="28" height="28" fill="white"/>
</clipPath>
</defs>
</svg>
