<svg width="28" height="28" viewBox="0 0 28 28" fill="none" xmlns="http://www.w3.org/2000/svg">
<g clip-path="url(#clip0_5761_329)">
<path d="M5.79883 27.9847H9.89815V26.3449H7.43856V24.7052H9.07828V23.0655H7.43856V21.4257H9.89815V19.786H5.79883V27.9847ZM15.1691 24.3947C15.9321 23.9766 16.4568 23.1753 16.4568 22.2456C16.4568 20.8895 15.3539 19.786 13.9973 19.786H11.5377V27.9847H13.1774V24.7052H13.4906L13.9973 25.6387L15.2708 27.9847L16.7372 27.2511L15.1691 24.3947ZM13.9973 23.0655H13.1774V21.4257H13.9973C14.4498 21.4257 14.8171 21.793 14.8171 22.2456C14.8171 22.6982 14.4498 23.0655 13.9973 23.0655Z" fill="#F1F1F1"/>
<path d="M20.5563 19.786H18.0967V27.9847H19.7364V24.7052H20.5563C21.9125 24.7052 23.0159 23.6019 23.0159 22.2456C23.0159 20.8893 21.9126 19.786 20.5563 19.786ZM20.5563 23.0655H19.7364V21.4257H20.5563C21.0086 21.4257 21.3761 21.7933 21.3761 22.2456C21.3761 22.6979 21.0087 23.0655 20.5563 23.0655Z" fill="white"/>
<path d="M16.4571 9.01851C16.4571 8.59218 16.4079 8.14939 16.3095 7.67393L18.1133 6.6409L15.6537 2.37766L13.8663 3.41058C13.1777 2.83673 12.3906 2.39395 11.538 2.0824V0H6.61877V2.0824C5.76605 2.39395 4.97904 2.83673 4.29041 3.41058L2.50305 2.37761L0.043457 6.64085L1.84721 7.67387C1.74883 8.14934 1.69958 8.59212 1.69958 9.01845C1.69958 9.44478 1.74883 9.88745 1.84721 10.363L0.043457 11.3961L2.50305 15.6594L4.29041 14.6263C4.97904 15.2002 5.76611 15.643 6.61877 15.9545V18.037H11.538V15.9545C12.3907 15.643 13.1777 15.2002 13.8663 14.6263L15.6537 15.6594L18.1133 11.3961L16.3095 10.3631C16.4079 9.88751 16.4571 9.44484 16.4571 9.01851ZM9.07836 13.1178C6.81553 13.1178 4.97904 11.2813 4.97904 9.01851C4.97904 6.75568 6.81553 4.91919 9.07836 4.91919C11.3412 4.91919 13.1777 6.75568 13.1777 9.01851C13.1777 11.2813 11.3412 13.1178 9.07836 13.1178Z" fill="#66CCFF"/>
<path d="M21.3762 18.037H16.457V16.3973H19.7365V14.7103L20.3498 14.551C21.3738 14.2844 22.2913 13.7599 23.0047 13.0346L23.4499 12.5822L24.8967 13.4181L25.7166 11.9978L24.2522 11.1523L24.4211 10.5406C24.7314 9.42046 24.7359 8.63268 24.4211 7.49656L24.2522 6.88489L25.7166 6.03939L24.8967 4.61906L23.4499 5.45483L23.0047 5.00248C22.2913 4.27712 21.3738 3.75268 20.3498 3.48606L19.7365 3.32674V1.63973H16.457V0H21.3762V2.0865C22.2345 2.38832 23.0232 2.83914 23.7029 3.41479L25.4971 2.37875L27.9567 6.63981L26.152 7.68147C26.3374 8.58392 26.3487 9.39816 26.152 10.3556L27.9567 11.3973L25.4971 15.6584L23.7029 14.6223C23.0231 15.198 22.2345 15.6487 21.3762 15.9506V18.037Z" fill="#E26730"/>
<path d="M15.6535 2.37761L13.866 3.41058C13.1774 2.83673 12.3904 2.39395 11.5377 2.0824V0H9.07812V4.91919C11.341 4.91919 13.1774 6.75568 13.1774 9.01851C13.1774 11.2813 11.341 13.1178 9.07812 13.1178V18.037H11.5377V15.9545C12.3904 15.643 13.1774 15.2002 13.866 14.6263L15.6535 15.6594L18.1131 11.3961L16.3092 10.3631C16.4077 9.88751 16.457 9.44484 16.457 9.01851C16.457 8.59218 16.4077 8.14939 16.3092 7.67393L18.1131 6.6409L15.6535 2.37761Z" fill="#59ABFF"/>
<path d="M16.7375 27.2511L15.2711 27.9847L13.9976 25.6387V23.0655C14.4501 23.0655 14.8174 22.6982 14.8174 22.2456C14.8174 21.793 14.4501 21.4257 13.9976 21.4257V19.786C15.3542 19.786 16.4572 20.8895 16.4572 22.2456C16.4572 23.1753 15.9324 23.9766 15.1694 24.3947L16.7375 27.2511Z" fill="white"/>
</g>
<defs>
<clipPath id="clip0_5761_329">
<rect width="28" height="28" fill="white"/>
</clipPath>
</defs>
</svg>
