<svg width="27" height="27" viewBox="0 0 27 27" fill="none" xmlns="http://www.w3.org/2000/svg">
<path d="M23.1895 0C22.5333 -1.46414e-07 21.9039 0.260574 21.4397 0.724444C20.9755 1.18831 20.7145 1.81752 20.7141 2.47375C20.7154 2.81553 20.7875 3.15334 20.9258 3.46589C18.8265 5.21803 16.7182 6.95927 14.6008 8.68954C14.0717 9.08144 14.6736 9.70318 15.006 9.46672C17.0399 7.81315 19.464 5.82224 21.4251 4.20835C21.6554 4.44274 21.9299 4.62895 22.2329 4.75613C22.5358 4.88332 22.861 4.94894 23.1895 4.94915C23.846 4.94915 24.4757 4.68835 24.9399 4.22412C25.4041 3.7599 25.6649 3.13027 25.6649 2.47375C25.664 1.81781 25.4028 1.18903 24.9387 0.725513C24.4746 0.262 23.8455 -5.85402e-07 23.1895 0Z" fill="#55A1FF"/>
<path d="M4.67777 6.65566C4.24123 6.64409 4.04941 7.32371 4.46281 7.48576C6.60584 8.32578 8.72738 9.16579 10.6571 9.92809C10.6531 9.98312 10.6508 10.0383 10.6505 10.0934C10.6509 10.7494 10.9117 11.3783 11.3755 11.8422C11.8393 12.306 12.4683 12.5668 13.1242 12.5672C13.7808 12.5672 14.4104 12.3064 14.8746 11.8422C15.3388 11.3779 15.5996 10.7483 15.5996 10.0918C15.5992 9.43556 15.3382 8.80636 14.874 8.34249C14.4098 7.87862 13.7805 7.61805 13.1242 7.61805C12.647 7.61842 12.18 7.75676 11.7795 8.0164C11.3791 8.27604 11.0622 8.6459 10.8671 9.08146C8.86684 8.30108 6.87095 7.50956 4.87951 6.70692C4.81693 6.67683 4.74882 6.65995 4.67943 6.65732L4.67777 6.65566Z" fill="#EF6356"/>
<path d="M1.31129 12.1786H4.84994C5.57752 12.1786 6.16288 12.764 6.16288 13.4915V24.9376C6.16288 25.6652 5.57752 26.2505 4.84994 26.2505H1.31129C1.13889 26.2507 0.968141 26.2169 0.808842 26.151C0.649543 26.0851 0.504828 25.9883 0.382999 25.8664C0.26117 25.7444 0.164624 25.5995 0.0989005 25.4402C0.0331768 25.2808 -0.000431316 25.11 4.17872e-06 24.9376V13.4915C4.17872e-06 12.764 0.58537 12.1786 1.31129 12.1786Z" fill="#FFC861"/>
<path d="M11.3552 15.9801H14.8939C15.6215 15.9801 16.2068 16.5655 16.2068 17.293V24.9375C16.2068 25.6651 15.6215 26.2505 14.8939 26.2505H11.3552C11.1828 26.2507 11.0121 26.2169 10.8528 26.1509C10.6935 26.085 10.5488 25.9883 10.4269 25.8663C10.3051 25.7443 10.2086 25.5995 10.1428 25.4401C10.0771 25.2807 10.0435 25.1099 10.0439 24.9375V17.293C10.0439 16.5655 10.6293 15.9801 11.3552 15.9801Z" fill="#EF6356"/>
<path d="M21.4204 7.36499H24.959C25.6866 7.36499 26.272 7.95036 26.272 8.67628V24.9375C26.272 25.6651 25.6866 26.2505 24.959 26.2505H21.4204C21.2478 26.2509 21.0769 26.2173 20.9174 26.1514C20.7579 26.0856 20.613 25.9889 20.491 25.8669C20.369 25.7449 20.2723 25.6 20.2065 25.4405C20.1407 25.281 20.107 25.1101 20.1074 24.9375V8.67628C20.1074 7.9487 20.6944 7.36499 21.4204 7.36499Z" fill="#55A1FF"/>
<path d="M5.55609 6.42255C5.55565 7.07878 5.29465 7.70798 4.83047 8.17185C4.36629 8.63572 3.73691 8.8963 3.08068 8.8963C2.42474 8.89586 1.79578 8.63509 1.33196 8.17127C0.868139 7.70745 0.607372 7.07849 0.606934 6.42255C0.606933 5.76632 0.867507 5.13694 1.33138 4.67276C1.79525 4.20858 2.42445 3.94758 3.08068 3.94714C3.4059 3.94693 3.72797 4.0108 4.02849 4.1351C4.32901 4.2594 4.60209 4.4417 4.83213 4.67159C5.06216 4.90147 5.24465 5.17443 5.36915 5.47487C5.49366 5.77531 5.55774 6.09733 5.55774 6.42255H5.55609Z" fill="#FFC861"/>
<path d="M20.1421 24.8681V24.9789C20.1421 25.7065 20.7291 26.2935 21.4567 26.2935H24.4215C24.5262 26.1634 24.5915 26.0061 24.6097 25.8402C24.628 25.6742 24.5985 25.5065 24.5246 25.3568C24.4508 25.207 24.3357 25.0815 24.193 24.9949C24.0502 24.9084 23.8857 24.8644 23.7188 24.8681H20.1421Z" fill="#488BFF"/>
<path d="M10.062 24.8682V24.979C10.0614 25.1518 10.0949 25.323 10.1608 25.4828C10.2266 25.6426 10.3234 25.7878 10.4456 25.91C10.5678 26.0322 10.713 26.129 10.8728 26.1948C11.0326 26.2606 11.2038 26.2942 11.3766 26.2935H14.9169C15.0897 26.2942 15.261 26.2606 15.4208 26.1948C15.5806 26.129 15.7257 26.0322 15.8479 25.91C15.9701 25.7878 16.0669 25.6426 16.1328 25.4828C16.1986 25.323 16.2322 25.1518 16.2315 24.979V24.8682H10.062Z" fill="#D85750"/>
<path d="M2.76991 26.2935H4.86003C5.03285 26.2942 5.20409 26.2606 5.36388 26.1948C5.52367 26.129 5.66885 26.0322 5.79105 25.91C5.91326 25.7878 6.01006 25.6426 6.0759 25.4828C6.14173 25.323 6.17528 25.1518 6.17463 24.979V24.8682H3.45284C3.28761 24.8682 3.12576 24.915 2.98595 25.003C2.84615 25.0911 2.73409 25.2169 2.66269 25.3659C2.5913 25.5149 2.56349 25.681 2.58246 25.8452C2.60143 26.0093 2.66641 26.1648 2.76991 26.2935Z" fill="#FFAB61"/>
</svg>
