<svg width="28" height="25" viewBox="0 0 28 25" fill="none" xmlns="http://www.w3.org/2000/svg">
<path d="M24.5284 24.4714H3.47156C1.55427 24.4714 0 22.9172 0 20.9999C0 19.0826 1.55427 17.5283 3.47156 17.5283H24.5284C26.4457 17.5283 28 19.0826 28 20.9999C28 22.9172 26.4457 24.4714 24.5284 24.4714Z" fill="#FFE177"/>
<path d="M25.8976 17.8096C26.0835 18.2422 26.1791 18.7082 26.1786 19.179C26.1786 21.0963 24.6244 22.6506 22.7071 22.6506H1.65019C1.17935 22.6511 0.713365 22.5554 0.280762 22.3696C0.812105 23.6058 2.04039 24.4717 3.47129 24.4717H24.5282C26.4455 24.4717 27.9998 22.9174 27.9998 21.0001C27.9998 19.5692 27.1339 18.3409 25.8976 17.8096Z" fill="#FFD15B"/>
<path d="M5.88843 15.7073H22.1112C23.0672 15.7073 23.6542 14.6603 23.1552 13.8447L15.0439 0.585211C14.5665 -0.19507 13.4331 -0.19507 12.9558 0.585211L4.84439 13.8447C4.34548 14.6602 4.93238 15.7073 5.88843 15.7073Z" fill="#FD8087"/>
<path d="M23.1556 13.8447L17.5436 4.6709C17.7482 5.45268 17.8515 6.2575 17.851 7.06561C17.851 10.9331 15.5205 14.2558 12.1875 15.7073H22.1116C23.0676 15.7073 23.6545 14.6603 23.1556 13.8447Z" fill="#FE646F"/>
<path d="M13.9999 10.2438C13.497 10.2438 13.0894 9.83611 13.0894 9.33326V4.79775C13.0894 4.29485 13.497 3.88721 13.9999 3.88721C14.5028 3.88721 14.9104 4.2949 14.9104 4.79775V9.33326C14.9104 9.83611 14.5028 10.2438 13.9999 10.2438Z" fill="#F2FBFF"/>
<path d="M13.9828 13.886C14.4857 13.886 14.8934 13.4784 14.8934 12.9755C14.8934 12.4726 14.4857 12.0649 13.9828 12.0649C13.4799 12.0649 13.0723 12.4726 13.0723 12.9755C13.0723 13.4784 13.4799 13.886 13.9828 13.886Z" fill="#F2FBFF"/>
<path d="M19.8568 22.2414L18.5064 20.9385L19.7404 19.8041C19.7801 19.7677 19.8122 19.7238 19.8349 19.6749C19.8576 19.6261 19.8704 19.5732 19.8727 19.5194C19.875 19.4656 19.8666 19.4118 19.8481 19.3613C19.8296 19.3107 19.8013 19.2642 19.7648 19.2246C19.6912 19.1445 19.5888 19.0969 19.4801 19.0923C19.3714 19.0878 19.2654 19.1266 19.1853 19.2002L18.2199 20.0876V19.4634C18.2199 19.2369 18.0363 19.0532 17.8098 19.0532C17.5832 19.0532 17.3996 19.2369 17.3996 19.4634V22.5365C17.3996 22.7631 17.5832 22.9467 17.8098 22.9467C18.0363 22.9467 18.2199 22.7631 18.2199 22.5365V21.802L19.2873 22.8317C19.3636 22.9056 19.4657 22.9469 19.572 22.9468C19.6537 22.9467 19.7336 22.9223 19.8013 22.8766C19.8691 22.8309 19.9216 22.7659 19.9523 22.6901C19.9829 22.6143 19.9901 22.5311 19.9731 22.4512C19.9561 22.3712 19.9156 22.2982 19.8568 22.2414ZM12.0502 19.0533C11.9415 19.0533 11.8371 19.0965 11.7602 19.1734C11.6833 19.2503 11.6401 19.3547 11.6401 19.4634V22.5366C11.6401 22.7631 11.8237 22.9468 12.0502 22.9468C12.2768 22.9468 12.4604 22.7631 12.4604 22.5366V19.4634C12.4604 19.3547 12.4172 19.2503 12.3403 19.1734C12.2633 19.0965 12.159 19.0533 12.0502 19.0533ZM15.4627 20.6394L15.3268 20.5894C14.9673 20.4572 14.7868 20.3908 14.6229 20.3015C14.5725 20.2741 14.5505 20.2254 14.5575 20.1569C14.567 20.0664 14.6339 19.9526 14.7936 19.9044C15.2122 19.7783 15.6031 20.0853 15.6154 20.0951C15.699 20.164 15.8064 20.1969 15.9142 20.1868C16.0221 20.1767 16.1215 20.1244 16.1909 20.0413C16.2603 19.9581 16.294 19.8509 16.2846 19.743C16.2753 19.6351 16.2236 19.5353 16.141 19.4653C16.1115 19.4406 15.4099 18.8621 14.557 19.119C14.1075 19.2544 13.7874 19.6286 13.7416 20.0725C13.7003 20.4714 13.8877 20.8352 14.2305 21.0219C14.4472 21.1399 14.659 21.2178 15.0436 21.3593L15.1787 21.4091C15.2791 21.4461 15.6035 21.5835 15.5651 21.7985C15.5363 21.9597 15.3372 22.1265 15.0538 22.1265C14.7556 22.1265 14.4689 22.0066 14.2868 21.8056C14.2138 21.725 14.1117 21.6768 14.003 21.6714C13.8944 21.6661 13.7881 21.7041 13.7074 21.7772C13.6268 21.8502 13.5786 21.9523 13.5732 22.0609C13.5679 22.1696 13.6059 22.2759 13.6789 22.3565C14.019 22.7316 14.5201 22.9468 15.0538 22.9468C15.7141 22.9468 16.2687 22.5245 16.3726 21.9426C16.451 21.5038 16.2531 20.931 15.4627 20.6394ZM10.4995 20.2621C10.4995 19.5956 9.93695 19.0533 9.24542 19.0533H8.42877C8.31999 19.0533 8.21567 19.0965 8.13875 19.1734C8.06183 19.2503 8.01862 19.3547 8.01862 19.4634L8.01758 22.5366C8.01758 22.7631 8.20116 22.9468 8.42773 22.9468C8.6543 22.9468 8.83789 22.7631 8.83789 22.5366V21.7356L9.78141 22.8076C9.81988 22.8514 9.86726 22.8865 9.92039 22.9105C9.97352 22.9345 10.0312 22.9468 10.0895 22.9468C10.1684 22.9467 10.2456 22.9239 10.3118 22.8811C10.3781 22.8384 10.4306 22.7774 10.4631 22.7055C10.4956 22.6336 10.5066 22.5539 10.4949 22.4758C10.4832 22.3978 10.4493 22.3248 10.3972 22.2656L9.64273 21.4084C10.1401 21.2478 10.4995 20.7948 10.4995 20.2621ZM9.24548 20.6506C9.15043 20.6506 8.99156 20.6512 8.83898 20.652V19.8736H9.24548C9.48063 19.8736 9.67926 20.0515 9.67926 20.2621C9.67926 20.4727 9.48058 20.6506 9.24548 20.6506Z" fill="#918291"/>
</svg>
